<?xml version="1.0" encoding="UTF-8" standalone="no"?>
<!DOCTYPE svg PUBLIC "-//W3C//DTD SVG 1.1//EN"
 "http://www.w3.org/Graphics/SVG/1.1/DTD/svg11.dtd">
<!-- Generated by graphviz version 2.38.0 (20140413.2041)
 -->
<!-- Title: ViennaRNA/alifold.h Pages: 1 -->
<!--zoomable 375 -->
<svg id="main" version="1.1" xmlns="http://www.w3.org/2000/svg" xmlns:xlink="http://www.w3.org/1999/xlink" xml:space="preserve" onload="init(evt)">
<style type="text/css"><![CDATA[
.edge:hover path { stroke: red; }
.edge:hover polygon { stroke: red; fill: red; }
]]></style>
<script type="text/javascript"><![CDATA[
var edges = document.getElementsByTagName('g');
if (edges && edges.length) {
  for (var i=0;i<edges.length;i++) {
    if (edges[i].id.substr(0,4)=='edge') {
      edges[i].setAttribute('class','edge');
    }
  }
}
]]></script>
        <defs>
                <circle id="rim" cx="0" cy="0" r="7"/>
                <circle id="rim2" cx="0" cy="0" r="3.5"/>
                <g id="zoomPlus">
                        <use xlink:href="#rim" fill="#404040">
                                <set attributeName="fill" to="#808080" begin="zoomplus.mouseover" end="zoomplus.mouseout"/>
                        </use>
                        <path d="M-4,0h8M0,-4v8" fill="none" stroke="white" stroke-width="1.5" pointer-events="none"/>
                </g>
                <g id="zoomMin">
                        <use xlink:href="#rim" fill="#404040">
                                <set attributeName="fill" to="#808080" begin="zoomminus.mouseover" end="zoomminus.mouseout"/>
                        </use>
                        <path d="M-4,0h8" fill="none" stroke="white" stroke-width="1.5" pointer-events="none"/>
                </g>
                <g id="dirArrow">
                        <path fill="none" stroke="white" stroke-width="1.5" d="M0,-3.0v7 M-2.5,-0.5L0,-3.0L2.5,-0.5"/>
                </g>
               <g id="resetDef">
                       <use xlink:href="#rim2" fill="#404040">
                               <set attributeName="fill" to="#808080" begin="reset.mouseover" end="reset.mouseout"/>
                       </use>
               </g>
        </defs>

<script type="text/javascript">
var viewWidth = 764;
var viewHeight = 375;
var sectionId = 'dynsection-0';
</script>
<script xlink:href="svgpan.js"/>
<svg id="graph" class="graph">
<g id="viewport">
<title>ViennaRNA/alifold.h</title>
<!-- Node1 -->
<g id="node1" class="node"><title>Node1</title>
<polygon fill="#bfbfbf" stroke="black" points="307.5,-347.5 307.5,-366.5 412.5,-366.5 412.5,-347.5 307.5,-347.5"/>
<text text-anchor="middle" x="360" y="-354.5" font-family="Helvetica,sans-Serif" font-size="10.00">ViennaRNA/alifold.h</text>
</g>
<!-- Node2 -->
<g id="node2" class="node"><title>Node2</title>
<g id="a_node2"><a xlink:href="data__structures_8h.html" target="_top" xlink:title="ViennaRNA/data_structures.h">
<polygon fill="none" stroke="black" points="213.5,-168.5 213.5,-187.5 360.5,-187.5 360.5,-168.5 213.5,-168.5"/>
<text text-anchor="middle" x="287" y="-175.5" font-family="Helvetica,sans-Serif" font-size="10.00">ViennaRNA/data_structures.h</text>
</a>
</g>
</g>
<!-- Node1&#45;&gt;Node2 -->
<g id="edge1" class="edge"><title>Node1&#45;&gt;Node2</title>
<path fill="none" stroke="midnightblue" d="M307.388,-347.902C255.523,-336.816 178.967,-311.412 143,-255 120.725,-220.063 171.163,-200.218 218.353,-189.637"/>
<polygon fill="midnightblue" stroke="midnightblue" points="219.289,-193.016 228.345,-187.517 217.837,-186.168 219.289,-193.016"/>
</g>
<!-- Node6 -->
<g id="node6" class="node"><title>Node6</title>
<g id="a_node6"><a xlink:href="params_8h.html" target="_top" xlink:title="ViennaRNA/params.h">
<polygon fill="none" stroke="black" points="410,-112.5 410,-131.5 522,-131.5 522,-112.5 410,-112.5"/>
<text text-anchor="middle" x="466" y="-119.5" font-family="Helvetica,sans-Serif" font-size="10.00">ViennaRNA/params.h</text>
</a>
</g>
</g>
<!-- Node1&#45;&gt;Node6 -->
<g id="edge13" class="edge"><title>Node1&#45;&gt;Node6</title>
<path fill="none" stroke="midnightblue" d="M376.894,-347.407C391.715,-339.333 413.294,-326.235 429,-311 450.77,-289.882 455.989,-282.85 468,-255 483.509,-219.038 488.657,-206.594 482,-168 480.432,-158.91 477.205,-149.222 474.057,-141.173"/>
<polygon fill="midnightblue" stroke="midnightblue" points="477.194,-139.602 470.111,-131.723 470.735,-142.299 477.194,-139.602"/>
</g>
<!-- Node9 -->
<g id="node9" class="node"><title>Node9</title>
<g id="a_node9"><a xlink:href="ribo_8h.html" target="_top" xlink:title="Parse RiboSum Scoring Matrices for Covariance Scoring of Alignments. ">
<polygon fill="none" stroke="black" points="532.5,-291.5 532.5,-310.5 627.5,-310.5 627.5,-291.5 532.5,-291.5"/>
<text text-anchor="middle" x="580" y="-298.5" font-family="Helvetica,sans-Serif" font-size="10.00">ViennaRNA/ribo.h</text>
</a>
</g>
</g>
<!-- Node1&#45;&gt;Node9 -->
<g id="edge14" class="edge"><title>Node1&#45;&gt;Node9</title>
<path fill="none" stroke="midnightblue" d="M394.86,-347.444C432.916,-338.102 493.958,-323.119 535.46,-312.933"/>
<polygon fill="midnightblue" stroke="midnightblue" points="536.426,-316.299 545.303,-310.516 534.757,-309.501 536.426,-316.299"/>
</g>
<!-- Node10 -->
<g id="node10" class="node"><title>Node10</title>
<g id="a_node10"><a xlink:href="mfe_8h.html" target="_top" xlink:title="MFE calculations for single RNA sequences. ">
<polygon fill="none" stroke="black" points="0,-291.5 0,-310.5 96,-310.5 96,-291.5 0,-291.5"/>
<text text-anchor="middle" x="48" y="-298.5" font-family="Helvetica,sans-Serif" font-size="10.00">ViennaRNA/mfe.h</text>
</a>
</g>
</g>
<!-- Node1&#45;&gt;Node10 -->
<g id="edge15" class="edge"><title>Node1&#45;&gt;Node10</title>
<path fill="none" stroke="midnightblue" d="M310.563,-347.444C255.011,-337.829 164.927,-322.237 106.069,-312.05"/>
<polygon fill="midnightblue" stroke="midnightblue" points="106.631,-308.596 96.1808,-310.339 105.437,-315.493 106.631,-308.596"/>
</g>
<!-- Node12 -->
<g id="node12" class="node"><title>Node12</title>
<g id="a_node12"><a xlink:href="part__func_8h.html" target="_top" xlink:title="Partition function of single RNA sequences. ">
<polygon fill="none" stroke="black" points="300,-291.5 300,-310.5 420,-310.5 420,-291.5 300,-291.5"/>
<text text-anchor="middle" x="360" y="-298.5" font-family="Helvetica,sans-Serif" font-size="10.00">ViennaRNA/part_func.h</text>
</a>
</g>
</g>
<!-- Node1&#45;&gt;Node12 -->
<g id="edge18" class="edge"><title>Node1&#45;&gt;Node12</title>
<path fill="none" stroke="midnightblue" d="M360,-347.083C360,-340.006 360,-329.861 360,-320.986"/>
<polygon fill="midnightblue" stroke="midnightblue" points="363.5,-320.751 360,-310.751 356.5,-320.751 363.5,-320.751"/>
</g>
<!-- Node14 -->
<g id="node14" class="node"><title>Node14</title>
<g id="a_node14"><a xlink:href="boltzmann__sampling_8h.html" target="_top" xlink:title="Boltzmann Sampling of secondary structures from the ensemble. ">
<polygon fill="none" stroke="black" points="152,-224.5 152,-254.5 268,-254.5 268,-224.5 152,-224.5"/>
<text text-anchor="start" x="160" y="-242.5" font-family="Helvetica,sans-Serif" font-size="10.00">ViennaRNA/boltzmann</text>
<text text-anchor="middle" x="210" y="-231.5" font-family="Helvetica,sans-Serif" font-size="10.00">_sampling.h</text>
</a>
</g>
</g>
<!-- Node1&#45;&gt;Node14 -->
<g id="edge26" class="edge"><title>Node1&#45;&gt;Node14</title>
<path fill="none" stroke="midnightblue" d="M345.603,-347.418C331.366,-338.747 309.143,-324.708 291,-311 270.48,-295.496 248.554,-276.229 232.696,-261.757"/>
<polygon fill="midnightblue" stroke="midnightblue" points="234.725,-258.867 224.996,-254.671 229.985,-264.018 234.725,-258.867"/>
</g>
<!-- Node15 -->
<g id="node15" class="node"><title>Node15</title>
<g id="a_node15"><a xlink:href="aln__util_8h.html" target="_top" xlink:title="Various utility&#45; and helper&#45;functions for sequence alignments and comparative structure prediction...">
<polygon fill="none" stroke="black" points="646,-291.5 646,-310.5 756,-310.5 756,-291.5 646,-291.5"/>
<text text-anchor="middle" x="701" y="-298.5" font-family="Helvetica,sans-Serif" font-size="10.00">ViennaRNA/aln_util.h</text>
</a>
</g>
</g>
<!-- Node1&#45;&gt;Node15 -->
<g id="edge25" class="edge"><title>Node1&#45;&gt;Node15</title>
<path fill="none" stroke="midnightblue" d="M412.534,-347.681C473.005,-338.105 572.309,-322.379 637.177,-312.107"/>
<polygon fill="midnightblue" stroke="midnightblue" points="637.951,-315.528 647.281,-310.507 636.856,-308.614 637.951,-315.528"/>
</g>
<!-- Node3 -->
<g id="node3" class="node"><title>Node3</title>
<g id="a_node3"><a xlink:href="energy__const_8h.html" target="_top" xlink:title="ViennaRNA/energy_const.h">
<polygon fill="none" stroke="black" points="190,-56.5 190,-75.5 328,-75.5 328,-56.5 190,-56.5"/>
<text text-anchor="middle" x="259" y="-63.5" font-family="Helvetica,sans-Serif" font-size="10.00">ViennaRNA/energy_const.h</text>
</a>
</g>
</g>
<!-- Node2&#45;&gt;Node3 -->
<g id="edge2" class="edge"><title>Node2&#45;&gt;Node3</title>
<path fill="none" stroke="midnightblue" d="M258.985,-168.397C241.826,-161.515 221.252,-149.984 211,-132 200.529,-113.631 219.027,-94.3596 236.012,-81.6163"/>
<polygon fill="midnightblue" stroke="midnightblue" points="238.424,-84.1993 244.595,-75.5868 234.4,-78.4714 238.424,-84.1993"/>
</g>
<!-- Node5 -->
<g id="node5" class="node"><title>Node5</title>
<g id="a_node5"><a xlink:href="model_8h.html" target="_top" xlink:title="The model details data structure and its corresponding modifiers. ">
<polygon fill="none" stroke="black" points="371,-56.5 371,-75.5 477,-75.5 477,-56.5 371,-56.5"/>
<text text-anchor="middle" x="424" y="-63.5" font-family="Helvetica,sans-Serif" font-size="10.00">ViennaRNA/model.h</text>
</a>
</g>
</g>
<!-- Node2&#45;&gt;Node5 -->
<g id="edge4" class="edge"><title>Node2&#45;&gt;Node5</title>
<path fill="none" stroke="midnightblue" d="M304.496,-168.457C320.508,-160.229 344.457,-146.868 363,-132 381.197,-117.409 399.111,-97.4681 410.768,-83.5347"/>
<polygon fill="midnightblue" stroke="midnightblue" points="413.528,-85.6884 417.164,-75.7369 408.116,-81.2491 413.528,-85.6884"/>
</g>
<!-- Node2&#45;&gt;Node6 -->
<g id="edge5" class="edge"><title>Node2&#45;&gt;Node6</title>
<path fill="none" stroke="midnightblue" d="M310.274,-168.444C338.762,-159.241 387.241,-144.562 422.626,-134.388"/>
<polygon fill="midnightblue" stroke="midnightblue" points="424.034,-137.626 432.69,-131.516 422.113,-130.895 424.034,-137.626"/>
</g>
<!-- Node7 -->
<g id="node7" class="node"><title>Node7</title>
<g id="a_node7"><a xlink:href="dp__matrices_8h.html" target="_top" xlink:title="ViennaRNA/dp_matrices.h">
<polygon fill="none" stroke="black" points="220.5,-112.5 220.5,-131.5 353.5,-131.5 353.5,-112.5 220.5,-112.5"/>
<text text-anchor="middle" x="287" y="-119.5" font-family="Helvetica,sans-Serif" font-size="10.00">ViennaRNA/dp_matrices.h</text>
</a>
</g>
</g>
<!-- Node2&#45;&gt;Node7 -->
<g id="edge9" class="edge"><title>Node2&#45;&gt;Node7</title>
<path fill="none" stroke="midnightblue" d="M281.834,-168.083C280.324,-160.927 279.894,-150.635 280.542,-141.691"/>
<polygon fill="midnightblue" stroke="midnightblue" points="284.015,-142.126 281.869,-131.751 277.077,-141.2 284.015,-142.126"/>
</g>
<!-- Node8 -->
<g id="node8" class="node"><title>Node8</title>
<g id="a_node8"><a xlink:href="constraints_8h.html" target="_top" xlink:title="ViennaRNA/constraints.h">
<polygon fill="none" stroke="black" points="36,-112.5 36,-131.5 164,-131.5 164,-112.5 36,-112.5"/>
<text text-anchor="middle" x="100" y="-119.5" font-family="Helvetica,sans-Serif" font-size="10.00">ViennaRNA/constraints.h</text>
</a>
</g>
</g>
<!-- Node2&#45;&gt;Node8 -->
<g id="edge11" class="edge"><title>Node2&#45;&gt;Node8</title>
<path fill="none" stroke="midnightblue" d="M252.281,-168.444C218.538,-159.28 167.818,-144.688 134.244,-134.519"/>
<polygon fill="midnightblue" stroke="midnightblue" points="134.998,-131.09 124.412,-131.516 132.954,-137.785 134.998,-131.09"/>
</g>
<!-- Node4 -->
<g id="node4" class="node"><title>Node4</title>
<polygon fill="none" stroke="#bfbfbf" points="235,-0.5 235,-19.5 283,-19.5 283,-0.5 235,-0.5"/>
<text text-anchor="middle" x="259" y="-7.5" font-family="Helvetica,sans-Serif" font-size="10.00">limits.h</text>
</g>
<!-- Node3&#45;&gt;Node4 -->
<g id="edge3" class="edge"><title>Node3&#45;&gt;Node4</title>
<path fill="none" stroke="midnightblue" d="M259,-56.083C259,-49.0059 259,-38.8611 259,-29.9865"/>
<polygon fill="midnightblue" stroke="midnightblue" points="262.5,-29.751 259,-19.7511 255.5,-29.7511 262.5,-29.751"/>
</g>
<!-- Node6&#45;&gt;Node2 -->
<g id="edge7" class="edge"><title>Node6&#45;&gt;Node2</title>
<path fill="none" stroke="midnightblue" d="M442.85,-131.516C414.298,-140.743 365.535,-155.507 330.073,-165.699"/>
<polygon fill="midnightblue" stroke="midnightblue" points="329.108,-162.334 320.452,-168.444 331.028,-169.066 329.108,-162.334"/>
</g>
<!-- Node6&#45;&gt;Node3 -->
<g id="edge6" class="edge"><title>Node6&#45;&gt;Node3</title>
<path fill="none" stroke="midnightblue" d="M433.2,-112.444C397.62,-103.162 340.686,-88.3093 301.653,-78.127"/>
<polygon fill="midnightblue" stroke="midnightblue" points="302.206,-74.6541 291.646,-75.5164 300.439,-81.4274 302.206,-74.6541"/>
</g>
<!-- Node6&#45;&gt;Node5 -->
<g id="edge8" class="edge"><title>Node6&#45;&gt;Node5</title>
<path fill="none" stroke="midnightblue" d="M459.065,-112.083C453.071,-104.377 444.248,-93.0333 436.952,-83.6531"/>
<polygon fill="midnightblue" stroke="midnightblue" points="439.709,-81.4958 430.806,-75.7511 434.183,-85.7934 439.709,-81.4958"/>
</g>
<!-- Node7&#45;&gt;Node2 -->
<g id="edge10" class="edge"><title>Node7&#45;&gt;Node2</title>
<path fill="none" stroke="midnightblue" d="M292.131,-131.751C293.657,-138.858 294.104,-149.136 293.472,-158.101"/>
<polygon fill="midnightblue" stroke="midnightblue" points="289.993,-157.713 292.166,-168.083 296.934,-158.622 289.993,-157.713"/>
</g>
<!-- Node8&#45;&gt;Node2 -->
<g id="edge12" class="edge"><title>Node8&#45;&gt;Node2</title>
<path fill="none" stroke="midnightblue" d="M134.572,-131.516C168.265,-140.664 218.985,-155.255 252.609,-165.436"/>
<polygon fill="midnightblue" stroke="midnightblue" points="251.872,-168.871 262.458,-168.444 253.916,-162.176 251.872,-168.871"/>
</g>
<!-- Node10&#45;&gt;Node2 -->
<g id="edge17" class="edge"><title>Node10&#45;&gt;Node2</title>
<path fill="none" stroke="midnightblue" d="M52.5191,-291.421C61.3425,-275.54 82.4351,-241.58 110,-224 137.861,-206.231 172.373,-195.472 203.503,-188.96"/>
<polygon fill="midnightblue" stroke="midnightblue" points="204.345,-192.361 213.478,-186.991 202.99,-185.493 204.345,-192.361"/>
</g>
<!-- Node11 -->
<g id="node11" class="node"><title>Node11</title>
<polygon fill="none" stroke="#bfbfbf" points="12,-230 12,-249 58,-249 58,-230 12,-230"/>
<text text-anchor="middle" x="35" y="-237" font-family="Helvetica,sans-Serif" font-size="10.00">stdio.h</text>
</g>
<!-- Node10&#45;&gt;Node11 -->
<g id="edge16" class="edge"><title>Node10&#45;&gt;Node11</title>
<path fill="none" stroke="midnightblue" d="M46.1374,-291.475C44.2839,-282.992 41.3808,-269.704 39.0032,-258.822"/>
<polygon fill="midnightblue" stroke="midnightblue" points="42.4131,-258.032 36.8591,-249.009 35.5744,-259.526 42.4131,-258.032"/>
</g>
<!-- Node12&#45;&gt;Node2 -->
<g id="edge19" class="edge"><title>Node12&#45;&gt;Node2</title>
<path fill="none" stroke="midnightblue" d="M349.017,-291.411C338.967,-283.053 324.289,-269.518 315,-255 303.424,-236.908 295.694,-213.348 291.341,-197.287"/>
<polygon fill="midnightblue" stroke="midnightblue" points="294.716,-196.355 288.861,-187.525 287.931,-198.079 294.716,-196.355"/>
</g>
<!-- Node12&#45;&gt;Node6 -->
<g id="edge20" class="edge"><title>Node12&#45;&gt;Node6</title>
<path fill="none" stroke="midnightblue" d="M392.305,-291.429C411.266,-284.685 433.991,-273.292 447,-255 471.187,-220.991 470.733,-169.433 468.347,-141.899"/>
<polygon fill="midnightblue" stroke="midnightblue" points="471.8,-141.27 467.272,-131.691 464.839,-142.003 471.8,-141.27"/>
</g>
<!-- Node13 -->
<g id="node13" class="node"><title>Node13</title>
<g id="a_node13"><a xlink:href="centroid_8h.html" target="_top" xlink:title="Centroid structure computation. ">
<polygon fill="none" stroke="black" points="324,-230 324,-249 438,-249 438,-230 324,-230"/>
<text text-anchor="middle" x="381" y="-237" font-family="Helvetica,sans-Serif" font-size="10.00">ViennaRNA/centroid.h</text>
</a>
</g>
</g>
<!-- Node12&#45;&gt;Node13 -->
<g id="edge21" class="edge"><title>Node12&#45;&gt;Node13</title>
<path fill="none" stroke="midnightblue" d="M363.009,-291.475C366.034,-282.904 370.79,-269.427 374.653,-258.483"/>
<polygon fill="midnightblue" stroke="midnightblue" points="377.969,-259.604 377.997,-249.009 371.368,-257.274 377.969,-259.604"/>
</g>
<!-- Node12&#45;&gt;Node14 -->
<g id="edge23" class="edge"><title>Node12&#45;&gt;Node14</title>
<path fill="none" stroke="midnightblue" d="M338.509,-291.475C316.769,-282.852 282.515,-269.264 254.837,-258.285"/>
<polygon fill="midnightblue" stroke="midnightblue" points="255.938,-254.957 245.352,-254.523 253.357,-261.464 255.938,-254.957"/>
</g>
<!-- Node13&#45;&gt;Node2 -->
<g id="edge22" class="edge"><title>Node13&#45;&gt;Node2</title>
<path fill="none" stroke="midnightblue" d="M367.532,-229.975C352.315,-220.343 327.313,-204.517 309.199,-193.052"/>
<polygon fill="midnightblue" stroke="midnightblue" points="310.764,-189.9 300.443,-187.509 307.021,-195.815 310.764,-189.9"/>
</g>
<!-- Node14&#45;&gt;Node2 -->
<g id="edge24" class="edge"><title>Node14&#45;&gt;Node2</title>
<path fill="none" stroke="midnightblue" d="M228.248,-224.399C240.129,-215.218 255.607,-203.258 267.694,-193.918"/>
<polygon fill="midnightblue" stroke="midnightblue" points="270.023,-196.542 275.796,-187.658 265.743,-191.003 270.023,-196.542"/>
</g>
</g>
</svg>
        <g id="navigator" transform="translate(0 0)" fill="#404254">
                <rect fill="#f2f5e9" fill-opacity="0.5" stroke="#606060" stroke-width=".5" x="0" y="0" width="60" height="60"/>
                <use id="zoomplus" xlink:href="#zoomPlus" x="17" y="9" onmousedown="handleZoom(evt,'in')"/>
                <use id="zoomminus" xlink:href="#zoomMin" x="42" y="9" onmousedown="handleZoom(evt,'out')"/>
                <use id="reset" xlink:href="#resetDef" x="30" y="36" onmousedown="handleReset()"/>
                <g id="arrowUp" xlink:href="#dirArrow" transform="translate(30 24)" onmousedown="handlePan(0,-1)">
                  <use xlink:href="#rim" fill="#404040">
                        <set attributeName="fill" to="#808080" begin="arrowUp.mouseover" end="arrowUp.mouseout"/>
                  </use>
                  <path fill="none" stroke="white" stroke-width="1.5" d="M0,-3.0v7 M-2.5,-0.5L0,-3.0L2.5,-0.5"/>
                </g>
                <g id="arrowRight" xlink:href="#dirArrow" transform="rotate(90) translate(36 -43)" onmousedown="handlePan(1,0)">
                  <use xlink:href="#rim" fill="#404040">
                        <set attributeName="fill" to="#808080" begin="arrowRight.mouseover" end="arrowRight.mouseout"/>
                  </use>
                  <path fill="none" stroke="white" stroke-width="1.5" d="M0,-3.0v7 M-2.5,-0.5L0,-3.0L2.5,-0.5"/>
                </g>
                <g id="arrowDown" xlink:href="#dirArrow" transform="rotate(180) translate(-30 -48)" onmousedown="handlePan(0,1)">
                  <use xlink:href="#rim" fill="#404040">
                        <set attributeName="fill" to="#808080" begin="arrowDown.mouseover" end="arrowDown.mouseout"/>
                  </use>
                  <path fill="none" stroke="white" stroke-width="1.5" d="M0,-3.0v7 M-2.5,-0.5L0,-3.0L2.5,-0.5"/>
                </g>
                <g id="arrowLeft" xlink:href="#dirArrow" transform="rotate(270) translate(-36 17)" onmousedown="handlePan(-1,0)">
                  <use xlink:href="#rim" fill="#404040">
                        <set attributeName="fill" to="#808080" begin="arrowLeft.mouseover" end="arrowLeft.mouseout"/>
                  </use>
                  <path fill="none" stroke="white" stroke-width="1.5" d="M0,-3.0v7 M-2.5,-0.5L0,-3.0L2.5,-0.5"/>
                </g>
        </g>
        <svg viewBox="0 0 15 15" width="100%" height="30px" preserveAspectRatio="xMaxYMin meet">
         <g id="arrow_out" transform="scale(0.3 0.3)">
          <a xlink:href="alifold_8h__incl_org.svg" target="_base">
           <rect id="button" ry="5" rx="5" y="6" x="6" height="38" width="38"
                fill="#f2f5e9" fill-opacity="0.5" stroke="#606060" stroke-width="1.0"/>
           <path id="arrow"
             d="M 11.500037,31.436501 C 11.940474,20.09759 22.043105,11.32322 32.158766,21.979434 L 37.068811,17.246167 C 37.068811,17.246167 37.088388,32 37.088388,32 L 22.160133,31.978069 C 22.160133,31.978069 26.997745,27.140456 26.997745,27.140456 C 18.528582,18.264221 13.291696,25.230495 11.500037,31.436501 z"
             style="fill:#404040;"/>
          </a>
         </g>
        </svg>
</svg>
