<?xml version="1.0" encoding="UTF-8" standalone="no"?>
<!DOCTYPE svg PUBLIC "-//W3C//DTD SVG 1.1//EN"
 "http://www.w3.org/Graphics/SVG/1.1/DTD/svg11.dtd">
<!-- Generated by graphviz version 2.38.0 (20140413.2041)
 -->
<!-- Title: ViennaRNA/boltzmann_sampling.h Pages: 1 -->
<svg width="170pt" height="151pt"
 viewBox="0.00 0.00 170.00 151.00" xmlns="http://www.w3.org/2000/svg" xmlns:xlink="http://www.w3.org/1999/xlink">
<g id="graph0" class="graph" transform="scale(1 1) rotate(0) translate(4 147)">
<title>ViennaRNA/boltzmann_sampling.h</title>
<!-- Node1 -->
<g id="node1" class="node"><title>Node1</title>
<polygon fill="#bfbfbf" stroke="black" points="-7.10543e-15,-112.5 -7.10543e-15,-142.5 116,-142.5 116,-112.5 -7.10543e-15,-112.5"/>
<text text-anchor="start" x="8" y="-130.5" font-family="Helvetica,sans-Serif" font-size="10.00">ViennaRNA/boltzmann</text>
<text text-anchor="middle" x="58" y="-119.5" font-family="Helvetica,sans-Serif" font-size="10.00">_sampling.h</text>
</g>
<!-- Node2 -->
<g id="node2" class="node"><title>Node2</title>
<g id="a_node2"><a xlink:href="alifold_8h.html" target="_top" xlink:title="compute various properties (consensus MFE structures, partition function, Boltzmann distributed stoch...">
<polygon fill="none" stroke="black" points="5.5,-0.5 5.5,-19.5 110.5,-19.5 110.5,-0.5 5.5,-0.5"/>
<text text-anchor="middle" x="58" y="-7.5" font-family="Helvetica,sans-Serif" font-size="10.00">ViennaRNA/alifold.h</text>
</a>
</g>
</g>
<!-- Node1&#45;&gt;Node2 -->
<g id="edge1" class="edge"><title>Node1&#45;&gt;Node2</title>
<path fill="none" stroke="midnightblue" d="M42.576,-103.696C35.1972,-90.0432 28.7917,-72.2404 33,-56 36.5421,-42.3307 45.2349,-28.393 51.3713,-19.7252"/>
<polygon fill="midnightblue" stroke="midnightblue" points="39.6246,-105.581 47.7214,-112.414 45.653,-102.023 39.6246,-105.581"/>
</g>
<!-- Node3 -->
<g id="node3" class="node"><title>Node3</title>
<g id="a_node3"><a xlink:href="part__func_8h.html" target="_top" xlink:title="Partition function of single RNA sequences. ">
<polygon fill="none" stroke="black" points="42,-56.5 42,-75.5 162,-75.5 162,-56.5 42,-56.5"/>
<text text-anchor="middle" x="102" y="-63.5" font-family="Helvetica,sans-Serif" font-size="10.00">ViennaRNA/part_func.h</text>
</a>
</g>
</g>
<!-- Node1&#45;&gt;Node3 -->
<g id="edge2" class="edge"><title>Node1&#45;&gt;Node3</title>
<path fill="none" stroke="midnightblue" d="M74.5617,-104.104C81.8955,-94.1868 90.0895,-83.1062 95.5976,-75.6578"/>
<polygon fill="midnightblue" stroke="midnightblue" points="71.5591,-102.278 68.4274,-112.399 77.1874,-106.44 71.5591,-102.278"/>
</g>
<!-- Node3&#45;&gt;Node2 -->
<g id="edge3" class="edge"><title>Node3&#45;&gt;Node2</title>
<path fill="none" stroke="midnightblue" d="M88.2655,-48.144C80.5995,-38.7357 71.3667,-27.4046 65.1305,-19.7511"/>
<polygon fill="midnightblue" stroke="midnightblue" points="85.7042,-50.5415 94.7343,-56.083 91.1309,-46.1198 85.7042,-50.5415"/>
</g>
</g>
</svg>
