<?xml version="1.0" encoding="UTF-8" standalone="no"?>
<!DOCTYPE svg PUBLIC "-//W3C//DTD SVG 1.1//EN"
 "http://www.w3.org/Graphics/SVG/1.1/DTD/svg11.dtd">
<!-- Generated by graphviz version 2.38.0 (20140413.2041)
 -->
<!-- Title: ViennaRNA/centroid.h Pages: 1 -->
<svg width="128pt" height="140pt"
 viewBox="0.00 0.00 128.00 140.00" xmlns="http://www.w3.org/2000/svg" xmlns:xlink="http://www.w3.org/1999/xlink">
<g id="graph0" class="graph" transform="scale(1 1) rotate(0) translate(4 136)">
<title>ViennaRNA/centroid.h</title>
<!-- Node1 -->
<g id="node1" class="node"><title>Node1</title>
<polygon fill="#bfbfbf" stroke="black" points="3,-112.5 3,-131.5 117,-131.5 117,-112.5 3,-112.5"/>
<text text-anchor="middle" x="60" y="-119.5" font-family="Helvetica,sans-Serif" font-size="10.00">ViennaRNA/centroid.h</text>
</g>
<!-- Node2 -->
<g id="node2" class="node"><title>Node2</title>
<g id="a_node2"><a xlink:href="part__func_8h.html" target="_top" xlink:title="Partition function of single RNA sequences. ">
<polygon fill="none" stroke="black" points="-7.10543e-15,-56.5 -7.10543e-15,-75.5 120,-75.5 120,-56.5 -7.10543e-15,-56.5"/>
<text text-anchor="middle" x="60" y="-63.5" font-family="Helvetica,sans-Serif" font-size="10.00">ViennaRNA/part_func.h</text>
</a>
</g>
</g>
<!-- Node1&#45;&gt;Node2 -->
<g id="edge1" class="edge"><title>Node1&#45;&gt;Node2</title>
<path fill="none" stroke="midnightblue" d="M60,-101.805C60,-92.9102 60,-82.7798 60,-75.7511"/>
<polygon fill="midnightblue" stroke="midnightblue" points="56.5001,-102.083 60,-112.083 63.5001,-102.083 56.5001,-102.083"/>
</g>
<!-- Node3 -->
<g id="node3" class="node"><title>Node3</title>
<g id="a_node3"><a xlink:href="alifold_8h.html" target="_top" xlink:title="compute various properties (consensus MFE structures, partition function, Boltzmann distributed stoch...">
<polygon fill="none" stroke="black" points="7.5,-0.5 7.5,-19.5 112.5,-19.5 112.5,-0.5 7.5,-0.5"/>
<text text-anchor="middle" x="60" y="-7.5" font-family="Helvetica,sans-Serif" font-size="10.00">ViennaRNA/alifold.h</text>
</a>
</g>
</g>
<!-- Node2&#45;&gt;Node3 -->
<g id="edge2" class="edge"><title>Node2&#45;&gt;Node3</title>
<path fill="none" stroke="midnightblue" d="M60,-45.8045C60,-36.9102 60,-26.7798 60,-19.7511"/>
<polygon fill="midnightblue" stroke="midnightblue" points="56.5001,-46.083 60,-56.083 63.5001,-46.083 56.5001,-46.083"/>
</g>
</g>
</svg>
