<?xml version="1.0" encoding="UTF-8" standalone="no"?>
<!DOCTYPE svg PUBLIC "-//W3C//DTD SVG 1.1//EN"
 "http://www.w3.org/Graphics/SVG/1.1/DTD/svg11.dtd">
<!-- Generated by graphviz version 2.38.0 (20140413.2041)
 -->
<!-- Title: ViennaRNA/cofold.h Pages: 1 -->
<svg width="516pt" height="308pt"
 viewBox="0.00 0.00 515.50 308.00" xmlns="http://www.w3.org/2000/svg" xmlns:xlink="http://www.w3.org/1999/xlink">
<g id="graph0" class="graph" transform="scale(1 1) rotate(0) translate(4 304)">
<title>ViennaRNA/cofold.h</title>
<!-- Node1 -->
<g id="node1" class="node"><title>Node1</title>
<polygon fill="#bfbfbf" stroke="black" points="296.5,-280.5 296.5,-299.5 402.5,-299.5 402.5,-280.5 296.5,-280.5"/>
<text text-anchor="middle" x="349.5" y="-287.5" font-family="Helvetica,sans-Serif" font-size="10.00">ViennaRNA/cofold.h</text>
</g>
<!-- Node2 -->
<g id="node2" class="node"><title>Node2</title>
<g id="a_node2"><a xlink:href="data__structures_8h.html" target="_top" xlink:title="ViennaRNA/data_structures.h">
<polygon fill="none" stroke="black" points="190,-168.5 190,-187.5 337,-187.5 337,-168.5 190,-168.5"/>
<text text-anchor="middle" x="263.5" y="-175.5" font-family="Helvetica,sans-Serif" font-size="10.00">ViennaRNA/data_structures.h</text>
</a>
</g>
</g>
<!-- Node1&#45;&gt;Node2 -->
<g id="edge1" class="edge"><title>Node1&#45;&gt;Node2</title>
<path fill="none" stroke="midnightblue" d="M334.747,-280.244C322.155,-272.155 304.266,-259.127 292.5,-244 281.605,-229.993 273.807,-211.246 269.061,-197.485"/>
<polygon fill="midnightblue" stroke="midnightblue" points="272.307,-196.147 265.907,-187.704 265.645,-198.295 272.307,-196.147"/>
</g>
<!-- Node6 -->
<g id="node6" class="node"><title>Node6</title>
<g id="a_node6"><a xlink:href="params_8h.html" target="_top" xlink:title="ViennaRNA/params.h">
<polygon fill="none" stroke="black" points="373.5,-112.5 373.5,-131.5 485.5,-131.5 485.5,-112.5 373.5,-112.5"/>
<text text-anchor="middle" x="429.5" y="-119.5" font-family="Helvetica,sans-Serif" font-size="10.00">ViennaRNA/params.h</text>
</a>
</g>
</g>
<!-- Node1&#45;&gt;Node6 -->
<g id="edge13" class="edge"><title>Node1&#45;&gt;Node6</title>
<path fill="none" stroke="midnightblue" d="M365.944,-280.406C379.047,-272.672 396.758,-260.063 406.5,-244 425.932,-211.959 429.538,-167.083 429.879,-141.96"/>
<polygon fill="midnightblue" stroke="midnightblue" points="433.378,-141.627 429.845,-131.639 426.378,-141.65 433.378,-141.627"/>
</g>
<!-- Node9 -->
<g id="node9" class="node"><title>Node9</title>
<g id="a_node9"><a xlink:href="mfe_8h.html" target="_top" xlink:title="MFE calculations for single RNA sequences. ">
<polygon fill="none" stroke="black" points="301.5,-224.5 301.5,-243.5 397.5,-243.5 397.5,-224.5 301.5,-224.5"/>
<text text-anchor="middle" x="349.5" y="-231.5" font-family="Helvetica,sans-Serif" font-size="10.00">ViennaRNA/mfe.h</text>
</a>
</g>
</g>
<!-- Node1&#45;&gt;Node9 -->
<g id="edge14" class="edge"><title>Node1&#45;&gt;Node9</title>
<path fill="none" stroke="midnightblue" d="M349.5,-280.083C349.5,-273.006 349.5,-262.861 349.5,-253.986"/>
<polygon fill="midnightblue" stroke="midnightblue" points="353,-253.751 349.5,-243.751 346,-253.751 353,-253.751"/>
</g>
<!-- Node3 -->
<g id="node3" class="node"><title>Node3</title>
<g id="a_node3"><a xlink:href="energy__const_8h.html" target="_top" xlink:title="ViennaRNA/energy_const.h">
<polygon fill="none" stroke="black" points="369.5,-56.5 369.5,-75.5 507.5,-75.5 507.5,-56.5 369.5,-56.5"/>
<text text-anchor="middle" x="438.5" y="-63.5" font-family="Helvetica,sans-Serif" font-size="10.00">ViennaRNA/energy_const.h</text>
</a>
</g>
</g>
<!-- Node2&#45;&gt;Node3 -->
<g id="edge2" class="edge"><title>Node2&#45;&gt;Node3</title>
<path fill="none" stroke="midnightblue" d="M276.507,-168.479C295.675,-155.956 332.681,-131.909 364.5,-112 381.439,-101.401 400.733,-89.6801 415.372,-80.8579"/>
<polygon fill="midnightblue" stroke="midnightblue" points="417.482,-83.673 424.248,-75.52 413.874,-77.6742 417.482,-83.673"/>
</g>
<!-- Node5 -->
<g id="node5" class="node"><title>Node5</title>
<g id="a_node5"><a xlink:href="model_8h.html" target="_top" xlink:title="The model details data structure and its corresponding modifiers. ">
<polygon fill="none" stroke="black" points="245.5,-56.5 245.5,-75.5 351.5,-75.5 351.5,-56.5 245.5,-56.5"/>
<text text-anchor="middle" x="298.5" y="-63.5" font-family="Helvetica,sans-Serif" font-size="10.00">ViennaRNA/model.h</text>
</a>
</g>
</g>
<!-- Node2&#45;&gt;Node5 -->
<g id="edge4" class="edge"><title>Node2&#45;&gt;Node5</title>
<path fill="none" stroke="midnightblue" d="M269.456,-168.469C275.26,-159.725 283.868,-145.529 288.5,-132 293.649,-116.962 296.155,-99.0564 297.37,-85.8499"/>
<polygon fill="midnightblue" stroke="midnightblue" points="300.878,-85.8787 298.139,-75.6439 293.898,-85.3525 300.878,-85.8787"/>
</g>
<!-- Node2&#45;&gt;Node6 -->
<g id="edge5" class="edge"><title>Node2&#45;&gt;Node6</title>
<path fill="none" stroke="midnightblue" d="M284.714,-168.444C310.874,-159.28 355.546,-144.688 388.442,-134.519"/>
<polygon fill="midnightblue" stroke="midnightblue" points="389.704,-137.793 398.24,-131.516 387.653,-131.1 389.704,-137.793"/>
</g>
<!-- Node7 -->
<g id="node7" class="node"><title>Node7</title>
<g id="a_node7"><a xlink:href="dp__matrices_8h.html" target="_top" xlink:title="ViennaRNA/dp_matrices.h">
<polygon fill="none" stroke="black" points="0,-112.5 0,-131.5 133,-131.5 133,-112.5 0,-112.5"/>
<text text-anchor="middle" x="66.5" y="-119.5" font-family="Helvetica,sans-Serif" font-size="10.00">ViennaRNA/dp_matrices.h</text>
</a>
</g>
</g>
<!-- Node2&#45;&gt;Node7 -->
<g id="edge9" class="edge"><title>Node2&#45;&gt;Node7</title>
<path fill="none" stroke="midnightblue" d="M227.196,-168.444C191.604,-159.241 137.874,-144.562 102.419,-134.388"/>
<polygon fill="midnightblue" stroke="midnightblue" points="103.068,-130.932 92.4892,-131.516 101.123,-137.657 103.068,-130.932"/>
</g>
<!-- Node8 -->
<g id="node8" class="node"><title>Node8</title>
<g id="a_node8"><a xlink:href="constraints_8h.html" target="_top" xlink:title="ViennaRNA/constraints.h">
<polygon fill="none" stroke="black" points="151.5,-112.5 151.5,-131.5 279.5,-131.5 279.5,-112.5 151.5,-112.5"/>
<text text-anchor="middle" x="215.5" y="-119.5" font-family="Helvetica,sans-Serif" font-size="10.00">ViennaRNA/constraints.h</text>
</a>
</g>
</g>
<!-- Node2&#45;&gt;Node8 -->
<g id="edge11" class="edge"><title>Node2&#45;&gt;Node8</title>
<path fill="none" stroke="midnightblue" d="M250.673,-168.324C242.282,-160.733 231.877,-149.482 224.362,-140.09"/>
<polygon fill="midnightblue" stroke="midnightblue" points="226.988,-137.757 218.204,-131.834 221.378,-141.942 226.988,-137.757"/>
</g>
<!-- Node4 -->
<g id="node4" class="node"><title>Node4</title>
<polygon fill="none" stroke="#bfbfbf" points="414.5,-0.5 414.5,-19.5 462.5,-19.5 462.5,-0.5 414.5,-0.5"/>
<text text-anchor="middle" x="438.5" y="-7.5" font-family="Helvetica,sans-Serif" font-size="10.00">limits.h</text>
</g>
<!-- Node3&#45;&gt;Node4 -->
<g id="edge3" class="edge"><title>Node3&#45;&gt;Node4</title>
<path fill="none" stroke="midnightblue" d="M438.5,-56.083C438.5,-49.0059 438.5,-38.8611 438.5,-29.9865"/>
<polygon fill="midnightblue" stroke="midnightblue" points="442,-29.751 438.5,-19.7511 435,-29.7511 442,-29.751"/>
</g>
<!-- Node6&#45;&gt;Node2 -->
<g id="edge7" class="edge"><title>Node6&#45;&gt;Node2</title>
<path fill="none" stroke="midnightblue" d="M408.4,-131.516C382.295,-140.664 337.632,-155.255 304.702,-165.436"/>
<polygon fill="midnightblue" stroke="midnightblue" points="303.427,-162.166 294.892,-168.444 305.479,-168.859 303.427,-162.166"/>
</g>
<!-- Node6&#45;&gt;Node3 -->
<g id="edge6" class="edge"><title>Node6&#45;&gt;Node3</title>
<path fill="none" stroke="midnightblue" d="M430.986,-112.083C432.179,-104.927 433.894,-94.6353 435.385,-85.6911"/>
<polygon fill="midnightblue" stroke="midnightblue" points="438.85,-86.1904 437.041,-75.7511 431.945,-85.0396 438.85,-86.1904"/>
</g>
<!-- Node6&#45;&gt;Node5 -->
<g id="edge8" class="edge"><title>Node6&#45;&gt;Node5</title>
<path fill="none" stroke="midnightblue" d="M408.743,-112.444C387.184,-103.557 353.237,-89.5632 328.706,-79.4514"/>
<polygon fill="midnightblue" stroke="midnightblue" points="329.739,-76.0917 319.16,-75.5164 327.072,-82.5634 329.739,-76.0917"/>
</g>
<!-- Node7&#45;&gt;Node2 -->
<g id="edge10" class="edge"><title>Node7&#45;&gt;Node2</title>
<path fill="none" stroke="midnightblue" d="M102.649,-131.516C138.189,-140.703 191.919,-155.381 227.426,-165.568"/>
<polygon fill="midnightblue" stroke="midnightblue" points="226.795,-169.028 237.374,-168.444 228.739,-162.304 226.795,-169.028"/>
</g>
<!-- Node8&#45;&gt;Node2 -->
<g id="edge12" class="edge"><title>Node8&#45;&gt;Node2</title>
<path fill="none" stroke="midnightblue" d="M228.41,-131.751C236.77,-139.327 247.107,-150.505 254.594,-159.855"/>
<polygon fill="midnightblue" stroke="midnightblue" points="251.951,-162.166 260.74,-168.083 257.559,-157.977 251.951,-162.166"/>
</g>
<!-- Node9&#45;&gt;Node2 -->
<g id="edge16" class="edge"><title>Node9&#45;&gt;Node2</title>
<path fill="none" stroke="midnightblue" d="M335.683,-224.324C322.267,-215.9 301.676,-202.971 285.914,-193.074"/>
<polygon fill="midnightblue" stroke="midnightblue" points="287.613,-190.008 277.283,-187.655 283.891,-195.936 287.613,-190.008"/>
</g>
<!-- Node10 -->
<g id="node10" class="node"><title>Node10</title>
<polygon fill="none" stroke="#bfbfbf" points="355.5,-168.5 355.5,-187.5 401.5,-187.5 401.5,-168.5 355.5,-168.5"/>
<text text-anchor="middle" x="378.5" y="-175.5" font-family="Helvetica,sans-Serif" font-size="10.00">stdio.h</text>
</g>
<!-- Node9&#45;&gt;Node10 -->
<g id="edge15" class="edge"><title>Node9&#45;&gt;Node10</title>
<path fill="none" stroke="midnightblue" d="M354.289,-224.083C358.258,-216.691 364.025,-205.953 368.935,-196.811"/>
<polygon fill="midnightblue" stroke="midnightblue" points="372.153,-198.217 373.8,-187.751 365.986,-194.905 372.153,-198.217"/>
</g>
</g>
</svg>
