<?xml version="1.0" encoding="UTF-8" standalone="no"?>
<!DOCTYPE svg PUBLIC "-//W3C//DTD SVG 1.1//EN"
 "http://www.w3.org/Graphics/SVG/1.1/DTD/svg11.dtd">
<!-- Generated by graphviz version 2.38.0 (20140413.2041)
 -->
<!-- Title: ViennaRNA/dist_vars.h Pages: 1 -->
<svg width="258pt" height="84pt"
 viewBox="0.00 0.00 257.50 84.00" xmlns="http://www.w3.org/2000/svg" xmlns:xlink="http://www.w3.org/1999/xlink">
<g id="graph0" class="graph" transform="scale(1 1) rotate(0) translate(4 80)">
<title>ViennaRNA/dist_vars.h</title>
<!-- Node1 -->
<g id="node1" class="node"><title>Node1</title>
<polygon fill="#bfbfbf" stroke="black" points="67,-56.5 67,-75.5 186,-75.5 186,-56.5 67,-56.5"/>
<text text-anchor="middle" x="126.5" y="-63.5" font-family="Helvetica,sans-Serif" font-size="10.00">ViennaRNA/dist_vars.h</text>
</g>
<!-- Node2 -->
<g id="node2" class="node"><title>Node2</title>
<g id="a_node2"><a xlink:href="stringdist_8h.html" target="_top" xlink:title="Functions for String Alignment. ">
<polygon fill="none" stroke="black" points="0,-0.5 0,-19.5 119,-19.5 119,-0.5 0,-0.5"/>
<text text-anchor="middle" x="59.5" y="-7.5" font-family="Helvetica,sans-Serif" font-size="10.00">ViennaRNA/stringdist.h</text>
</a>
</g>
</g>
<!-- Node1&#45;&gt;Node2 -->
<g id="edge1" class="edge"><title>Node1&#45;&gt;Node2</title>
<path fill="none" stroke="midnightblue" d="M107.665,-49.8197C95.6616,-40.1452 80.5283,-27.9481 70.4606,-19.8339"/>
<polygon fill="midnightblue" stroke="midnightblue" points="105.753,-52.7738 115.735,-56.324 110.146,-47.3236 105.753,-52.7738"/>
</g>
<!-- Node3 -->
<g id="node3" class="node"><title>Node3</title>
<g id="a_node3"><a xlink:href="treedist_8h.html" target="_top" xlink:title="Functions for Tree Edit Distances. ">
<polygon fill="none" stroke="black" points="137.5,-0.5 137.5,-19.5 249.5,-19.5 249.5,-0.5 137.5,-0.5"/>
<text text-anchor="middle" x="193.5" y="-7.5" font-family="Helvetica,sans-Serif" font-size="10.00">ViennaRNA/treedist.h</text>
</a>
</g>
</g>
<!-- Node1&#45;&gt;Node3 -->
<g id="edge2" class="edge"><title>Node1&#45;&gt;Node3</title>
<path fill="none" stroke="midnightblue" d="M145.335,-49.8197C157.338,-40.1452 172.472,-27.9481 182.539,-19.8339"/>
<polygon fill="midnightblue" stroke="midnightblue" points="142.854,-47.3236 137.265,-56.324 147.247,-52.7738 142.854,-47.3236"/>
</g>
</g>
</svg>
