<?xml version="1.0" encoding="UTF-8" standalone="no"?>
<!DOCTYPE svg PUBLIC "-//W3C//DTD SVG 1.1//EN"
 "http://www.w3.org/Graphics/SVG/1.1/DTD/svg11.dtd">
<!-- Generated by graphviz version 2.38.0 (20140413.2041)
 -->
<!-- Title: ViennaRNA/dp_matrices.h Pages: 1 -->
<svg width="394pt" height="252pt"
 viewBox="0.00 0.00 394.00 252.00" xmlns="http://www.w3.org/2000/svg" xmlns:xlink="http://www.w3.org/1999/xlink">
<g id="graph0" class="graph" transform="scale(1 1) rotate(0) translate(4 248)">
<title>ViennaRNA/dp_matrices.h</title>
<!-- Node1 -->
<g id="node1" class="node"><title>Node1</title>
<polygon fill="#bfbfbf" stroke="black" points="121.5,-224.5 121.5,-243.5 254.5,-243.5 254.5,-224.5 121.5,-224.5"/>
<text text-anchor="middle" x="188" y="-231.5" font-family="Helvetica,sans-Serif" font-size="10.00">ViennaRNA/dp_matrices.h</text>
</g>
<!-- Node2 -->
<g id="node2" class="node"><title>Node2</title>
<g id="a_node2"><a xlink:href="data__structures_8h.html" target="_top" xlink:title="ViennaRNA/data_structures.h">
<polygon fill="none" stroke="black" points="114.5,-168.5 114.5,-187.5 261.5,-187.5 261.5,-168.5 114.5,-168.5"/>
<text text-anchor="middle" x="188" y="-175.5" font-family="Helvetica,sans-Serif" font-size="10.00">ViennaRNA/data_structures.h</text>
</a>
</g>
</g>
<!-- Node1&#45;&gt;Node2 -->
<g id="edge1" class="edge"><title>Node1&#45;&gt;Node2</title>
<path fill="none" stroke="midnightblue" d="M182.834,-224.083C181.324,-216.927 180.894,-206.635 181.542,-197.691"/>
<polygon fill="midnightblue" stroke="midnightblue" points="185.015,-198.126 182.869,-187.751 178.077,-197.2 185.015,-198.126"/>
</g>
<!-- Node2&#45;&gt;Node1 -->
<g id="edge9" class="edge"><title>Node2&#45;&gt;Node1</title>
<path fill="none" stroke="midnightblue" d="M193.131,-187.751C194.657,-194.858 195.104,-205.136 194.472,-214.101"/>
<polygon fill="midnightblue" stroke="midnightblue" points="190.993,-213.713 193.166,-224.083 197.934,-214.622 190.993,-213.713"/>
</g>
<!-- Node3 -->
<g id="node3" class="node"><title>Node3</title>
<g id="a_node3"><a xlink:href="energy__const_8h.html" target="_top" xlink:title="ViennaRNA/energy_const.h">
<polygon fill="none" stroke="black" points="0,-56.5 0,-75.5 138,-75.5 138,-56.5 0,-56.5"/>
<text text-anchor="middle" x="69" y="-63.5" font-family="Helvetica,sans-Serif" font-size="10.00">ViennaRNA/energy_const.h</text>
</a>
</g>
</g>
<!-- Node2&#45;&gt;Node3 -->
<g id="edge2" class="edge"><title>Node2&#45;&gt;Node3</title>
<path fill="none" stroke="midnightblue" d="M142.599,-168.425C120.824,-161.997 96.2245,-150.918 81,-132 70.5545,-119.02 68.0974,-99.856 67.9273,-85.6972"/>
<polygon fill="midnightblue" stroke="midnightblue" points="71.4279,-85.7113 68.1723,-75.6291 64.43,-85.5409 71.4279,-85.7113"/>
</g>
<!-- Node5 -->
<g id="node5" class="node"><title>Node5</title>
<g id="a_node5"><a xlink:href="model_8h.html" target="_top" xlink:title="The model details data structure and its corresponding modifiers. ">
<polygon fill="none" stroke="black" points="170,-56.5 170,-75.5 276,-75.5 276,-56.5 170,-56.5"/>
<text text-anchor="middle" x="223" y="-63.5" font-family="Helvetica,sans-Serif" font-size="10.00">ViennaRNA/model.h</text>
</a>
</g>
</g>
<!-- Node2&#45;&gt;Node5 -->
<g id="edge4" class="edge"><title>Node2&#45;&gt;Node5</title>
<path fill="none" stroke="midnightblue" d="M193.372,-168.369C198.629,-159.547 206.484,-145.292 211,-132 216.14,-116.873 219.238,-98.9758 220.995,-85.7947"/>
<polygon fill="midnightblue" stroke="midnightblue" points="224.501,-85.9584 222.212,-75.6137 217.55,-85.1277 224.501,-85.9584"/>
</g>
<!-- Node6 -->
<g id="node6" class="node"><title>Node6</title>
<g id="a_node6"><a xlink:href="params_8h.html" target="_top" xlink:title="ViennaRNA/params.h">
<polygon fill="none" stroke="black" points="90,-112.5 90,-131.5 202,-131.5 202,-112.5 90,-112.5"/>
<text text-anchor="middle" x="146" y="-119.5" font-family="Helvetica,sans-Serif" font-size="10.00">ViennaRNA/params.h</text>
</a>
</g>
</g>
<!-- Node2&#45;&gt;Node6 -->
<g id="edge5" class="edge"><title>Node2&#45;&gt;Node6</title>
<path fill="none" stroke="midnightblue" d="M175.898,-168.083C168.434,-160.534 159.457,-149.495 153.06,-140.23"/>
<polygon fill="midnightblue" stroke="midnightblue" points="155.991,-138.316 147.675,-131.751 150.082,-142.069 155.991,-138.316"/>
</g>
<!-- Node7 -->
<g id="node7" class="node"><title>Node7</title>
<g id="a_node7"><a xlink:href="constraints_8h.html" target="_top" xlink:title="ViennaRNA/constraints.h">
<polygon fill="none" stroke="black" points="258,-112.5 258,-131.5 386,-131.5 386,-112.5 258,-112.5"/>
<text text-anchor="middle" x="322" y="-119.5" font-family="Helvetica,sans-Serif" font-size="10.00">ViennaRNA/constraints.h</text>
</a>
</g>
</g>
<!-- Node2&#45;&gt;Node7 -->
<g id="edge10" class="edge"><title>Node2&#45;&gt;Node7</title>
<path fill="none" stroke="midnightblue" d="M204.144,-168.444C224.515,-159.438 259.66,-145.189 286.371,-135.049"/>
<polygon fill="midnightblue" stroke="midnightblue" points="287.653,-138.306 295.787,-131.516 285.194,-131.752 287.653,-138.306"/>
</g>
<!-- Node4 -->
<g id="node4" class="node"><title>Node4</title>
<polygon fill="none" stroke="#bfbfbf" points="45,-0.5 45,-19.5 93,-19.5 93,-0.5 45,-0.5"/>
<text text-anchor="middle" x="69" y="-7.5" font-family="Helvetica,sans-Serif" font-size="10.00">limits.h</text>
</g>
<!-- Node3&#45;&gt;Node4 -->
<g id="edge3" class="edge"><title>Node3&#45;&gt;Node4</title>
<path fill="none" stroke="midnightblue" d="M69,-56.083C69,-49.0059 69,-38.8611 69,-29.9865"/>
<polygon fill="midnightblue" stroke="midnightblue" points="72.5001,-29.751 69,-19.7511 65.5001,-29.7511 72.5001,-29.751"/>
</g>
<!-- Node6&#45;&gt;Node2 -->
<g id="edge7" class="edge"><title>Node6&#45;&gt;Node2</title>
<path fill="none" stroke="midnightblue" d="M157.937,-131.751C165.379,-139.248 174.364,-150.275 180.798,-159.566"/>
<polygon fill="midnightblue" stroke="midnightblue" points="177.902,-161.534 186.231,-168.083 183.804,-157.77 177.902,-161.534"/>
</g>
<!-- Node6&#45;&gt;Node3 -->
<g id="edge6" class="edge"><title>Node6&#45;&gt;Node3</title>
<path fill="none" stroke="midnightblue" d="M133.629,-112.324C121.842,-104.058 103.868,-91.4527 89.8645,-81.6322"/>
<polygon fill="midnightblue" stroke="midnightblue" points="91.5376,-78.5307 81.3407,-75.6545 87.5184,-84.2619 91.5376,-78.5307"/>
</g>
<!-- Node6&#45;&gt;Node5 -->
<g id="edge8" class="edge"><title>Node6&#45;&gt;Node5</title>
<path fill="none" stroke="midnightblue" d="M158.371,-112.324C170.158,-104.058 188.132,-91.4527 202.136,-81.6322"/>
<polygon fill="midnightblue" stroke="midnightblue" points="204.482,-84.2619 210.659,-75.6545 200.462,-78.5307 204.482,-84.2619"/>
</g>
<!-- Node7&#45;&gt;Node2 -->
<g id="edge11" class="edge"><title>Node7&#45;&gt;Node2</title>
<path fill="none" stroke="midnightblue" d="M305.947,-131.516C285.619,-140.506 250.484,-154.754 223.748,-164.906"/>
<polygon fill="midnightblue" stroke="midnightblue" points="222.454,-161.653 214.321,-168.444 224.914,-168.207 222.454,-161.653"/>
</g>
</g>
</svg>
