<?xml version="1.0" encoding="UTF-8" standalone="no"?>
<!DOCTYPE svg PUBLIC "-//W3C//DTD SVG 1.1//EN"
 "http://www.w3.org/Graphics/SVG/1.1/DTD/svg11.dtd">
<!-- Generated by graphviz version 2.38.0 (20140413.2041)
 -->
<!-- Title: ViennaRNA/file_formats.h Pages: 1 -->
<svg width="546pt" height="252pt"
 viewBox="0.00 0.00 546.00 252.00" xmlns="http://www.w3.org/2000/svg" xmlns:xlink="http://www.w3.org/1999/xlink">
<g id="graph0" class="graph" transform="scale(1 1) rotate(0) translate(4 248)">
<title>ViennaRNA/file_formats.h</title>
<!-- Node1 -->
<g id="node1" class="node"><title>Node1</title>
<polygon fill="#bfbfbf" stroke="black" points="154.5,-224.5 154.5,-243.5 285.5,-243.5 285.5,-224.5 154.5,-224.5"/>
<text text-anchor="middle" x="220" y="-231.5" font-family="Helvetica,sans-Serif" font-size="10.00">ViennaRNA/file_formats.h</text>
</g>
<!-- Node2 -->
<g id="node2" class="node"><title>Node2</title>
<polygon fill="none" stroke="#bfbfbf" points="140,-168.5 140,-187.5 186,-187.5 186,-168.5 140,-168.5"/>
<text text-anchor="middle" x="163" y="-175.5" font-family="Helvetica,sans-Serif" font-size="10.00">stdio.h</text>
</g>
<!-- Node1&#45;&gt;Node2 -->
<g id="edge1" class="edge"><title>Node1&#45;&gt;Node2</title>
<path fill="none" stroke="midnightblue" d="M210.842,-224.324C202.499,-216.42 189.968,-204.548 179.823,-194.938"/>
<polygon fill="midnightblue" stroke="midnightblue" points="181.991,-192.171 172.325,-187.834 177.177,-197.252 181.991,-192.171"/>
</g>
<!-- Node3 -->
<g id="node3" class="node"><title>Node3</title>
<g id="a_node3"><a xlink:href="data__structures_8h.html" target="_top" xlink:title="ViennaRNA/data_structures.h">
<polygon fill="none" stroke="black" points="204.5,-168.5 204.5,-187.5 351.5,-187.5 351.5,-168.5 204.5,-168.5"/>
<text text-anchor="middle" x="278" y="-175.5" font-family="Helvetica,sans-Serif" font-size="10.00">ViennaRNA/data_structures.h</text>
</a>
</g>
</g>
<!-- Node1&#45;&gt;Node3 -->
<g id="edge2" class="edge"><title>Node1&#45;&gt;Node3</title>
<path fill="none" stroke="midnightblue" d="M229.319,-224.324C237.893,-216.341 250.812,-204.313 261.188,-194.653"/>
<polygon fill="midnightblue" stroke="midnightblue" points="263.578,-197.21 268.512,-187.834 258.808,-192.086 263.578,-197.21"/>
</g>
<!-- Node4 -->
<g id="node4" class="node"><title>Node4</title>
<g id="a_node4"><a xlink:href="energy__const_8h.html" target="_top" xlink:title="ViennaRNA/energy_const.h">
<polygon fill="none" stroke="black" points="0,-56.5 0,-75.5 138,-75.5 138,-56.5 0,-56.5"/>
<text text-anchor="middle" x="69" y="-63.5" font-family="Helvetica,sans-Serif" font-size="10.00">ViennaRNA/energy_const.h</text>
</a>
</g>
</g>
<!-- Node3&#45;&gt;Node4 -->
<g id="edge3" class="edge"><title>Node3&#45;&gt;Node4</title>
<path fill="none" stroke="midnightblue" d="M204.299,-168.649C155.73,-161.606 98.057,-149.789 81,-132 69.469,-119.974 67.1576,-100.682 67.3171,-86.2335"/>
<polygon fill="midnightblue" stroke="midnightblue" points="70.8294,-86.082 67.8459,-75.916 63.8386,-85.7237 70.8294,-86.082"/>
</g>
<!-- Node6 -->
<g id="node6" class="node"><title>Node6</title>
<g id="a_node6"><a xlink:href="model_8h.html" target="_top" xlink:title="The model details data structure and its corresponding modifiers. ">
<polygon fill="none" stroke="black" points="170,-56.5 170,-75.5 276,-75.5 276,-56.5 170,-56.5"/>
<text text-anchor="middle" x="223" y="-63.5" font-family="Helvetica,sans-Serif" font-size="10.00">ViennaRNA/model.h</text>
</a>
</g>
</g>
<!-- Node3&#45;&gt;Node6 -->
<g id="edge5" class="edge"><title>Node3&#45;&gt;Node6</title>
<path fill="none" stroke="midnightblue" d="M271.702,-168.337C265.444,-159.489 255.821,-145.214 249,-132 241.161,-116.812 234.089,-98.6965 229.306,-85.4526"/>
<polygon fill="midnightblue" stroke="midnightblue" points="232.477,-83.9195 225.861,-75.6447 225.873,-86.2395 232.477,-83.9195"/>
</g>
<!-- Node7 -->
<g id="node7" class="node"><title>Node7</title>
<g id="a_node7"><a xlink:href="params_8h.html" target="_top" xlink:title="ViennaRNA/params.h">
<polygon fill="none" stroke="black" points="90,-112.5 90,-131.5 202,-131.5 202,-112.5 90,-112.5"/>
<text text-anchor="middle" x="146" y="-119.5" font-family="Helvetica,sans-Serif" font-size="10.00">ViennaRNA/params.h</text>
</a>
</g>
</g>
<!-- Node3&#45;&gt;Node7 -->
<g id="edge6" class="edge"><title>Node3&#45;&gt;Node7</title>
<path fill="none" stroke="midnightblue" d="M251.995,-168.444C228.428,-159.596 194.189,-145.687 170.957,-135.586"/>
<polygon fill="midnightblue" stroke="midnightblue" points="172.3,-132.353 161.738,-131.516 169.473,-138.757 172.3,-132.353"/>
</g>
<!-- Node8 -->
<g id="node8" class="node"><title>Node8</title>
<g id="a_node8"><a xlink:href="dp__matrices_8h.html" target="_top" xlink:title="ViennaRNA/dp_matrices.h">
<polygon fill="none" stroke="black" points="258.5,-112.5 258.5,-131.5 391.5,-131.5 391.5,-112.5 258.5,-112.5"/>
<text text-anchor="middle" x="325" y="-119.5" font-family="Helvetica,sans-Serif" font-size="10.00">ViennaRNA/dp_matrices.h</text>
</a>
</g>
</g>
<!-- Node3&#45;&gt;Node8 -->
<g id="edge10" class="edge"><title>Node3&#45;&gt;Node8</title>
<path fill="none" stroke="midnightblue" d="M280.595,-168.083C285.832,-160.141 295.761,-148.335 305.046,-138.797"/>
<polygon fill="midnightblue" stroke="midnightblue" points="307.549,-141.245 312.252,-131.751 302.655,-136.24 307.549,-141.245"/>
</g>
<!-- Node9 -->
<g id="node9" class="node"><title>Node9</title>
<g id="a_node9"><a xlink:href="constraints_8h.html" target="_top" xlink:title="ViennaRNA/constraints.h">
<polygon fill="none" stroke="black" points="410,-112.5 410,-131.5 538,-131.5 538,-112.5 410,-112.5"/>
<text text-anchor="middle" x="474" y="-119.5" font-family="Helvetica,sans-Serif" font-size="10.00">ViennaRNA/constraints.h</text>
</a>
</g>
</g>
<!-- Node3&#45;&gt;Node9 -->
<g id="edge12" class="edge"><title>Node3&#45;&gt;Node9</title>
<path fill="none" stroke="midnightblue" d="M303.968,-168.444C335.622,-159.162 389.366,-144.309 428.031,-134.127"/>
<polygon fill="midnightblue" stroke="midnightblue" points="429.22,-137.434 438.009,-131.516 427.448,-130.662 429.22,-137.434"/>
</g>
<!-- Node5 -->
<g id="node5" class="node"><title>Node5</title>
<polygon fill="none" stroke="#bfbfbf" points="45,-0.5 45,-19.5 93,-19.5 93,-0.5 45,-0.5"/>
<text text-anchor="middle" x="69" y="-7.5" font-family="Helvetica,sans-Serif" font-size="10.00">limits.h</text>
</g>
<!-- Node4&#45;&gt;Node5 -->
<g id="edge4" class="edge"><title>Node4&#45;&gt;Node5</title>
<path fill="none" stroke="midnightblue" d="M69,-56.083C69,-49.0059 69,-38.8611 69,-29.9865"/>
<polygon fill="midnightblue" stroke="midnightblue" points="72.5001,-29.751 69,-19.7511 65.5001,-29.7511 72.5001,-29.751"/>
</g>
<!-- Node7&#45;&gt;Node3 -->
<g id="edge8" class="edge"><title>Node7&#45;&gt;Node3</title>
<path fill="none" stroke="midnightblue" d="M171.898,-131.516C195.433,-140.349 229.673,-154.255 252.938,-164.368"/>
<polygon fill="midnightblue" stroke="midnightblue" points="251.611,-167.608 262.173,-168.444 254.437,-161.204 251.611,-167.608"/>
</g>
<!-- Node7&#45;&gt;Node4 -->
<g id="edge7" class="edge"><title>Node7&#45;&gt;Node4</title>
<path fill="none" stroke="midnightblue" d="M133.629,-112.324C121.842,-104.058 103.868,-91.4527 89.8645,-81.6322"/>
<polygon fill="midnightblue" stroke="midnightblue" points="91.5376,-78.5307 81.3407,-75.6545 87.5184,-84.2619 91.5376,-78.5307"/>
</g>
<!-- Node7&#45;&gt;Node6 -->
<g id="edge9" class="edge"><title>Node7&#45;&gt;Node6</title>
<path fill="none" stroke="midnightblue" d="M158.371,-112.324C170.158,-104.058 188.132,-91.4527 202.136,-81.6322"/>
<polygon fill="midnightblue" stroke="midnightblue" points="204.482,-84.2619 210.659,-75.6545 200.462,-78.5307 204.482,-84.2619"/>
</g>
<!-- Node8&#45;&gt;Node3 -->
<g id="edge11" class="edge"><title>Node8&#45;&gt;Node3</title>
<path fill="none" stroke="midnightblue" d="M322.46,-131.834C317.228,-139.791 307.236,-151.673 297.905,-161.253"/>
<polygon fill="midnightblue" stroke="midnightblue" points="295.374,-158.833 290.666,-168.324 300.265,-163.84 295.374,-158.833"/>
</g>
<!-- Node9&#45;&gt;Node3 -->
<g id="edge13" class="edge"><title>Node9&#45;&gt;Node3</title>
<path fill="none" stroke="midnightblue" d="M448.168,-131.516C416.578,-140.782 362.844,-155.633 324.136,-165.829"/>
<polygon fill="midnightblue" stroke="midnightblue" points="322.934,-162.526 314.146,-168.444 324.706,-169.298 322.934,-162.526"/>
</g>
</g>
</svg>
