<?xml version="1.0" encoding="UTF-8" standalone="no"?>
<!DOCTYPE svg PUBLIC "-//W3C//DTD SVG 1.1//EN"
 "http://www.w3.org/Graphics/SVG/1.1/DTD/svg11.dtd">
<!-- Generated by graphviz version 2.38.0 (20140413.2041)
 -->
<!-- Title: Partition Function for two hybridized Sequences Pages: 1 -->
<svg width="266pt" height="110pt"
 viewBox="0.00 0.00 266.00 110.00" xmlns="http://www.w3.org/2000/svg" xmlns:xlink="http://www.w3.org/1999/xlink">
<g id="graph0" class="graph" transform="scale(1 1) rotate(0) translate(4 106)">
<title>Partition Function for two hybridized Sequences</title>
<!-- Node2 -->
<g id="node1" class="node"><title>Node2</title>
<g id="a_node1"><a xlink:href="group__pf__fold.html" target="_top" xlink:title="This section provides information about all functions and variables related to the calculation of the...">
<polygon fill="none" stroke="black" points="11,-60.5 11,-101.5 114,-101.5 114,-60.5 11,-60.5"/>
<text text-anchor="start" x="19" y="-89.5" font-family="Helvetica,sans-Serif" font-size="10.00">Computing Partition</text>
<text text-anchor="start" x="19" y="-78.5" font-family="Helvetica,sans-Serif" font-size="10.00"> Functions and Pair</text>
<text text-anchor="middle" x="62.5" y="-67.5" font-family="Helvetica,sans-Serif" font-size="10.00"> Probabilities</text>
</a>
</g>
</g>
<!-- Node0 -->
<g id="node3" class="node"><title>Node0</title>
<polygon fill="#bfbfbf" stroke="black" points="161,-30.5 161,-71.5 258,-71.5 258,-30.5 161,-30.5"/>
<text text-anchor="start" x="169" y="-59.5" font-family="Helvetica,sans-Serif" font-size="10.00">Partition Function</text>
<text text-anchor="start" x="169" y="-48.5" font-family="Helvetica,sans-Serif" font-size="10.00"> for two hybridized</text>
<text text-anchor="middle" x="209.5" y="-37.5" font-family="Helvetica,sans-Serif" font-size="10.00"> Sequences</text>
</g>
<!-- Node2&#45;&gt;Node0 -->
<g id="edge2" class="edge"><title>Node2&#45;&gt;Node0</title>
<path fill="none" stroke="black" d="M124.353,-68.4098C136.588,-65.8784 149.277,-63.253 160.978,-60.8322"/>
<polygon fill="black" stroke="black" points="123.297,-65.0539 114.214,-70.5075 124.716,-71.9087 123.297,-65.0539"/>
</g>
<!-- Node1 -->
<g id="node2" class="node"><title>Node1</title>
<g id="a_node2"><a xlink:href="group__cofold.html" target="_top" xlink:title="Predict structures formed by two molecules upon hybridization. ">
<polygon fill="none" stroke="black" points="0,-0.5 0,-41.5 125,-41.5 125,-0.5 0,-0.5"/>
<text text-anchor="start" x="8" y="-29.5" font-family="Helvetica,sans-Serif" font-size="10.00">Calculate Secondary</text>
<text text-anchor="start" x="8" y="-18.5" font-family="Helvetica,sans-Serif" font-size="10.00"> Structures of two RNAs</text>
<text text-anchor="middle" x="62.5" y="-7.5" font-family="Helvetica,sans-Serif" font-size="10.00"> upon Dimerization</text>
</a>
</g>
</g>
<!-- Node1&#45;&gt;Node0 -->
<g id="edge1" class="edge"><title>Node1&#45;&gt;Node0</title>
<path fill="none" stroke="black" d="M135.478,-35.892C144.08,-37.6717 152.692,-39.4534 160.829,-41.137"/>
<polygon fill="black" stroke="black" points="135.915,-32.4084 125.414,-33.8097 134.497,-39.2633 135.915,-32.4084"/>
</g>
</g>
</svg>
