<?xml version="1.0" encoding="UTF-8" standalone="no"?>
<!DOCTYPE svg PUBLIC "-//W3C//DTD SVG 1.1//EN"
 "http://www.w3.org/Graphics/SVG/1.1/DTD/svg11.dtd">
<!-- Generated by graphviz version 2.38.0 (20140413.2041)
 -->
<!-- Title: Calculate Secondary Structures of two RNAs upon Dimerization Pages: 1 -->
<svg width="468pt" height="170pt"
 viewBox="0.00 0.00 468.00 169.50" xmlns="http://www.w3.org/2000/svg" xmlns:xlink="http://www.w3.org/1999/xlink">
<g id="graph0" class="graph" transform="scale(1 1) rotate(0) translate(4 165.5)">
<title>Calculate Secondary Structures of two RNAs upon Dimerization</title>
<!-- Node4 -->
<g id="node1" class="node"><title>Node4</title>
<g id="a_node1"><a xlink:href="group__up__cofold.html" target="_top" xlink:title="Partition Function Cofolding as a stepwise process. ">
<polygon fill="none" stroke="black" points="328,-109 328,-161 460,-161 460,-109 328,-109"/>
<text text-anchor="start" x="336" y="-149" font-family="Helvetica,sans-Serif" font-size="10.00">Partition Function</text>
<text text-anchor="start" x="336" y="-138" font-family="Helvetica,sans-Serif" font-size="10.00"> for two hybridized</text>
<text text-anchor="start" x="336" y="-127" font-family="Helvetica,sans-Serif" font-size="10.00"> Sequences as a stepwise</text>
<text text-anchor="middle" x="394" y="-116" font-family="Helvetica,sans-Serif" font-size="10.00"> Process</text>
</a>
</g>
</g>
<!-- Node2 -->
<g id="node2" class="node"><title>Node2</title>
<g id="a_node2"><a xlink:href="group__mfe__cofold.html" target="_top" xlink:title="MFE Structures of two\l hybridized Sequences">
<polygon fill="none" stroke="black" points="336,-60 336,-90 452,-90 452,-60 336,-60"/>
<text text-anchor="start" x="344" y="-78" font-family="Helvetica,sans-Serif" font-size="10.00">MFE Structures of two</text>
<text text-anchor="middle" x="394" y="-67" font-family="Helvetica,sans-Serif" font-size="10.00"> hybridized Sequences</text>
</a>
</g>
</g>
<!-- Node1 -->
<g id="node3" class="node"><title>Node1</title>
<g id="a_node3"><a xlink:href="group__folding__routines.html" target="_top" xlink:title="This module contains all functions related to thermodynamic folding of RNAs. ">
<polygon fill="none" stroke="black" points="0,-60 0,-90 131,-90 131,-60 0,-60"/>
<text text-anchor="start" x="8" y="-78" font-family="Helvetica,sans-Serif" font-size="10.00">RNA Secondary Structure</text>
<text text-anchor="middle" x="65.5" y="-67" font-family="Helvetica,sans-Serif" font-size="10.00"> Prediction</text>
</a>
</g>
</g>
<!-- Node0 -->
<g id="node4" class="node"><title>Node0</title>
<polygon fill="#bfbfbf" stroke="black" points="167,-54.5 167,-95.5 292,-95.5 292,-54.5 167,-54.5"/>
<text text-anchor="start" x="175" y="-83.5" font-family="Helvetica,sans-Serif" font-size="10.00">Calculate Secondary</text>
<text text-anchor="start" x="175" y="-72.5" font-family="Helvetica,sans-Serif" font-size="10.00"> Structures of two RNAs</text>
<text text-anchor="middle" x="229.5" y="-61.5" font-family="Helvetica,sans-Serif" font-size="10.00"> upon Dimerization</text>
</g>
<!-- Node1&#45;&gt;Node0 -->
<g id="edge1" class="edge"><title>Node1&#45;&gt;Node0</title>
<path fill="none" stroke="black" d="M141.703,-75C150.156,-75 158.694,-75 166.946,-75"/>
<polygon fill="black" stroke="black" points="141.458,-71.5001 131.458,-75 141.458,-78.5001 141.458,-71.5001"/>
</g>
<!-- Node0&#45;&gt;Node4 -->
<g id="edge4" class="edge"><title>Node0&#45;&gt;Node4</title>
<path fill="none" stroke="black" d="M295.928,-99.1582C306.413,-103.029 317.264,-107.036 327.745,-110.906"/>
<polygon fill="black" stroke="black" points="297.017,-95.8291 286.423,-95.6486 294.592,-102.396 297.017,-95.8291"/>
</g>
<!-- Node0&#45;&gt;Node2 -->
<g id="edge2" class="edge"><title>Node0&#45;&gt;Node2</title>
<path fill="none" stroke="black" d="M302.54,-75C313.682,-75 325.058,-75 335.815,-75"/>
<polygon fill="black" stroke="black" points="302.398,-71.5001 292.398,-75 302.398,-78.5001 302.398,-71.5001"/>
</g>
<!-- Node3 -->
<g id="node5" class="node"><title>Node3</title>
<g id="a_node5"><a xlink:href="group__pf__cofold.html" target="_top" xlink:title="Partition Function Cofolding. ">
<polygon fill="none" stroke="black" points="345.5,-0.5 345.5,-41.5 442.5,-41.5 442.5,-0.5 345.5,-0.5"/>
<text text-anchor="start" x="353.5" y="-29.5" font-family="Helvetica,sans-Serif" font-size="10.00">Partition Function</text>
<text text-anchor="start" x="353.5" y="-18.5" font-family="Helvetica,sans-Serif" font-size="10.00"> for two hybridized</text>
<text text-anchor="middle" x="394" y="-7.5" font-family="Helvetica,sans-Serif" font-size="10.00"> Sequences</text>
</a>
</g>
</g>
<!-- Node0&#45;&gt;Node3 -->
<g id="edge3" class="edge"><title>Node0&#45;&gt;Node3</title>
<path fill="none" stroke="black" d="M301.978,-51.2473C316.683,-46.3607 331.821,-41.3302 345.428,-36.8085"/>
<polygon fill="black" stroke="black" points="300.784,-47.9559 292.398,-54.4309 302.991,-54.5987 300.784,-47.9559"/>
</g>
</g>
</svg>
