<?xml version="1.0" encoding="UTF-8" standalone="no"?>
<!DOCTYPE svg PUBLIC "-//W3C//DTD SVG 1.1//EN"
 "http://www.w3.org/Graphics/SVG/1.1/DTD/svg11.dtd">
<!-- Generated by graphviz version 2.38.0 (20140413.2041)
 -->
<!-- Title: Stochastic Backtracking of Structures from Distance Based Partitioning Pages: 1 -->
<svg width="351pt" height="88pt"
 viewBox="0.00 0.00 351.00 88.00" xmlns="http://www.w3.org/2000/svg" xmlns:xlink="http://www.w3.org/1999/xlink">
<g id="graph0" class="graph" transform="scale(1 1) rotate(0) translate(4 84)">
<title>Stochastic Backtracking of Structures from Distance Based Partitioning</title>
<!-- Node0 -->
<g id="node1" class="node"><title>Node0</title>
<polygon fill="#bfbfbf" stroke="black" points="203,-19 203,-60 343,-60 343,-19 203,-19"/>
<text text-anchor="start" x="211" y="-48" font-family="Helvetica,sans-Serif" font-size="10.00">Stochastic Backtracking</text>
<text text-anchor="start" x="211" y="-37" font-family="Helvetica,sans-Serif" font-size="10.00"> of Structures from Distance</text>
<text text-anchor="middle" x="273" y="-26" font-family="Helvetica,sans-Serif" font-size="10.00"> Based Partitioning</text>
</g>
<!-- Node1 -->
<g id="node2" class="node"><title>Node1</title>
<g id="a_node2"><a xlink:href="group__kl__neighborhood.html" target="_top" xlink:title="Compute Thermodynamic properties for a Distance Class Partitioning of the Secondary Structure Space...">
<polygon fill="none" stroke="black" points="0,-49.5 0,-79.5 167,-79.5 167,-49.5 0,-49.5"/>
<text text-anchor="start" x="8" y="-67.5" font-family="Helvetica,sans-Serif" font-size="10.00">Distance based partitioning</text>
<text text-anchor="middle" x="83.5" y="-56.5" font-family="Helvetica,sans-Serif" font-size="10.00"> of the Secondary Structure Space</text>
</a>
</g>
</g>
<!-- Node1&#45;&gt;Node0 -->
<g id="edge1" class="edge"><title>Node1&#45;&gt;Node0</title>
<path fill="none" stroke="black" d="M177.168,-52.1443C185.838,-50.9882 194.521,-49.8305 202.919,-48.7107"/>
<polygon fill="black" stroke="black" points="176.463,-48.7072 167.013,-53.4983 177.388,-55.6458 176.463,-48.7072"/>
</g>
<!-- Node2 -->
<g id="node3" class="node"><title>Node2</title>
<g id="a_node3"><a xlink:href="group__subopt__stochbt.html" target="_top" xlink:title="Stochastic backtracking\l in the Ensemble">
<polygon fill="none" stroke="black" points="22.5,-0.5 22.5,-30.5 144.5,-30.5 144.5,-0.5 22.5,-0.5"/>
<text text-anchor="start" x="30.5" y="-18.5" font-family="Helvetica,sans-Serif" font-size="10.00">Stochastic backtracking</text>
<text text-anchor="middle" x="83.5" y="-7.5" font-family="Helvetica,sans-Serif" font-size="10.00"> in the Ensemble</text>
</a>
</g>
</g>
<!-- Node2&#45;&gt;Node0 -->
<g id="edge2" class="edge"><title>Node2&#45;&gt;Node0</title>
<path fill="none" stroke="black" d="M154.765,-24.4939C170.47,-26.5042 187.115,-28.6347 202.778,-30.6395"/>
<polygon fill="black" stroke="black" points="154.963,-20.9908 144.6,-23.1928 154.075,-27.9342 154.963,-20.9908"/>
</g>
</g>
</svg>
