<?xml version="1.0" encoding="UTF-8" standalone="no"?>
<!DOCTYPE svg PUBLIC "-//W3C//DTD SVG 1.1//EN"
 "http://www.w3.org/Graphics/SVG/1.1/DTD/svg11.dtd">
<!-- Generated by graphviz version 2.38.0 (20140413.2041)
 -->
<!-- Title: Partition Function for two hybridized Sequences as a stepwise Process Pages: 1 -->
<svg width="301pt" height="110pt"
 viewBox="0.00 0.00 301.00 110.00" xmlns="http://www.w3.org/2000/svg" xmlns:xlink="http://www.w3.org/1999/xlink">
<g id="graph0" class="graph" transform="scale(1 1) rotate(0) translate(4 106)">
<title>Partition Function for two hybridized Sequences as a stepwise Process</title>
<!-- Node0 -->
<g id="node1" class="node"><title>Node0</title>
<polygon fill="#bfbfbf" stroke="black" points="161,-25 161,-77 293,-77 293,-25 161,-25"/>
<text text-anchor="start" x="169" y="-65" font-family="Helvetica,sans-Serif" font-size="10.00">Partition Function</text>
<text text-anchor="start" x="169" y="-54" font-family="Helvetica,sans-Serif" font-size="10.00"> for two hybridized</text>
<text text-anchor="start" x="169" y="-43" font-family="Helvetica,sans-Serif" font-size="10.00"> Sequences as a stepwise</text>
<text text-anchor="middle" x="227" y="-32" font-family="Helvetica,sans-Serif" font-size="10.00"> Process</text>
</g>
<!-- Node2 -->
<g id="node2" class="node"><title>Node2</title>
<g id="a_node2"><a xlink:href="group__pf__fold.html" target="_top" xlink:title="This section provides information about all functions and variables related to the calculation of the...">
<polygon fill="none" stroke="black" points="11,-60.5 11,-101.5 114,-101.5 114,-60.5 11,-60.5"/>
<text text-anchor="start" x="19" y="-89.5" font-family="Helvetica,sans-Serif" font-size="10.00">Computing Partition</text>
<text text-anchor="start" x="19" y="-78.5" font-family="Helvetica,sans-Serif" font-size="10.00"> Functions and Pair</text>
<text text-anchor="middle" x="62.5" y="-67.5" font-family="Helvetica,sans-Serif" font-size="10.00"> Probabilities</text>
</a>
</g>
</g>
<!-- Node2&#45;&gt;Node0 -->
<g id="edge2" class="edge"><title>Node2&#45;&gt;Node0</title>
<path fill="none" stroke="black" d="M123.951,-69.8398C135.98,-67.6191 148.661,-65.278 160.84,-63.0296"/>
<polygon fill="black" stroke="black" points="123.224,-66.4149 114.025,-71.6723 124.495,-73.2985 123.224,-66.4149"/>
</g>
<!-- Node1 -->
<g id="node3" class="node"><title>Node1</title>
<g id="a_node3"><a xlink:href="group__cofold.html" target="_top" xlink:title="Predict structures formed by two molecules upon hybridization. ">
<polygon fill="none" stroke="black" points="0,-0.5 0,-41.5 125,-41.5 125,-0.5 0,-0.5"/>
<text text-anchor="start" x="8" y="-29.5" font-family="Helvetica,sans-Serif" font-size="10.00">Calculate Secondary</text>
<text text-anchor="start" x="8" y="-18.5" font-family="Helvetica,sans-Serif" font-size="10.00"> Structures of two RNAs</text>
<text text-anchor="middle" x="62.5" y="-7.5" font-family="Helvetica,sans-Serif" font-size="10.00"> upon Dimerization</text>
</a>
</g>
</g>
<!-- Node1&#45;&gt;Node0 -->
<g id="edge1" class="edge"><title>Node1&#45;&gt;Node0</title>
<path fill="none" stroke="black" d="M135.27,-34.2498C143.753,-35.8159 152.376,-37.4078 160.762,-38.956"/>
<polygon fill="black" stroke="black" points="135.867,-30.801 125.398,-32.4273 134.596,-37.6847 135.867,-30.801"/>
</g>
</g>
</svg>
