<?xml version="1.0" encoding="UTF-8" standalone="no"?>
<!DOCTYPE svg PUBLIC "-//W3C//DTD SVG 1.1//EN"
 "http://www.w3.org/Graphics/SVG/1.1/DTD/svg11.dtd">
<!-- Generated by graphviz version 2.38.0 (20140413.2041)
 -->
<!-- Title: MFE Structures of two hybridized Sequences Pages: 1 -->
<svg width="289pt" height="99pt"
 viewBox="0.00 0.00 289.00 98.50" xmlns="http://www.w3.org/2000/svg" xmlns:xlink="http://www.w3.org/1999/xlink">
<g id="graph0" class="graph" transform="scale(1 1) rotate(0) translate(4 94.5)">
<title>MFE Structures of two hybridized Sequences</title>
<!-- Node2 -->
<g id="node1" class="node"><title>Node2</title>
<g id="a_node1"><a xlink:href="group__mfe__fold.html" target="_top" xlink:title="This section covers all functions and variables related to the calculation of minimum free energy (MF...">
<polygon fill="none" stroke="black" points="0,-60 0,-90 129,-90 129,-60 0,-60"/>
<text text-anchor="start" x="8" y="-78" font-family="Helvetica,sans-Serif" font-size="10.00">Computing Minimum Free</text>
<text text-anchor="middle" x="64.5" y="-67" font-family="Helvetica,sans-Serif" font-size="10.00"> Energy (MFE) Structures</text>
</a>
</g>
</g>
<!-- Node0 -->
<g id="node2" class="node"><title>Node0</title>
<polygon fill="#bfbfbf" stroke="black" points="165,-33 165,-63 281,-63 281,-33 165,-33"/>
<text text-anchor="start" x="173" y="-51" font-family="Helvetica,sans-Serif" font-size="10.00">MFE Structures of two</text>
<text text-anchor="middle" x="223" y="-40" font-family="Helvetica,sans-Serif" font-size="10.00"> hybridized Sequences</text>
</g>
<!-- Node2&#45;&gt;Node0 -->
<g id="edge2" class="edge"><title>Node2&#45;&gt;Node0</title>
<path fill="none" stroke="midnightblue" d="M139.235,-62.2789C147.873,-60.7887 156.584,-59.2858 164.946,-57.8431"/>
<polygon fill="midnightblue" stroke="midnightblue" points="138.414,-58.8688 129.155,-64.0181 139.604,-65.7669 138.414,-58.8688"/>
</g>
<!-- Node1 -->
<g id="node3" class="node"><title>Node1</title>
<g id="a_node3"><a xlink:href="group__cofold.html" target="_top" xlink:title="Predict structures formed by two molecules upon hybridization. ">
<polygon fill="none" stroke="black" points="2,-0.5 2,-41.5 127,-41.5 127,-0.5 2,-0.5"/>
<text text-anchor="start" x="10" y="-29.5" font-family="Helvetica,sans-Serif" font-size="10.00">Calculate Secondary</text>
<text text-anchor="start" x="10" y="-18.5" font-family="Helvetica,sans-Serif" font-size="10.00"> Structures of two RNAs</text>
<text text-anchor="middle" x="64.5" y="-7.5" font-family="Helvetica,sans-Serif" font-size="10.00"> upon Dimerization</text>
</a>
</g>
</g>
<!-- Node1&#45;&gt;Node0 -->
<g id="edge1" class="edge"><title>Node1&#45;&gt;Node0</title>
<path fill="none" stroke="midnightblue" d="M137.322,-33.391C146.575,-34.9874 155.95,-36.6047 164.922,-38.1527"/>
<polygon fill="midnightblue" stroke="midnightblue" points="137.802,-29.9223 127.353,-31.6711 136.612,-36.8204 137.802,-29.9223"/>
</g>
</g>
</svg>
