<?xml version="1.0" encoding="UTF-8" standalone="no"?>
<!DOCTYPE svg PUBLIC "-//W3C//DTD SVG 1.1//EN"
 "http://www.w3.org/Graphics/SVG/1.1/DTD/svg11.dtd">
<!-- Generated by graphviz version 2.38.0 (20140413.2041)
 -->
<!-- Title: RNA Secondary Structure Prediction Pages: 1 -->
<svg width="320pt" height="414pt"
 viewBox="0.00 0.00 320.00 413.50" xmlns="http://www.w3.org/2000/svg" xmlns:xlink="http://www.w3.org/1999/xlink">
<g id="graph0" class="graph" transform="scale(1 1) rotate(0) translate(4 409.5)">
<title>RNA Secondary Structure Prediction</title>
<!-- Node5 -->
<g id="node1" class="node"><title>Node5</title>
<g id="a_node1"><a xlink:href="group__consensus__fold.html" target="_top" xlink:title="compute various properties (consensus MFE structures, partition function, Boltzmann distributed stoch...">
<polygon fill="none" stroke="black" points="167,-375 167,-405 312,-405 312,-375 167,-375"/>
<text text-anchor="start" x="175" y="-393" font-family="Helvetica,sans-Serif" font-size="10.00">Predicting Consensus</text>
<text text-anchor="middle" x="239.5" y="-382" font-family="Helvetica,sans-Serif" font-size="10.00"> Structures from Alignment(s)</text>
</a>
</g>
</g>
<!-- Node7 -->
<g id="node2" class="node"><title>Node7</title>
<g id="a_node2"><a xlink:href="group__class__fold.html" target="_top" xlink:title="Classified Dynamic\l Programming">
<polygon fill="none" stroke="black" points="188.5,-326 188.5,-356 290.5,-356 290.5,-326 188.5,-326"/>
<text text-anchor="start" x="196.5" y="-344" font-family="Helvetica,sans-Serif" font-size="10.00">Classified Dynamic</text>
<text text-anchor="middle" x="239.5" y="-333" font-family="Helvetica,sans-Serif" font-size="10.00"> Programming</text>
</a>
</g>
</g>
<!-- Node2 -->
<g id="node3" class="node"><title>Node2</title>
<g id="a_node3"><a xlink:href="group__pf__fold.html" target="_top" xlink:title="This section provides information about all functions and variables related to the calculation of the...">
<polygon fill="none" stroke="black" points="188,-266.5 188,-307.5 291,-307.5 291,-266.5 188,-266.5"/>
<text text-anchor="start" x="196" y="-295.5" font-family="Helvetica,sans-Serif" font-size="10.00">Computing Partition</text>
<text text-anchor="start" x="196" y="-284.5" font-family="Helvetica,sans-Serif" font-size="10.00"> Functions and Pair</text>
<text text-anchor="middle" x="239.5" y="-273.5" font-family="Helvetica,sans-Serif" font-size="10.00"> Probabilities</text>
</a>
</g>
</g>
<!-- Node6 -->
<g id="node4" class="node"><title>Node6</title>
<g id="a_node4"><a xlink:href="group__local__fold.html" target="_top" xlink:title="Predicting Locally\l stable structures of\l large sequences">
<polygon fill="none" stroke="black" points="187.5,-206.5 187.5,-247.5 291.5,-247.5 291.5,-206.5 187.5,-206.5"/>
<text text-anchor="start" x="195.5" y="-235.5" font-family="Helvetica,sans-Serif" font-size="10.00">Predicting Locally</text>
<text text-anchor="start" x="195.5" y="-224.5" font-family="Helvetica,sans-Serif" font-size="10.00"> stable structures of</text>
<text text-anchor="middle" x="239.5" y="-213.5" font-family="Helvetica,sans-Serif" font-size="10.00"> large sequences</text>
</a>
</g>
</g>
<!-- Node8 -->
<g id="node5" class="node"><title>Node8</title>
<g id="a_node5"><a xlink:href="group__constraints.html" target="_top" xlink:title="This module covers all functions and variables related to the problem of incorporating secondary stru...">
<polygon fill="none" stroke="black" points="171,-158 171,-188 308,-188 308,-158 171,-158"/>
<text text-anchor="start" x="179" y="-176" font-family="Helvetica,sans-Serif" font-size="10.00">Constraining the Secondary</text>
<text text-anchor="middle" x="239.5" y="-165" font-family="Helvetica,sans-Serif" font-size="10.00"> Structure Recursions</text>
</a>
</g>
</g>
<!-- Node3 -->
<g id="node6" class="node"><title>Node3</title>
<g id="a_node6"><a xlink:href="group__subopt__fold.html" target="_top" xlink:title="Enumerating Suboptimal\l Structures">
<polygon fill="none" stroke="black" points="178,-109 178,-139 301,-139 301,-109 178,-109"/>
<text text-anchor="start" x="186" y="-127" font-family="Helvetica,sans-Serif" font-size="10.00">Enumerating Suboptimal</text>
<text text-anchor="middle" x="239.5" y="-116" font-family="Helvetica,sans-Serif" font-size="10.00"> Structures</text>
</a>
</g>
</g>
<!-- Node1 -->
<g id="node7" class="node"><title>Node1</title>
<g id="a_node7"><a xlink:href="group__mfe__fold.html" target="_top" xlink:title="This section covers all functions and variables related to the calculation of minimum free energy (MF...">
<polygon fill="none" stroke="black" points="175,-60 175,-90 304,-90 304,-60 175,-60"/>
<text text-anchor="start" x="183" y="-78" font-family="Helvetica,sans-Serif" font-size="10.00">Computing Minimum Free</text>
<text text-anchor="middle" x="239.5" y="-67" font-family="Helvetica,sans-Serif" font-size="10.00"> Energy (MFE) Structures</text>
</a>
</g>
</g>
<!-- Node0 -->
<g id="node8" class="node"><title>Node0</title>
<polygon fill="#bfbfbf" stroke="black" points="0,-185 0,-215 131,-215 131,-185 0,-185"/>
<text text-anchor="start" x="8" y="-203" font-family="Helvetica,sans-Serif" font-size="10.00">RNA Secondary Structure</text>
<text text-anchor="middle" x="65.5" y="-192" font-family="Helvetica,sans-Serif" font-size="10.00"> Prediction</text>
</g>
<!-- Node0&#45;&gt;Node5 -->
<g id="edge5" class="edge"><title>Node0&#45;&gt;Node5</title>
<path fill="none" stroke="black" d="M75.2482,-225.056C89.1358,-261.272 119.606,-328.055 167,-366 171.293,-369.437 176.102,-372.392 181.142,-374.931"/>
<polygon fill="black" stroke="black" points="78.3812,-223.439 71.6199,-215.282 71.8187,-225.875 78.3812,-223.439"/>
</g>
<!-- Node0&#45;&gt;Node7 -->
<g id="edge7" class="edge"><title>Node0&#45;&gt;Node7</title>
<path fill="none" stroke="black" d="M81.2374,-223.829C98.6711,-250.159 130.041,-292.121 167,-317 173.517,-321.387 180.907,-325.036 188.403,-328.052"/>
<polygon fill="black" stroke="black" points="84.0378,-221.714 75.6657,-215.221 78.1614,-225.518 84.0378,-221.714"/>
</g>
<!-- Node0&#45;&gt;Node2 -->
<g id="edge2" class="edge"><title>Node0&#45;&gt;Node2</title>
<path fill="none" stroke="black" d="M99.9656,-220.304C119.261,-231.674 144.153,-245.777 167,-257 173.645,-260.264 180.736,-263.511 187.773,-266.596"/>
<polygon fill="black" stroke="black" points="101.635,-217.225 91.2498,-215.13 98.0622,-223.245 101.635,-217.225"/>
</g>
<!-- Node0&#45;&gt;Node6 -->
<g id="edge6" class="edge"><title>Node0&#45;&gt;Node6</title>
<path fill="none" stroke="black" d="M141.172,-211.722C156.742,-214.166 172.815,-216.689 187.303,-218.963"/>
<polygon fill="black" stroke="black" points="141.458,-208.224 131.036,-210.131 140.372,-215.139 141.458,-208.224"/>
</g>
<!-- Node0&#45;&gt;Node8 -->
<g id="edge8" class="edge"><title>Node0&#45;&gt;Node8</title>
<path fill="none" stroke="black" d="M141.179,-188.277C151.004,-186.735 161.029,-185.161 170.729,-183.638"/>
<polygon fill="black" stroke="black" points="140.372,-184.861 131.036,-189.869 141.458,-191.776 140.372,-184.861"/>
</g>
<!-- Node0&#45;&gt;Node3 -->
<g id="edge3" class="edge"><title>Node0&#45;&gt;Node3</title>
<path fill="none" stroke="black" d="M102.618,-180.198C121.511,-170.22 145.191,-158.298 167,-149 175.105,-145.545 183.865,-142.186 192.382,-139.109"/>
<polygon fill="black" stroke="black" points="100.936,-177.129 93.7574,-184.921 104.228,-183.306 100.936,-177.129"/>
</g>
<!-- Node0&#45;&gt;Node1 -->
<g id="edge1" class="edge"><title>Node0&#45;&gt;Node1</title>
<path fill="none" stroke="black" d="M84.6643,-176.64C103.205,-154.203 133.892,-120.74 167,-100 173.018,-96.2302 179.678,-92.9384 186.442,-90.0908"/>
<polygon fill="black" stroke="black" points="81.7502,-174.677 78.1733,-184.65 87.1886,-179.084 81.7502,-174.677"/>
</g>
<!-- Node4 -->
<g id="node9" class="node"><title>Node4</title>
<g id="a_node9"><a xlink:href="group__cofold.html" target="_top" xlink:title="Predict structures formed by two molecules upon hybridization. ">
<polygon fill="none" stroke="black" points="177,-0.5 177,-41.5 302,-41.5 302,-0.5 177,-0.5"/>
<text text-anchor="start" x="185" y="-29.5" font-family="Helvetica,sans-Serif" font-size="10.00">Calculate Secondary</text>
<text text-anchor="start" x="185" y="-18.5" font-family="Helvetica,sans-Serif" font-size="10.00"> Structures of two RNAs</text>
<text text-anchor="middle" x="239.5" y="-7.5" font-family="Helvetica,sans-Serif" font-size="10.00"> upon Dimerization</text>
</a>
</g>
</g>
<!-- Node0&#45;&gt;Node4 -->
<g id="edge4" class="edge"><title>Node0&#45;&gt;Node4</title>
<path fill="none" stroke="black" d="M77.4236,-175.546C93.036,-143.08 124.598,-85.8059 167,-51 171.266,-47.4982 176,-44.3485 180.942,-41.528"/>
<polygon fill="black" stroke="black" points="74.1737,-174.233 73.0961,-184.773 80.5113,-177.205 74.1737,-174.233"/>
</g>
</g>
</svg>
