<?xml version="1.0" encoding="UTF-8" standalone="no"?>
<!DOCTYPE svg PUBLIC "-//W3C//DTD SVG 1.1//EN"
 "http://www.w3.org/Graphics/SVG/1.1/DTD/svg11.dtd">
<!-- Generated by graphviz version 2.38.0 (20140413.2041)
 -->
<!-- Title: Distance based partitioning of the Secondary Structure Space Pages: 1 -->
<svg width="510pt" height="159pt"
 viewBox="0.00 0.00 510.00 158.50" xmlns="http://www.w3.org/2000/svg" xmlns:xlink="http://www.w3.org/1999/xlink">
<g id="graph0" class="graph" transform="scale(1 1) rotate(0) translate(4 154.5)">
<title>Distance based partitioning of the Secondary Structure Space</title>
<!-- Node4 -->
<g id="node1" class="node"><title>Node4</title>
<g id="a_node1"><a xlink:href="group__kl__neighborhood__stochbt.html" target="_top" xlink:title="Contains functions related to stochastic backtracking from a specified distance class. ">
<polygon fill="none" stroke="black" points="351.5,-109 351.5,-150 491.5,-150 491.5,-109 351.5,-109"/>
<text text-anchor="start" x="359.5" y="-138" font-family="Helvetica,sans-Serif" font-size="10.00">Stochastic Backtracking</text>
<text text-anchor="start" x="359.5" y="-127" font-family="Helvetica,sans-Serif" font-size="10.00"> of Structures from Distance</text>
<text text-anchor="middle" x="421.5" y="-116" font-family="Helvetica,sans-Serif" font-size="10.00"> Based Partitioning</text>
</a>
</g>
</g>
<!-- Node1 -->
<g id="node2" class="node"><title>Node1</title>
<g id="a_node2"><a xlink:href="group__class__fold.html" target="_top" xlink:title="Classified Dynamic\l Programming">
<polygon fill="none" stroke="black" points="0,-54.5 0,-84.5 102,-84.5 102,-54.5 0,-54.5"/>
<text text-anchor="start" x="8" y="-72.5" font-family="Helvetica,sans-Serif" font-size="10.00">Classified Dynamic</text>
<text text-anchor="middle" x="51" y="-61.5" font-family="Helvetica,sans-Serif" font-size="10.00"> Programming</text>
</a>
</g>
</g>
<!-- Node0 -->
<g id="node3" class="node"><title>Node0</title>
<polygon fill="#bfbfbf" stroke="black" points="138,-54.5 138,-84.5 305,-84.5 305,-54.5 138,-54.5"/>
<text text-anchor="start" x="146" y="-72.5" font-family="Helvetica,sans-Serif" font-size="10.00">Distance based partitioning</text>
<text text-anchor="middle" x="221.5" y="-61.5" font-family="Helvetica,sans-Serif" font-size="10.00"> of the Secondary Structure Space</text>
</g>
<!-- Node1&#45;&gt;Node0 -->
<g id="edge1" class="edge"><title>Node1&#45;&gt;Node0</title>
<path fill="none" stroke="midnightblue" d="M112.354,-69.5C120.611,-69.5 129.203,-69.5 137.773,-69.5"/>
<polygon fill="midnightblue" stroke="midnightblue" points="112.099,-66.0001 102.099,-69.5 112.099,-73.0001 112.099,-66.0001"/>
</g>
<!-- Node0&#45;&gt;Node4 -->
<g id="edge4" class="edge"><title>Node0&#45;&gt;Node4</title>
<path fill="none" stroke="midnightblue" d="M281.893,-87.4978C304.226,-94.2655 329.78,-102.009 352.812,-108.989"/>
<polygon fill="midnightblue" stroke="midnightblue" points="282.793,-84.1136 272.208,-84.5631 280.763,-90.8128 282.793,-84.1136"/>
</g>
<!-- Node3 -->
<g id="node4" class="node"><title>Node3</title>
<g id="a_node4"><a xlink:href="group__kl__neighborhood__pf.html" target="_top" xlink:title="Compute the partition function and stochastically sample secondary structures for a partitioning of t...">
<polygon fill="none" stroke="black" points="359.5,-49 359.5,-90 483.5,-90 483.5,-49 359.5,-49"/>
<text text-anchor="start" x="367.5" y="-78" font-family="Helvetica,sans-Serif" font-size="10.00">Calculate Partition</text>
<text text-anchor="start" x="367.5" y="-67" font-family="Helvetica,sans-Serif" font-size="10.00"> Functions of a Distance</text>
<text text-anchor="middle" x="421.5" y="-56" font-family="Helvetica,sans-Serif" font-size="10.00"> Based Partitioning</text>
</a>
</g>
</g>
<!-- Node0&#45;&gt;Node3 -->
<g id="edge3" class="edge"><title>Node0&#45;&gt;Node3</title>
<path fill="none" stroke="midnightblue" d="M315.306,-69.5C330.208,-69.5 345.298,-69.5 359.218,-69.5"/>
<polygon fill="midnightblue" stroke="midnightblue" points="315.036,-66.0001 305.036,-69.5 315.036,-73.0001 315.036,-66.0001"/>
</g>
<!-- Node2 -->
<g id="node5" class="node"><title>Node2</title>
<g id="a_node5"><a xlink:href="group__kl__neighborhood__mfe.html" target="_top" xlink:title="Compute the minimum free energy (MFE) and secondary structures for a partitioning of the secondary st...">
<polygon fill="none" stroke="black" points="341,-0.5 341,-30.5 502,-30.5 502,-0.5 341,-0.5"/>
<text text-anchor="start" x="349" y="-18.5" font-family="Helvetica,sans-Serif" font-size="10.00">Calculating MFE representatives</text>
<text text-anchor="middle" x="421.5" y="-7.5" font-family="Helvetica,sans-Serif" font-size="10.00"> of a Distance Based Partitioning</text>
</a>
</g>
</g>
<!-- Node0&#45;&gt;Node2 -->
<g id="edge2" class="edge"><title>Node0&#45;&gt;Node2</title>
<path fill="none" stroke="midnightblue" d="M287.481,-51.7779C312.646,-44.9147 341.15,-37.141 365.299,-30.5549"/>
<polygon fill="midnightblue" stroke="midnightblue" points="286.381,-48.4501 277.654,-54.458 288.223,-55.2034 286.381,-48.4501"/>
</g>
</g>
</svg>
