<?xml version="1.0" encoding="UTF-8" standalone="no"?>
<!DOCTYPE svg PUBLIC "-//W3C//DTD SVG 1.1//EN"
 "http://www.w3.org/Graphics/SVG/1.1/DTD/svg11.dtd">
<!-- Generated by graphviz version 2.38.0 (20140413.2041)
 -->
<!-- Title: Stochastic Backtracking of Consensus Structures from Sequence Alignment(s) Pages: 1 -->
<svg width="332pt" height="88pt"
 viewBox="0.00 0.00 332.00 88.00" xmlns="http://www.w3.org/2000/svg" xmlns:xlink="http://www.w3.org/1999/xlink">
<g id="graph0" class="graph" transform="scale(1 1) rotate(0) translate(4 84)">
<title>Stochastic Backtracking of Consensus Structures from Sequence Alignment(s)</title>
<!-- Node1 -->
<g id="node1" class="node"><title>Node1</title>
<g id="a_node1"><a xlink:href="group__consensus__fold.html" target="_top" xlink:title="compute various properties (consensus MFE structures, partition function, Boltzmann distributed stoch...">
<polygon fill="none" stroke="black" points="0,-49.5 0,-79.5 145,-79.5 145,-49.5 0,-49.5"/>
<text text-anchor="start" x="8" y="-67.5" font-family="Helvetica,sans-Serif" font-size="10.00">Predicting Consensus</text>
<text text-anchor="middle" x="72.5" y="-56.5" font-family="Helvetica,sans-Serif" font-size="10.00"> Structures from Alignment(s)</text>
</a>
</g>
</g>
<!-- Node0 -->
<g id="node3" class="node"><title>Node0</title>
<polygon fill="#bfbfbf" stroke="black" points="181,-19 181,-60 324,-60 324,-19 181,-19"/>
<text text-anchor="start" x="189" y="-48" font-family="Helvetica,sans-Serif" font-size="10.00">Stochastic Backtracking</text>
<text text-anchor="start" x="189" y="-37" font-family="Helvetica,sans-Serif" font-size="10.00"> of Consensus Structures</text>
<text text-anchor="middle" x="252.5" y="-26" font-family="Helvetica,sans-Serif" font-size="10.00"> from Sequence Alignment(s)</text>
</g>
<!-- Node1&#45;&gt;Node0 -->
<g id="edge1" class="edge"><title>Node1&#45;&gt;Node0</title>
<path fill="none" stroke="black" d="M155.155,-53.0316C163.748,-51.8248 172.432,-50.6051 180.885,-49.4178"/>
<polygon fill="black" stroke="black" points="154.546,-49.5827 145.13,-54.4396 155.52,-56.5147 154.546,-49.5827"/>
</g>
<!-- Node2 -->
<g id="node2" class="node"><title>Node2</title>
<g id="a_node2"><a xlink:href="group__subopt__stochbt.html" target="_top" xlink:title="Stochastic backtracking\l in the Ensemble">
<polygon fill="none" stroke="black" points="11.5,-0.5 11.5,-30.5 133.5,-30.5 133.5,-0.5 11.5,-0.5"/>
<text text-anchor="start" x="19.5" y="-18.5" font-family="Helvetica,sans-Serif" font-size="10.00">Stochastic backtracking</text>
<text text-anchor="middle" x="72.5" y="-7.5" font-family="Helvetica,sans-Serif" font-size="10.00"> in the Ensemble</text>
</a>
</g>
</g>
<!-- Node2&#45;&gt;Node0 -->
<g id="edge2" class="edge"><title>Node2&#45;&gt;Node0</title>
<path fill="none" stroke="black" d="M143.848,-24.9851C156.016,-26.6257 168.67,-28.3319 180.846,-29.9736"/>
<polygon fill="black" stroke="black" points="144.141,-21.493 133.763,-23.6253 143.205,-28.4302 144.141,-21.493"/>
</g>
</g>
</svg>
