<?xml version="1.0" encoding="UTF-8" standalone="no"?>
<!DOCTYPE svg PUBLIC "-//W3C//DTD SVG 1.1//EN"
 "http://www.w3.org/Graphics/SVG/1.1/DTD/svg11.dtd">
<!-- Generated by graphviz version 2.38.0 (20140413.2041)
 -->
<!-- Title: Stochastic backtracking in the Ensemble Pages: 1 -->
<svg width="468pt" height="110pt"
 viewBox="0.00 0.00 468.00 110.00" xmlns="http://www.w3.org/2000/svg" xmlns:xlink="http://www.w3.org/1999/xlink">
<g id="graph0" class="graph" transform="scale(1 1) rotate(0) translate(4 106)">
<title>Stochastic backtracking in the Ensemble</title>
<!-- Node3 -->
<g id="node1" class="node"><title>Node3</title>
<g id="a_node1"><a xlink:href="group__kl__neighborhood__stochbt.html" target="_top" xlink:title="Contains functions related to stochastic backtracking from a specified distance class. ">
<polygon fill="none" stroke="black" points="318.5,-60.5 318.5,-101.5 458.5,-101.5 458.5,-60.5 318.5,-60.5"/>
<text text-anchor="start" x="326.5" y="-89.5" font-family="Helvetica,sans-Serif" font-size="10.00">Stochastic Backtracking</text>
<text text-anchor="start" x="326.5" y="-78.5" font-family="Helvetica,sans-Serif" font-size="10.00"> of Structures from Distance</text>
<text text-anchor="middle" x="388.5" y="-67.5" font-family="Helvetica,sans-Serif" font-size="10.00"> Based Partitioning</text>
</a>
</g>
</g>
<!-- Node1 -->
<g id="node2" class="node"><title>Node1</title>
<g id="a_node2"><a xlink:href="group__subopt__fold.html" target="_top" xlink:title="Enumerating Suboptimal\l Structures">
<polygon fill="none" stroke="black" points="0,-36 0,-66 123,-66 123,-36 0,-36"/>
<text text-anchor="start" x="8" y="-54" font-family="Helvetica,sans-Serif" font-size="10.00">Enumerating Suboptimal</text>
<text text-anchor="middle" x="61.5" y="-43" font-family="Helvetica,sans-Serif" font-size="10.00"> Structures</text>
</a>
</g>
</g>
<!-- Node0 -->
<g id="node3" class="node"><title>Node0</title>
<polygon fill="#bfbfbf" stroke="black" points="159,-36 159,-66 281,-66 281,-36 159,-36"/>
<text text-anchor="start" x="167" y="-54" font-family="Helvetica,sans-Serif" font-size="10.00">Stochastic backtracking</text>
<text text-anchor="middle" x="220" y="-43" font-family="Helvetica,sans-Serif" font-size="10.00"> in the Ensemble</text>
</g>
<!-- Node1&#45;&gt;Node0 -->
<g id="edge1" class="edge"><title>Node1&#45;&gt;Node0</title>
<path fill="none" stroke="black" d="M133.059,-51C141.692,-51 150.452,-51 158.912,-51"/>
<polygon fill="black" stroke="black" points="133.007,-47.5001 123.007,-51 133.007,-54.5001 133.007,-47.5001"/>
</g>
<!-- Node0&#45;&gt;Node3 -->
<g id="edge3" class="edge"><title>Node0&#45;&gt;Node3</title>
<path fill="none" stroke="black" d="M291.18,-63.645C300.198,-65.2698 309.426,-66.9325 318.426,-68.5542"/>
<polygon fill="black" stroke="black" points="291.573,-60.1595 281.11,-61.8307 290.331,-67.0486 291.573,-60.1595"/>
</g>
<!-- Node2 -->
<g id="node4" class="node"><title>Node2</title>
<g id="a_node4"><a xlink:href="group__consensus__stochbt.html" target="_top" xlink:title="Stochastic Backtracking\l of Consensus Structures\l from Sequence Alignment(s)">
<polygon fill="none" stroke="black" points="317,-0.5 317,-41.5 460,-41.5 460,-0.5 317,-0.5"/>
<text text-anchor="start" x="325" y="-29.5" font-family="Helvetica,sans-Serif" font-size="10.00">Stochastic Backtracking</text>
<text text-anchor="start" x="325" y="-18.5" font-family="Helvetica,sans-Serif" font-size="10.00"> of Consensus Structures</text>
<text text-anchor="middle" x="388.5" y="-7.5" font-family="Helvetica,sans-Serif" font-size="10.00"> from Sequence Alignment(s)</text>
</a>
</g>
</g>
<!-- Node0&#45;&gt;Node2 -->
<g id="edge2" class="edge"><title>Node0&#45;&gt;Node2</title>
<path fill="none" stroke="black" d="M291.068,-38.3752C299.644,-36.8299 308.412,-35.2501 316.995,-33.7037"/>
<polygon fill="black" stroke="black" points="290.331,-34.9514 281.11,-40.1693 291.573,-41.8405 290.331,-34.9514"/>
</g>
</g>
</svg>
