<?xml version="1.0" encoding="UTF-8" standalone="no"?>
<!DOCTYPE svg PUBLIC "-//W3C//DTD SVG 1.1//EN"
 "http://www.w3.org/Graphics/SVG/1.1/DTD/svg11.dtd">
<!-- Generated by graphviz version 2.38.0 (20140413.2041)
 -->
<!-- Title: Utilities Pages: 1 -->
<svg width="255pt" height="335pt"
 viewBox="0.00 0.00 255.00 335.00" xmlns="http://www.w3.org/2000/svg" xmlns:xlink="http://www.w3.org/1999/xlink">
<g id="graph0" class="graph" transform="scale(1 1) rotate(0) translate(4 331)">
<title>Utilities</title>
<!-- Node2 -->
<g id="node1" class="node"><title>Node2</title>
<g id="a_node1"><a xlink:href="group__struct__utils.html" target="_top" xlink:title="Parsing, Converting,\l and Comparing &#45; Functions\l to Manipulate Secondary\l Structures">
<polygon fill="none" stroke="black" points="98,-274.5 98,-326.5 235,-326.5 235,-274.5 98,-274.5"/>
<text text-anchor="start" x="106" y="-314.5" font-family="Helvetica,sans-Serif" font-size="10.00">Parsing, Converting,</text>
<text text-anchor="start" x="106" y="-303.5" font-family="Helvetica,sans-Serif" font-size="10.00"> and Comparing &#45; Functions</text>
<text text-anchor="start" x="106" y="-292.5" font-family="Helvetica,sans-Serif" font-size="10.00"> to Manipulate Secondary</text>
<text text-anchor="middle" x="166.5" y="-281.5" font-family="Helvetica,sans-Serif" font-size="10.00"> Structures</text>
</a>
</g>
</g>
<!-- Node1 -->
<g id="node2" class="node"><title>Node1</title>
<g id="a_node2"><a xlink:href="group__string__utils.html" target="_top" xlink:title="Parsing, Converting,\l and Comparing &#45; Functions\l to Manipulate Sequence\l and Structure Strings">
<polygon fill="none" stroke="black" points="98,-203.5 98,-255.5 235,-255.5 235,-203.5 98,-203.5"/>
<text text-anchor="start" x="106" y="-243.5" font-family="Helvetica,sans-Serif" font-size="10.00">Parsing, Converting,</text>
<text text-anchor="start" x="106" y="-232.5" font-family="Helvetica,sans-Serif" font-size="10.00"> and Comparing &#45; Functions</text>
<text text-anchor="start" x="106" y="-221.5" font-family="Helvetica,sans-Serif" font-size="10.00"> to Manipulate Sequence</text>
<text text-anchor="middle" x="166.5" y="-210.5" font-family="Helvetica,sans-Serif" font-size="10.00"> and Structure Strings</text>
</a>
</g>
</g>
<!-- Node5 -->
<g id="node3" class="node"><title>Node5</title>
<g id="a_node3"><a xlink:href="group__plotting__utils.html" target="_top" xlink:title="Functions for Creating\l RNA Secondary Structures\l Plots, Dot&#45;Plots, and More">
<polygon fill="none" stroke="black" points="97,-143 97,-184 236,-184 236,-143 97,-143"/>
<text text-anchor="start" x="105" y="-172" font-family="Helvetica,sans-Serif" font-size="10.00">Functions for Creating</text>
<text text-anchor="start" x="105" y="-161" font-family="Helvetica,sans-Serif" font-size="10.00"> RNA Secondary Structures</text>
<text text-anchor="middle" x="166.5" y="-150" font-family="Helvetica,sans-Serif" font-size="10.00"> Plots, Dot&#45;Plots, and More</text>
</a>
</g>
</g>
<!-- Node4 -->
<g id="node4" class="node"><title>Node4</title>
<g id="a_node4"><a xlink:href="group__file__utils.html" target="_top" xlink:title="Functions to Read/Write\l several File Formats\l for RNA Sequences, Structures,\l and Alignments">
<polygon fill="none" stroke="black" points="86,-71.5 86,-123.5 247,-123.5 247,-71.5 86,-71.5"/>
<text text-anchor="start" x="94" y="-111.5" font-family="Helvetica,sans-Serif" font-size="10.00">Functions to Read/Write</text>
<text text-anchor="start" x="94" y="-100.5" font-family="Helvetica,sans-Serif" font-size="10.00"> several File Formats</text>
<text text-anchor="start" x="94" y="-89.5" font-family="Helvetica,sans-Serif" font-size="10.00"> for RNA Sequences, Structures,</text>
<text text-anchor="middle" x="166.5" y="-78.5" font-family="Helvetica,sans-Serif" font-size="10.00"> and Alignments</text>
</a>
</g>
</g>
<!-- Node0 -->
<g id="node5" class="node"><title>Node0</title>
<polygon fill="#bfbfbf" stroke="black" points="0,-154 0,-173 50,-173 50,-154 0,-154"/>
<text text-anchor="middle" x="25" y="-161" font-family="Helvetica,sans-Serif" font-size="10.00">Utilities</text>
</g>
<!-- Node0&#45;&gt;Node2 -->
<g id="edge2" class="edge"><title>Node0&#45;&gt;Node2</title>
<path fill="none" stroke="black" d="M33.0566,-182.758C42.1744,-205.276 60.024,-242.398 86,-265.5 89.606,-268.707 93.5527,-271.659 97.6985,-274.37"/>
<polygon fill="black" stroke="black" points="36.2586,-181.334 29.3841,-173.273 29.7308,-183.862 36.2586,-181.334"/>
</g>
<!-- Node0&#45;&gt;Node1 -->
<g id="edge1" class="edge"><title>Node0&#45;&gt;Node1</title>
<path fill="none" stroke="black" d="M53.7353,-177.646C63.8489,-182.73 75.4022,-188.453 86,-193.5 92.8397,-196.757 100.04,-200.115 107.2,-203.41"/>
<polygon fill="black" stroke="black" points="55.0618,-174.395 44.5579,-173.009 51.9054,-180.643 55.0618,-174.395"/>
</g>
<!-- Node0&#45;&gt;Node5 -->
<g id="edge5" class="edge"><title>Node0&#45;&gt;Node5</title>
<path fill="none" stroke="black" d="M60.3765,-163.5C71.4623,-163.5 84.1694,-163.5 96.8292,-163.5"/>
<polygon fill="black" stroke="black" points="60.2991,-160 50.299,-163.5 60.299,-167 60.2991,-160"/>
</g>
<!-- Node0&#45;&gt;Node4 -->
<g id="edge4" class="edge"><title>Node0&#45;&gt;Node4</title>
<path fill="none" stroke="black" d="M53.7353,-149.354C63.8489,-144.27 75.4022,-138.547 86,-133.5 92.8397,-130.243 100.04,-126.885 107.2,-123.59"/>
<polygon fill="black" stroke="black" points="51.9054,-146.357 44.5579,-153.991 55.0618,-152.605 51.9054,-146.357"/>
</g>
<!-- Node3 -->
<g id="node6" class="node"><title>Node3</title>
<g id="a_node6"><a xlink:href="group__aln__utils.html" target="_top" xlink:title="Various utilities for\l Sequence Alignments,\l and Comparative Structure\l Prediction">
<polygon fill="none" stroke="black" points="98,-0.5 98,-52.5 235,-52.5 235,-0.5 98,-0.5"/>
<text text-anchor="start" x="106" y="-40.5" font-family="Helvetica,sans-Serif" font-size="10.00">Various utilities for</text>
<text text-anchor="start" x="106" y="-29.5" font-family="Helvetica,sans-Serif" font-size="10.00"> Sequence Alignments,</text>
<text text-anchor="start" x="106" y="-18.5" font-family="Helvetica,sans-Serif" font-size="10.00"> and Comparative Structure</text>
<text text-anchor="middle" x="166.5" y="-7.5" font-family="Helvetica,sans-Serif" font-size="10.00"> Prediction</text>
</a>
</g>
</g>
<!-- Node0&#45;&gt;Node3 -->
<g id="edge3" class="edge"><title>Node0&#45;&gt;Node3</title>
<path fill="none" stroke="black" d="M33.1462,-144.478C42.3506,-122.227 60.2838,-85.513 86,-62.5 90.0646,-58.8627 94.5581,-55.5364 99.2797,-52.5057"/>
<polygon fill="black" stroke="black" points="29.8629,-143.263 29.4337,-153.849 36.3708,-145.841 29.8629,-143.263"/>
</g>
</g>
</svg>
