<?xml version="1.0" encoding="UTF-8" standalone="no"?>
<!DOCTYPE svg PUBLIC "-//W3C//DTD SVG 1.1//EN"
 "http://www.w3.org/Graphics/SVG/1.1/DTD/svg11.dtd">
<!-- Generated by graphviz version 2.38.0 (20140413.2041)
 -->
<!-- Title: Constraining the Secondary Structure Recursions Pages: 1 -->
<svg width="439pt" height="66pt"
 viewBox="0.00 0.00 439.00 66.00" xmlns="http://www.w3.org/2000/svg" xmlns:xlink="http://www.w3.org/1999/xlink">
<g id="graph0" class="graph" transform="scale(1 1) rotate(0) translate(4 62)">
<title>Constraining the Secondary Structure Recursions</title>
<!-- Node0 -->
<g id="node1" class="node"><title>Node0</title>
<polygon fill="#bfbfbf" stroke="black" points="167,-14 167,-44 304,-44 304,-14 167,-14"/>
<text text-anchor="start" x="175" y="-32" font-family="Helvetica,sans-Serif" font-size="10.00">Constraining the Secondary</text>
<text text-anchor="middle" x="235.5" y="-21" font-family="Helvetica,sans-Serif" font-size="10.00"> Structure Recursions</text>
</g>
<!-- Node3 -->
<g id="node3" class="node"><title>Node3</title>
<g id="a_node3"><a xlink:href="group__soft__constraints.html" target="_top" xlink:title="Soft Constraints">
<polygon fill="none" stroke="black" points="341.5,-38.5 341.5,-57.5 429.5,-57.5 429.5,-38.5 341.5,-38.5"/>
<text text-anchor="middle" x="385.5" y="-45.5" font-family="Helvetica,sans-Serif" font-size="10.00">Soft Constraints</text>
</a>
</g>
</g>
<!-- Node0&#45;&gt;Node3 -->
<g id="edge3" class="edge"><title>Node0&#45;&gt;Node3</title>
<path fill="none" stroke="black" d="M314.114,-38.964C323.43,-40.16 332.67,-41.3461 341.24,-42.4463"/>
<polygon fill="black" stroke="black" points="314.368,-35.4679 304.004,-37.666 313.476,-42.4109 314.368,-35.4679"/>
</g>
<!-- Node2 -->
<g id="node4" class="node"><title>Node2</title>
<g id="a_node4"><a xlink:href="group__hard__constraints.html" target="_top" xlink:title="Hard Constraints">
<polygon fill="none" stroke="black" points="340,-0.5 340,-19.5 431,-19.5 431,-0.5 340,-0.5"/>
<text text-anchor="middle" x="385.5" y="-7.5" font-family="Helvetica,sans-Serif" font-size="10.00">Hard Constraints</text>
</a>
</g>
</g>
<!-- Node0&#45;&gt;Node2 -->
<g id="edge2" class="edge"><title>Node0&#45;&gt;Node2</title>
<path fill="none" stroke="black" d="M314.036,-19.0461C322.92,-17.9056 331.736,-16.7738 339.97,-15.7167"/>
<polygon fill="black" stroke="black" points="313.476,-15.5891 304.004,-20.334 314.368,-22.5321 313.476,-15.5891"/>
</g>
<!-- Node1 -->
<g id="node2" class="node"><title>Node1</title>
<g id="a_node2"><a xlink:href="group__folding__routines.html" target="_top" xlink:title="This module contains all functions related to thermodynamic folding of RNAs. ">
<polygon fill="none" stroke="black" points="0,-14 0,-44 131,-44 131,-14 0,-14"/>
<text text-anchor="start" x="8" y="-32" font-family="Helvetica,sans-Serif" font-size="10.00">RNA Secondary Structure</text>
<text text-anchor="middle" x="65.5" y="-21" font-family="Helvetica,sans-Serif" font-size="10.00"> Prediction</text>
</a>
</g>
</g>
<!-- Node1&#45;&gt;Node0 -->
<g id="edge1" class="edge"><title>Node1&#45;&gt;Node0</title>
<path fill="none" stroke="black" d="M141.648,-29C150.074,-29 158.62,-29 166.941,-29"/>
<polygon fill="black" stroke="black" points="141.453,-25.5001 131.453,-29 141.453,-32.5001 141.453,-25.5001"/>
</g>
</g>
</svg>
