<?xml version="1.0" encoding="UTF-8" standalone="no"?>
<!DOCTYPE svg PUBLIC "-//W3C//DTD SVG 1.1//EN"
 "http://www.w3.org/Graphics/SVG/1.1/DTD/svg11.dtd">
<!-- Generated by graphviz version 2.38.0 (20140413.2041)
 -->
<!-- Title: Calculating MFE representatives of a Distance Based Partitioning Pages: 1 -->
<svg width="372pt" height="88pt"
 viewBox="0.00 0.00 372.00 88.00" xmlns="http://www.w3.org/2000/svg" xmlns:xlink="http://www.w3.org/1999/xlink">
<g id="graph0" class="graph" transform="scale(1 1) rotate(0) translate(4 84)">
<title>Calculating MFE representatives of a Distance Based Partitioning</title>
<!-- Node1 -->
<g id="node1" class="node"><title>Node1</title>
<g id="a_node1"><a xlink:href="group__kl__neighborhood.html" target="_top" xlink:title="Compute Thermodynamic properties for a Distance Class Partitioning of the Secondary Structure Space...">
<polygon fill="none" stroke="black" points="0,-49.5 0,-79.5 167,-79.5 167,-49.5 0,-49.5"/>
<text text-anchor="start" x="8" y="-67.5" font-family="Helvetica,sans-Serif" font-size="10.00">Distance based partitioning</text>
<text text-anchor="middle" x="83.5" y="-56.5" font-family="Helvetica,sans-Serif" font-size="10.00"> of the Secondary Structure Space</text>
</a>
</g>
</g>
<!-- Node0 -->
<g id="node2" class="node"><title>Node0</title>
<polygon fill="#bfbfbf" stroke="black" points="203,-24.5 203,-54.5 364,-54.5 364,-24.5 203,-24.5"/>
<text text-anchor="start" x="211" y="-42.5" font-family="Helvetica,sans-Serif" font-size="10.00">Calculating MFE representatives</text>
<text text-anchor="middle" x="283.5" y="-31.5" font-family="Helvetica,sans-Serif" font-size="10.00"> of a Distance Based Partitioning</text>
</g>
<!-- Node1&#45;&gt;Node0 -->
<g id="edge1" class="edge"><title>Node1&#45;&gt;Node0</title>
<path fill="none" stroke="black" d="M177.125,-52.8049C185.758,-51.7149 194.456,-50.6166 202.955,-49.5435"/>
<polygon fill="black" stroke="black" points="176.519,-49.3536 167.036,-54.0788 177.396,-56.2984 176.519,-49.3536"/>
</g>
<!-- Node2 -->
<g id="node3" class="node"><title>Node2</title>
<g id="a_node3"><a xlink:href="group__mfe__fold.html" target="_top" xlink:title="This section covers all functions and variables related to the calculation of minimum free energy (MF...">
<polygon fill="none" stroke="black" points="19,-0.5 19,-30.5 148,-30.5 148,-0.5 19,-0.5"/>
<text text-anchor="start" x="27" y="-18.5" font-family="Helvetica,sans-Serif" font-size="10.00">Computing Minimum Free</text>
<text text-anchor="middle" x="83.5" y="-7.5" font-family="Helvetica,sans-Serif" font-size="10.00"> Energy (MFE) Structures</text>
</a>
</g>
</g>
<!-- Node2&#45;&gt;Node0 -->
<g id="edge2" class="edge"><title>Node2&#45;&gt;Node0</title>
<path fill="none" stroke="black" d="M158.191,-24.4322C172.772,-26.1997 188.139,-28.0623 202.906,-29.8523"/>
<polygon fill="black" stroke="black" points="158.587,-20.9547 148.238,-23.2259 157.744,-27.9038 158.587,-20.9547"/>
</g>
</g>
</svg>
