<?xml version="1.0" encoding="UTF-8" standalone="no"?>
<!DOCTYPE svg PUBLIC "-//W3C//DTD SVG 1.1//EN"
 "http://www.w3.org/Graphics/SVG/1.1/DTD/svg11.dtd">
<!-- Generated by graphviz version 2.38.0 (20140413.2041)
 -->
<!-- Title: ViennaRNA/hairpin_loops.h Pages: 1 -->
<svg width="500pt" height="375pt"
 viewBox="0.00 0.00 499.50 375.00" xmlns="http://www.w3.org/2000/svg" xmlns:xlink="http://www.w3.org/1999/xlink">
<g id="graph0" class="graph" transform="scale(1 1) rotate(0) translate(4 371)">
<title>ViennaRNA/hairpin_loops.h</title>
<!-- Node1 -->
<g id="node1" class="node"><title>Node1</title>
<polygon fill="#bfbfbf" stroke="black" points="185,-347.5 185,-366.5 322,-366.5 322,-347.5 185,-347.5"/>
<text text-anchor="middle" x="253.5" y="-354.5" font-family="Helvetica,sans-Serif" font-size="10.00">ViennaRNA/hairpin_loops.h</text>
</g>
<!-- Node2 -->
<g id="node2" class="node"><title>Node2</title>
<polygon fill="none" stroke="#bfbfbf" points="73,-291.5 73,-310.5 120,-310.5 120,-291.5 73,-291.5"/>
<text text-anchor="middle" x="96.5" y="-298.5" font-family="Helvetica,sans-Serif" font-size="10.00">math.h</text>
</g>
<!-- Node1&#45;&gt;Node2 -->
<g id="edge1" class="edge"><title>Node1&#45;&gt;Node2</title>
<path fill="none" stroke="midnightblue" d="M228.623,-347.444C201.9,-338.252 159.296,-323.599 129.721,-313.426"/>
<polygon fill="midnightblue" stroke="midnightblue" points="130.828,-310.106 120.233,-310.163 128.551,-316.725 130.828,-310.106"/>
</g>
<!-- Node3 -->
<g id="node3" class="node"><title>Node3</title>
<polygon fill="none" stroke="#bfbfbf" points="138,-291.5 138,-310.5 187,-310.5 187,-291.5 138,-291.5"/>
<text text-anchor="middle" x="162.5" y="-298.5" font-family="Helvetica,sans-Serif" font-size="10.00">string.h</text>
</g>
<!-- Node1&#45;&gt;Node3 -->
<g id="edge2" class="edge"><title>Node1&#45;&gt;Node3</title>
<path fill="none" stroke="midnightblue" d="M238.879,-347.324C224.551,-338.822 202.487,-325.729 185.751,-315.797"/>
<polygon fill="midnightblue" stroke="midnightblue" points="187.47,-312.748 177.084,-310.655 183.898,-318.768 187.47,-312.748"/>
</g>
<!-- Node4 -->
<g id="node4" class="node"><title>Node4</title>
<g id="a_node4"><a xlink:href="utils_8h.html" target="_top" xlink:title="General utility&#45; and helper&#45;functions used throughout the ViennaRNA Package. ">
<polygon fill="none" stroke="black" points="204.5,-291.5 204.5,-310.5 302.5,-310.5 302.5,-291.5 204.5,-291.5"/>
<text text-anchor="middle" x="253.5" y="-298.5" font-family="Helvetica,sans-Serif" font-size="10.00">ViennaRNA/utils.h</text>
</a>
</g>
</g>
<!-- Node1&#45;&gt;Node4 -->
<g id="edge3" class="edge"><title>Node1&#45;&gt;Node4</title>
<path fill="none" stroke="midnightblue" d="M253.5,-347.083C253.5,-340.006 253.5,-329.861 253.5,-320.986"/>
<polygon fill="midnightblue" stroke="midnightblue" points="257,-320.751 253.5,-310.751 250,-320.751 257,-320.751"/>
</g>
<!-- Node6 -->
<g id="node6" class="node"><title>Node6</title>
<g id="a_node6"><a xlink:href="data__structures_8h.html" target="_top" xlink:title="ViennaRNA/data_structures.h">
<polygon fill="none" stroke="black" points="184,-168.5 184,-187.5 331,-187.5 331,-168.5 184,-168.5"/>
<text text-anchor="middle" x="257.5" y="-175.5" font-family="Helvetica,sans-Serif" font-size="10.00">ViennaRNA/data_structures.h</text>
</a>
</g>
</g>
<!-- Node1&#45;&gt;Node6 -->
<g id="edge22" class="edge"><title>Node1&#45;&gt;Node6</title>
<path fill="none" stroke="midnightblue" d="M272.459,-347.433C314.163,-327.384 407.462,-275.224 372.5,-224 361.384,-207.714 343.413,-197.322 324.947,-190.691"/>
<polygon fill="midnightblue" stroke="midnightblue" points="325.871,-187.311 315.279,-187.555 323.711,-193.969 325.871,-187.311"/>
</g>
<!-- Node10 -->
<g id="node10" class="node"><title>Node10</title>
<g id="a_node10"><a xlink:href="params_8h.html" target="_top" xlink:title="ViennaRNA/params.h">
<polygon fill="none" stroke="black" points="373.5,-112.5 373.5,-131.5 485.5,-131.5 485.5,-112.5 373.5,-112.5"/>
<text text-anchor="middle" x="429.5" y="-119.5" font-family="Helvetica,sans-Serif" font-size="10.00">ViennaRNA/params.h</text>
</a>
</g>
</g>
<!-- Node1&#45;&gt;Node10 -->
<g id="edge23" class="edge"><title>Node1&#45;&gt;Node10</title>
<path fill="none" stroke="midnightblue" d="M289.976,-347.486C312.485,-340.704 340.733,-329.25 360.5,-311 410.504,-264.832 424.38,-179.347 428.142,-141.667"/>
<polygon fill="midnightblue" stroke="midnightblue" points="431.638,-141.869 429.014,-131.604 424.664,-141.265 431.638,-141.869"/>
</g>
<!-- Node5 -->
<g id="node5" class="node"><title>Node5</title>
<polygon fill="none" stroke="#bfbfbf" points="47.5,-168.5 47.5,-187.5 93.5,-187.5 93.5,-168.5 47.5,-168.5"/>
<text text-anchor="middle" x="70.5" y="-175.5" font-family="Helvetica,sans-Serif" font-size="10.00">stdio.h</text>
</g>
<!-- Node4&#45;&gt;Node5 -->
<g id="edge4" class="edge"><title>Node4&#45;&gt;Node5</title>
<path fill="none" stroke="midnightblue" d="M204.429,-291.801C150.273,-282.256 69.51,-266.352 60.5,-255 47.4826,-238.598 54.2445,-213.648 61.3894,-196.854"/>
<polygon fill="midnightblue" stroke="midnightblue" points="64.6509,-198.142 65.7143,-187.601 58.3093,-195.178 64.6509,-198.142"/>
</g>
<!-- Node4&#45;&gt;Node6 -->
<g id="edge5" class="edge"><title>Node4&#45;&gt;Node6</title>
<path fill="none" stroke="midnightblue" d="M246.349,-291.364C239.727,-282.763 230.343,-268.873 226.5,-255 222.822,-241.722 222.407,-237.156 226.5,-224 229.729,-213.622 236.276,-203.521 242.525,-195.527"/>
<polygon fill="midnightblue" stroke="midnightblue" points="245.285,-197.682 249.017,-187.766 239.916,-193.19 245.285,-197.682"/>
</g>
<!-- Node13 -->
<g id="node13" class="node"><title>Node13</title>
<g id="a_node13"><a xlink:href="string__utils_8h.html" target="_top" xlink:title="General utility&#45; and helper&#45;functions for RNA sequence and structure strings used throughout the Vien...">
<polygon fill="none" stroke="black" points="236,-230 236,-249 363,-249 363,-230 236,-230"/>
<text text-anchor="middle" x="299.5" y="-237" font-family="Helvetica,sans-Serif" font-size="10.00">ViennaRNA/string_utils.h</text>
</a>
</g>
</g>
<!-- Node4&#45;&gt;Node13 -->
<g id="edge17" class="edge"><title>Node4&#45;&gt;Node13</title>
<path fill="none" stroke="midnightblue" d="M260.091,-291.475C266.991,-282.55 278.002,-268.307 286.634,-257.143"/>
<polygon fill="midnightblue" stroke="midnightblue" points="289.574,-259.061 292.922,-249.009 284.036,-254.78 289.574,-259.061"/>
</g>
<!-- Node14 -->
<g id="node14" class="node"><title>Node14</title>
<g id="a_node14"><a xlink:href="structure__utils_8h.html" target="_top" xlink:title="Various utility&#45; and helper&#45;functions for secondary structure parsing, converting, etc. ">
<polygon fill="none" stroke="black" points="69.5,-224.5 69.5,-254.5 179.5,-254.5 179.5,-224.5 69.5,-224.5"/>
<text text-anchor="start" x="77.5" y="-242.5" font-family="Helvetica,sans-Serif" font-size="10.00">ViennaRNA/structure</text>
<text text-anchor="middle" x="124.5" y="-231.5" font-family="Helvetica,sans-Serif" font-size="10.00">_utils.h</text>
</a>
</g>
</g>
<!-- Node4&#45;&gt;Node14 -->
<g id="edge19" class="edge"><title>Node4&#45;&gt;Node14</title>
<path fill="none" stroke="midnightblue" d="M235.017,-291.475C216.566,-282.965 187.633,-269.619 163.998,-258.718"/>
<polygon fill="midnightblue" stroke="midnightblue" points="165.449,-255.533 154.903,-254.523 162.517,-261.89 165.449,-255.533"/>
</g>
<!-- Node7 -->
<g id="node7" class="node"><title>Node7</title>
<g id="a_node7"><a xlink:href="energy__const_8h.html" target="_top" xlink:title="ViennaRNA/energy_const.h">
<polygon fill="none" stroke="black" points="229.5,-56.5 229.5,-75.5 367.5,-75.5 367.5,-56.5 229.5,-56.5"/>
<text text-anchor="middle" x="298.5" y="-63.5" font-family="Helvetica,sans-Serif" font-size="10.00">ViennaRNA/energy_const.h</text>
</a>
</g>
</g>
<!-- Node6&#45;&gt;Node7 -->
<g id="edge6" class="edge"><title>Node6&#45;&gt;Node7</title>
<path fill="none" stroke="midnightblue" d="M265.219,-168.39C272.457,-159.808 282.969,-145.931 288.5,-132 294.365,-117.226 296.809,-99.298 297.817,-86.0152"/>
<polygon fill="midnightblue" stroke="midnightblue" points="301.328,-85.912 298.384,-75.7344 294.339,-85.5265 301.328,-85.912"/>
</g>
<!-- Node9 -->
<g id="node9" class="node"><title>Node9</title>
<g id="a_node9"><a xlink:href="model_8h.html" target="_top" xlink:title="The model details data structure and its corresponding modifiers. ">
<polygon fill="none" stroke="black" points="385.5,-56.5 385.5,-75.5 491.5,-75.5 491.5,-56.5 385.5,-56.5"/>
<text text-anchor="middle" x="438.5" y="-63.5" font-family="Helvetica,sans-Serif" font-size="10.00">ViennaRNA/model.h</text>
</a>
</g>
</g>
<!-- Node6&#45;&gt;Node9 -->
<g id="edge8" class="edge"><title>Node6&#45;&gt;Node9</title>
<path fill="none" stroke="midnightblue" d="M271.703,-168.368C302.895,-149.412 377.617,-104.001 415.558,-80.9424"/>
<polygon fill="midnightblue" stroke="midnightblue" points="417.635,-83.7759 424.363,-75.5914 414,-77.794 417.635,-83.7759"/>
</g>
<!-- Node6&#45;&gt;Node10 -->
<g id="edge9" class="edge"><title>Node6&#45;&gt;Node10</title>
<path fill="none" stroke="midnightblue" d="M279.665,-168.444C306.96,-159.241 353.536,-144.562 387.602,-134.388"/>
<polygon fill="midnightblue" stroke="midnightblue" points="388.7,-137.713 397.294,-131.516 386.711,-131.001 388.7,-137.713"/>
</g>
<!-- Node11 -->
<g id="node11" class="node"><title>Node11</title>
<g id="a_node11"><a xlink:href="dp__matrices_8h.html" target="_top" xlink:title="ViennaRNA/dp_matrices.h">
<polygon fill="none" stroke="black" points="0,-112.5 0,-131.5 133,-131.5 133,-112.5 0,-112.5"/>
<text text-anchor="middle" x="66.5" y="-119.5" font-family="Helvetica,sans-Serif" font-size="10.00">ViennaRNA/dp_matrices.h</text>
</a>
</g>
</g>
<!-- Node6&#45;&gt;Node11 -->
<g id="edge13" class="edge"><title>Node6&#45;&gt;Node11</title>
<path fill="none" stroke="midnightblue" d="M222.147,-168.444C187.577,-159.241 135.478,-144.562 101.154,-134.388"/>
<polygon fill="midnightblue" stroke="midnightblue" points="102.126,-131.026 91.543,-131.516 100.122,-137.733 102.126,-131.026"/>
</g>
<!-- Node12 -->
<g id="node12" class="node"><title>Node12</title>
<g id="a_node12"><a xlink:href="constraints_8h.html" target="_top" xlink:title="ViennaRNA/constraints.h">
<polygon fill="none" stroke="black" points="151.5,-112.5 151.5,-131.5 279.5,-131.5 279.5,-112.5 151.5,-112.5"/>
<text text-anchor="middle" x="215.5" y="-119.5" font-family="Helvetica,sans-Serif" font-size="10.00">ViennaRNA/constraints.h</text>
</a>
</g>
</g>
<!-- Node6&#45;&gt;Node12 -->
<g id="edge15" class="edge"><title>Node6&#45;&gt;Node12</title>
<path fill="none" stroke="midnightblue" d="M245.398,-168.083C237.934,-160.534 228.957,-149.495 222.56,-140.23"/>
<polygon fill="midnightblue" stroke="midnightblue" points="225.491,-138.316 217.175,-131.751 219.582,-142.069 225.491,-138.316"/>
</g>
<!-- Node8 -->
<g id="node8" class="node"><title>Node8</title>
<polygon fill="none" stroke="#bfbfbf" points="274.5,-0.5 274.5,-19.5 322.5,-19.5 322.5,-0.5 274.5,-0.5"/>
<text text-anchor="middle" x="298.5" y="-7.5" font-family="Helvetica,sans-Serif" font-size="10.00">limits.h</text>
</g>
<!-- Node7&#45;&gt;Node8 -->
<g id="edge7" class="edge"><title>Node7&#45;&gt;Node8</title>
<path fill="none" stroke="midnightblue" d="M298.5,-56.083C298.5,-49.0059 298.5,-38.8611 298.5,-29.9865"/>
<polygon fill="midnightblue" stroke="midnightblue" points="302,-29.751 298.5,-19.7511 295,-29.7511 302,-29.751"/>
</g>
<!-- Node10&#45;&gt;Node6 -->
<g id="edge11" class="edge"><title>Node10&#45;&gt;Node6</title>
<path fill="none" stroke="midnightblue" d="M407.454,-131.516C380.215,-140.703 333.649,-155.381 299.547,-165.568"/>
<polygon fill="midnightblue" stroke="midnightblue" points="298.436,-162.246 289.843,-168.444 300.425,-168.958 298.436,-162.246"/>
</g>
<!-- Node10&#45;&gt;Node7 -->
<g id="edge10" class="edge"><title>Node10&#45;&gt;Node7</title>
<path fill="none" stroke="midnightblue" d="M408.743,-112.444C387.184,-103.557 353.237,-89.5632 328.706,-79.4514"/>
<polygon fill="midnightblue" stroke="midnightblue" points="329.739,-76.0917 319.16,-75.5164 327.072,-82.5634 329.739,-76.0917"/>
</g>
<!-- Node10&#45;&gt;Node9 -->
<g id="edge12" class="edge"><title>Node10&#45;&gt;Node9</title>
<path fill="none" stroke="midnightblue" d="M430.986,-112.083C432.179,-104.927 433.894,-94.6353 435.385,-85.6911"/>
<polygon fill="midnightblue" stroke="midnightblue" points="438.85,-86.1904 437.041,-75.7511 431.945,-85.0396 438.85,-86.1904"/>
</g>
<!-- Node11&#45;&gt;Node6 -->
<g id="edge14" class="edge"><title>Node11&#45;&gt;Node6</title>
<path fill="none" stroke="midnightblue" d="M101.703,-131.516C136.222,-140.703 188.321,-155.381 222.696,-165.568"/>
<polygon fill="midnightblue" stroke="midnightblue" points="221.741,-168.935 232.324,-168.444 223.744,-162.228 221.741,-168.935"/>
</g>
<!-- Node12&#45;&gt;Node6 -->
<g id="edge16" class="edge"><title>Node12&#45;&gt;Node6</title>
<path fill="none" stroke="midnightblue" d="M227.437,-131.751C234.879,-139.248 243.864,-150.275 250.298,-159.566"/>
<polygon fill="midnightblue" stroke="midnightblue" points="247.402,-161.534 255.731,-168.083 253.304,-157.77 247.402,-161.534"/>
</g>
<!-- Node13&#45;&gt;Node6 -->
<g id="edge18" class="edge"><title>Node13&#45;&gt;Node6</title>
<path fill="none" stroke="midnightblue" d="M293.482,-229.975C287.245,-221.138 277.327,-207.089 269.482,-195.975"/>
<polygon fill="midnightblue" stroke="midnightblue" points="272.133,-193.66 263.506,-187.509 266.414,-197.697 272.133,-193.66"/>
</g>
<!-- Node14&#45;&gt;Node5 -->
<g id="edge20" class="edge"><title>Node14&#45;&gt;Node5</title>
<path fill="none" stroke="midnightblue" d="M111.703,-224.399C103.775,-215.664 93.5635,-204.413 85.2899,-195.296"/>
<polygon fill="midnightblue" stroke="midnightblue" points="87.6698,-192.711 78.3575,-187.658 82.4863,-197.415 87.6698,-192.711"/>
</g>
<!-- Node14&#45;&gt;Node6 -->
<g id="edge21" class="edge"><title>Node14&#45;&gt;Node6</title>
<path fill="none" stroke="midnightblue" d="M156.019,-224.399C178.135,-214.505 207.467,-201.383 228.906,-191.792"/>
<polygon fill="midnightblue" stroke="midnightblue" points="230.448,-194.936 238.147,-187.658 227.59,-188.547 230.448,-194.936"/>
</g>
</g>
</svg>
