<?xml version="1.0" encoding="UTF-8" standalone="no"?>
<!DOCTYPE svg PUBLIC "-//W3C//DTD SVG 1.1//EN"
 "http://www.w3.org/Graphics/SVG/1.1/DTD/svg11.dtd">
<!-- Generated by graphviz version 2.38.0 (20140413.2041)
 -->
<!-- Title: ViennaRNA/interior_loops.h Pages: 1 -->
<svg width="587pt" height="386pt"
 viewBox="0.00 0.00 587.00 386.00" xmlns="http://www.w3.org/2000/svg" xmlns:xlink="http://www.w3.org/1999/xlink">
<g id="graph0" class="graph" transform="scale(1 1) rotate(0) translate(4 382)">
<title>ViennaRNA/interior_loops.h</title>
<!-- Node1 -->
<g id="node1" class="node"><title>Node1</title>
<polygon fill="#bfbfbf" stroke="black" points="334.5,-347.5 334.5,-377.5 435.5,-377.5 435.5,-347.5 334.5,-347.5"/>
<text text-anchor="start" x="342.5" y="-365.5" font-family="Helvetica,sans-Serif" font-size="10.00">ViennaRNA/interior</text>
<text text-anchor="middle" x="385" y="-354.5" font-family="Helvetica,sans-Serif" font-size="10.00">_loops.h</text>
</g>
<!-- Node2 -->
<g id="node2" class="node"><title>Node2</title>
<g id="a_node2"><a xlink:href="utils_8h.html" target="_top" xlink:title="General utility&#45; and helper&#45;functions used throughout the ViennaRNA Package. ">
<polygon fill="none" stroke="black" points="152,-291.5 152,-310.5 250,-310.5 250,-291.5 152,-291.5"/>
<text text-anchor="middle" x="201" y="-298.5" font-family="Helvetica,sans-Serif" font-size="10.00">ViennaRNA/utils.h</text>
</a>
</g>
</g>
<!-- Node1&#45;&gt;Node2 -->
<g id="edge1" class="edge"><title>Node1&#45;&gt;Node2</title>
<path fill="none" stroke="midnightblue" d="M341.395,-347.399C309.6,-337.118 267.026,-323.351 237.125,-313.682"/>
<polygon fill="midnightblue" stroke="midnightblue" points="238.097,-310.318 227.505,-310.571 235.943,-316.978 238.097,-310.318"/>
</g>
<!-- Node4 -->
<g id="node4" class="node"><title>Node4</title>
<g id="a_node4"><a xlink:href="data__structures_8h.html" target="_top" xlink:title="ViennaRNA/data_structures.h">
<polygon fill="none" stroke="black" points="162.5,-168.5 162.5,-187.5 309.5,-187.5 309.5,-168.5 162.5,-168.5"/>
<text text-anchor="middle" x="236" y="-175.5" font-family="Helvetica,sans-Serif" font-size="10.00">ViennaRNA/data_structures.h</text>
</a>
</g>
</g>
<!-- Node1&#45;&gt;Node4 -->
<g id="edge22" class="edge"><title>Node1&#45;&gt;Node4</title>
<path fill="none" stroke="midnightblue" d="M387.345,-347.142C390.95,-319.827 394.628,-259.913 365,-224 351.383,-207.494 331.343,-197.033 311.099,-190.407"/>
<polygon fill="midnightblue" stroke="midnightblue" points="312.073,-187.045 301.49,-187.538 310.071,-193.752 312.073,-187.045"/>
</g>
<!-- Node8 -->
<g id="node8" class="node"><title>Node8</title>
<g id="a_node8"><a xlink:href="params_8h.html" target="_top" xlink:title="ViennaRNA/params.h">
<polygon fill="none" stroke="black" points="39,-112.5 39,-131.5 151,-131.5 151,-112.5 39,-112.5"/>
<text text-anchor="middle" x="95" y="-119.5" font-family="Helvetica,sans-Serif" font-size="10.00">ViennaRNA/params.h</text>
</a>
</g>
</g>
<!-- Node1&#45;&gt;Node8 -->
<g id="edge23" class="edge"><title>Node1&#45;&gt;Node8</title>
<path fill="none" stroke="midnightblue" d="M334.109,-355.6C284.218,-348.73 206.607,-335.119 143,-311 96.0938,-293.214 70.1792,-298.388 45,-255 37.5139,-242.1 46.8672,-176.768 51,-168 56.4213,-156.498 66.0063,-146.154 74.8492,-138.292"/>
<polygon fill="midnightblue" stroke="midnightblue" points="77.1847,-140.902 82.6208,-131.808 72.7002,-135.527 77.1847,-140.902"/>
</g>
<!-- Node10 -->
<g id="node10" class="node"><title>Node10</title>
<g id="a_node10"><a xlink:href="constraints_8h.html" target="_top" xlink:title="ViennaRNA/constraints.h">
<polygon fill="none" stroke="black" points="359,-112.5 359,-131.5 487,-131.5 487,-112.5 359,-112.5"/>
<text text-anchor="middle" x="423" y="-119.5" font-family="Helvetica,sans-Serif" font-size="10.00">ViennaRNA/constraints.h</text>
</a>
</g>
</g>
<!-- Node1&#45;&gt;Node10 -->
<g id="edge24" class="edge"><title>Node1&#45;&gt;Node10</title>
<path fill="none" stroke="midnightblue" d="M391.127,-347.185C395.137,-337.219 400.144,-323.523 403,-311 416.838,-250.312 421.149,-176.37 422.455,-142.114"/>
<polygon fill="midnightblue" stroke="midnightblue" points="425.965,-141.851 422.802,-131.74 418.969,-141.617 425.965,-141.851"/>
</g>
<!-- Node13 -->
<g id="node13" class="node"><title>Node13</title>
<g id="a_node13"><a xlink:href="energy__par_8h_source.html" target="_top" xlink:title="ViennaRNA/energy_par.h">
<polygon fill="none" stroke="black" points="451,-291.5 451,-310.5 579,-310.5 579,-291.5 451,-291.5"/>
<text text-anchor="middle" x="515" y="-298.5" font-family="Helvetica,sans-Serif" font-size="10.00">ViennaRNA/energy_par.h</text>
</a>
</g>
</g>
<!-- Node1&#45;&gt;Node13 -->
<g id="edge20" class="edge"><title>Node1&#45;&gt;Node13</title>
<path fill="none" stroke="midnightblue" d="M415.808,-347.399C437.328,-337.55 465.837,-324.501 486.768,-314.922"/>
<polygon fill="midnightblue" stroke="midnightblue" points="488.448,-318.002 496.084,-310.658 485.534,-311.637 488.448,-318.002"/>
</g>
<!-- Node3 -->
<g id="node3" class="node"><title>Node3</title>
<polygon fill="none" stroke="#bfbfbf" points="60,-168.5 60,-187.5 106,-187.5 106,-168.5 60,-168.5"/>
<text text-anchor="middle" x="83" y="-175.5" font-family="Helvetica,sans-Serif" font-size="10.00">stdio.h</text>
</g>
<!-- Node2&#45;&gt;Node3 -->
<g id="edge2" class="edge"><title>Node2&#45;&gt;Node3</title>
<path fill="none" stroke="midnightblue" d="M151.85,-299.196C118.4,-295.758 76.3,-285.148 54,-255 40.6782,-236.99 54.9998,-212.12 67.8223,-195.805"/>
<polygon fill="midnightblue" stroke="midnightblue" points="70.8599,-197.63 74.6066,-187.72 65.4975,-193.131 70.8599,-197.63"/>
</g>
<!-- Node2&#45;&gt;Node4 -->
<g id="edge3" class="edge"><title>Node2&#45;&gt;Node4</title>
<path fill="none" stroke="midnightblue" d="M202.844,-291.492C205.97,-277.363 212.686,-248.217 220,-224 222.7,-215.059 226.122,-205.274 229.107,-197.119"/>
<polygon fill="midnightblue" stroke="midnightblue" points="232.463,-198.137 232.683,-187.545 225.905,-195.688 232.463,-198.137"/>
</g>
<!-- Node11 -->
<g id="node11" class="node"><title>Node11</title>
<g id="a_node11"><a xlink:href="string__utils_8h.html" target="_top" xlink:title="General utility&#45; and helper&#45;functions for RNA sequence and structure strings used throughout the Vien...">
<polygon fill="none" stroke="black" points="229.5,-230 229.5,-249 356.5,-249 356.5,-230 229.5,-230"/>
<text text-anchor="middle" x="293" y="-237" font-family="Helvetica,sans-Serif" font-size="10.00">ViennaRNA/string_utils.h</text>
</a>
</g>
</g>
<!-- Node2&#45;&gt;Node11 -->
<g id="edge15" class="edge"><title>Node2&#45;&gt;Node11</title>
<path fill="none" stroke="midnightblue" d="M214.181,-291.475C229.074,-281.843 253.544,-266.017 271.273,-254.552"/>
<polygon fill="midnightblue" stroke="midnightblue" points="273.347,-257.379 279.843,-249.009 269.545,-251.501 273.347,-257.379"/>
</g>
<!-- Node12 -->
<g id="node12" class="node"><title>Node12</title>
<g id="a_node12"><a xlink:href="structure__utils_8h.html" target="_top" xlink:title="Various utility&#45; and helper&#45;functions for secondary structure parsing, converting, etc. ">
<polygon fill="none" stroke="black" points="63,-224.5 63,-254.5 173,-254.5 173,-224.5 63,-224.5"/>
<text text-anchor="start" x="71" y="-242.5" font-family="Helvetica,sans-Serif" font-size="10.00">ViennaRNA/structure</text>
<text text-anchor="middle" x="118" y="-231.5" font-family="Helvetica,sans-Serif" font-size="10.00">_utils.h</text>
</a>
</g>
</g>
<!-- Node2&#45;&gt;Node12 -->
<g id="edge17" class="edge"><title>Node2&#45;&gt;Node12</title>
<path fill="none" stroke="midnightblue" d="M189.108,-291.475C177.867,-283.417 160.578,-271.023 145.863,-260.474"/>
<polygon fill="midnightblue" stroke="midnightblue" points="147.728,-257.505 137.561,-254.523 143.65,-263.194 147.728,-257.505"/>
</g>
<!-- Node5 -->
<g id="node5" class="node"><title>Node5</title>
<g id="a_node5"><a xlink:href="energy__const_8h.html" target="_top" xlink:title="ViennaRNA/energy_const.h">
<polygon fill="none" stroke="black" points="262,-56.5 262,-75.5 400,-75.5 400,-56.5 262,-56.5"/>
<text text-anchor="middle" x="331" y="-63.5" font-family="Helvetica,sans-Serif" font-size="10.00">ViennaRNA/energy_const.h</text>
</a>
</g>
</g>
<!-- Node4&#45;&gt;Node5 -->
<g id="edge4" class="edge"><title>Node4&#45;&gt;Node5</title>
<path fill="none" stroke="midnightblue" d="M259.112,-168.429C275.778,-161.133 297.611,-149.095 311,-132 321.455,-118.651 326.474,-99.8242 328.866,-85.8659"/>
<polygon fill="midnightblue" stroke="midnightblue" points="332.338,-86.3049 330.274,-75.9131 325.407,-85.324 332.338,-86.3049"/>
</g>
<!-- Node7 -->
<g id="node7" class="node"><title>Node7</title>
<g id="a_node7"><a xlink:href="model_8h.html" target="_top" xlink:title="The model details data structure and its corresponding modifiers. ">
<polygon fill="none" stroke="black" points="0,-56.5 0,-75.5 106,-75.5 106,-56.5 0,-56.5"/>
<text text-anchor="middle" x="53" y="-63.5" font-family="Helvetica,sans-Serif" font-size="10.00">ViennaRNA/model.h</text>
</a>
</g>
</g>
<!-- Node4&#45;&gt;Node7 -->
<g id="edge6" class="edge"><title>Node4&#45;&gt;Node7</title>
<path fill="none" stroke="midnightblue" d="M162.245,-170.551C110.082,-164.283 46.5868,-152.601 30,-132 18.6856,-117.947 28.6661,-97.9111 38.7887,-83.8079"/>
<polygon fill="midnightblue" stroke="midnightblue" points="41.5588,-85.9473 44.9208,-75.9 36.027,-81.6577 41.5588,-85.9473"/>
</g>
<!-- Node4&#45;&gt;Node8 -->
<g id="edge7" class="edge"><title>Node4&#45;&gt;Node8</title>
<path fill="none" stroke="midnightblue" d="M208.569,-168.444C183.415,-159.557 146.643,-145.563 121.722,-135.451"/>
<polygon fill="midnightblue" stroke="midnightblue" points="122.737,-132.084 112.157,-131.516 120.074,-138.558 122.737,-132.084"/>
</g>
<!-- Node9 -->
<g id="node9" class="node"><title>Node9</title>
<g id="a_node9"><a xlink:href="dp__matrices_8h.html" target="_top" xlink:title="ViennaRNA/dp_matrices.h">
<polygon fill="none" stroke="black" points="169.5,-112.5 169.5,-131.5 302.5,-131.5 302.5,-112.5 169.5,-112.5"/>
<text text-anchor="middle" x="236" y="-119.5" font-family="Helvetica,sans-Serif" font-size="10.00">ViennaRNA/dp_matrices.h</text>
</a>
</g>
</g>
<!-- Node4&#45;&gt;Node9 -->
<g id="edge11" class="edge"><title>Node4&#45;&gt;Node9</title>
<path fill="none" stroke="midnightblue" d="M230.834,-168.083C229.324,-160.927 228.894,-150.635 229.542,-141.691"/>
<polygon fill="midnightblue" stroke="midnightblue" points="233.015,-142.126 230.869,-131.751 226.077,-141.2 233.015,-142.126"/>
</g>
<!-- Node4&#45;&gt;Node10 -->
<g id="edge13" class="edge"><title>Node4&#45;&gt;Node10</title>
<path fill="none" stroke="midnightblue" d="M260.542,-168.444C290.521,-159.201 341.482,-144.436 378.413,-134.257"/>
<polygon fill="midnightblue" stroke="midnightblue" points="379.706,-137.532 388.428,-131.516 377.859,-130.78 379.706,-137.532"/>
</g>
<!-- Node6 -->
<g id="node6" class="node"><title>Node6</title>
<polygon fill="none" stroke="#bfbfbf" points="307,-0.5 307,-19.5 355,-19.5 355,-0.5 307,-0.5"/>
<text text-anchor="middle" x="331" y="-7.5" font-family="Helvetica,sans-Serif" font-size="10.00">limits.h</text>
</g>
<!-- Node5&#45;&gt;Node6 -->
<g id="edge5" class="edge"><title>Node5&#45;&gt;Node6</title>
<path fill="none" stroke="midnightblue" d="M331,-56.083C331,-49.0059 331,-38.8611 331,-29.9865"/>
<polygon fill="midnightblue" stroke="midnightblue" points="334.5,-29.751 331,-19.7511 327.5,-29.7511 334.5,-29.751"/>
</g>
<!-- Node8&#45;&gt;Node4 -->
<g id="edge9" class="edge"><title>Node8&#45;&gt;Node4</title>
<path fill="none" stroke="midnightblue" d="M122.317,-131.516C147.548,-140.427 184.536,-154.504 209.498,-164.638"/>
<polygon fill="midnightblue" stroke="midnightblue" points="208.167,-167.875 218.747,-168.444 210.831,-161.402 208.167,-167.875"/>
</g>
<!-- Node8&#45;&gt;Node5 -->
<g id="edge8" class="edge"><title>Node8&#45;&gt;Node5</title>
<path fill="none" stroke="midnightblue" d="M132.395,-112.444C173.392,-103.063 239.254,-87.9926 283.784,-77.8036"/>
<polygon fill="midnightblue" stroke="midnightblue" points="284.813,-81.1588 293.78,-75.5164 283.251,-74.3352 284.813,-81.1588"/>
</g>
<!-- Node8&#45;&gt;Node7 -->
<g id="edge10" class="edge"><title>Node8&#45;&gt;Node7</title>
<path fill="none" stroke="midnightblue" d="M88.0646,-112.083C82.0708,-104.377 73.2482,-93.0333 65.9524,-83.6531"/>
<polygon fill="midnightblue" stroke="midnightblue" points="68.7086,-81.4958 59.8064,-75.7511 63.1831,-85.7934 68.7086,-81.4958"/>
</g>
<!-- Node9&#45;&gt;Node4 -->
<g id="edge12" class="edge"><title>Node9&#45;&gt;Node4</title>
<path fill="none" stroke="midnightblue" d="M241.131,-131.751C242.657,-138.858 243.104,-149.136 242.472,-158.101"/>
<polygon fill="midnightblue" stroke="midnightblue" points="238.993,-157.713 241.166,-168.083 245.934,-158.622 238.993,-157.713"/>
</g>
<!-- Node10&#45;&gt;Node4 -->
<g id="edge14" class="edge"><title>Node10&#45;&gt;Node4</title>
<path fill="none" stroke="midnightblue" d="M398.588,-131.516C368.67,-140.743 317.719,-155.507 280.748,-165.699"/>
<polygon fill="midnightblue" stroke="midnightblue" points="279.441,-162.428 270.719,-168.444 281.289,-169.179 279.441,-162.428"/>
</g>
<!-- Node11&#45;&gt;Node4 -->
<g id="edge16" class="edge"><title>Node11&#45;&gt;Node4</title>
<path fill="none" stroke="midnightblue" d="M284.833,-229.975C276.114,-220.873 262.096,-206.241 251.311,-194.983"/>
<polygon fill="midnightblue" stroke="midnightblue" points="253.597,-192.309 244.152,-187.509 248.542,-197.151 253.597,-192.309"/>
</g>
<!-- Node12&#45;&gt;Node3 -->
<g id="edge18" class="edge"><title>Node12&#45;&gt;Node3</title>
<path fill="none" stroke="midnightblue" d="M109.705,-224.399C104.777,-216.021 98.4864,-205.327 93.2488,-196.423"/>
<polygon fill="midnightblue" stroke="midnightblue" points="96.1798,-194.503 88.0928,-187.658 90.1463,-198.052 96.1798,-194.503"/>
</g>
<!-- Node12&#45;&gt;Node4 -->
<g id="edge19" class="edge"><title>Node12&#45;&gt;Node4</title>
<path fill="none" stroke="midnightblue" d="M145.964,-224.399C165.321,-214.639 190.908,-201.737 209.856,-192.183"/>
<polygon fill="midnightblue" stroke="midnightblue" points="211.477,-195.285 218.83,-187.658 208.325,-189.035 211.477,-195.285"/>
</g>
<!-- Node13&#45;&gt;Node5 -->
<g id="edge21" class="edge"><title>Node13&#45;&gt;Node5</title>
<path fill="none" stroke="midnightblue" d="M517.201,-291.22C524.001,-261.844 541.579,-165.825 496,-112 483.043,-96.6988 437.835,-85.0178 398.01,-77.396"/>
<polygon fill="midnightblue" stroke="midnightblue" points="398.495,-73.9262 388.024,-75.5459 397.219,-80.8091 398.495,-73.9262"/>
</g>
</g>
</svg>
