<?xml version="1.0" encoding="UTF-8" standalone="no"?>
<!DOCTYPE svg PUBLIC "-//W3C//DTD SVG 1.1//EN"
 "http://www.w3.org/Graphics/SVG/1.1/DTD/svg11.dtd">
<!-- Generated by graphviz version 2.38.0 (20140413.2041)
 -->
<!-- Title: ViennaRNA/loop_energies.h Pages: 1 -->
<!--zoomable 442 -->
<svg id="main" version="1.1" xmlns="http://www.w3.org/2000/svg" xmlns:xlink="http://www.w3.org/1999/xlink" xml:space="preserve" onload="init(evt)">
<style type="text/css"><![CDATA[
.edge:hover path { stroke: red; }
.edge:hover polygon { stroke: red; fill: red; }
]]></style>
<script type="text/javascript"><![CDATA[
var edges = document.getElementsByTagName('g');
if (edges && edges.length) {
  for (var i=0;i<edges.length;i++) {
    if (edges[i].id.substr(0,4)=='edge') {
      edges[i].setAttribute('class','edge');
    }
  }
}
]]></script>
        <defs>
                <circle id="rim" cx="0" cy="0" r="7"/>
                <circle id="rim2" cx="0" cy="0" r="3.5"/>
                <g id="zoomPlus">
                        <use xlink:href="#rim" fill="#404040">
                                <set attributeName="fill" to="#808080" begin="zoomplus.mouseover" end="zoomplus.mouseout"/>
                        </use>
                        <path d="M-4,0h8M0,-4v8" fill="none" stroke="white" stroke-width="1.5" pointer-events="none"/>
                </g>
                <g id="zoomMin">
                        <use xlink:href="#rim" fill="#404040">
                                <set attributeName="fill" to="#808080" begin="zoomminus.mouseover" end="zoomminus.mouseout"/>
                        </use>
                        <path d="M-4,0h8" fill="none" stroke="white" stroke-width="1.5" pointer-events="none"/>
                </g>
                <g id="dirArrow">
                        <path fill="none" stroke="white" stroke-width="1.5" d="M0,-3.0v7 M-2.5,-0.5L0,-3.0L2.5,-0.5"/>
                </g>
               <g id="resetDef">
                       <use xlink:href="#rim2" fill="#404040">
                               <set attributeName="fill" to="#808080" begin="reset.mouseover" end="reset.mouseout"/>
                       </use>
               </g>
        </defs>

<script type="text/javascript">
var viewWidth = 917;
var viewHeight = 442;
var sectionId = 'dynsection-0';
</script>
<script xlink:href="svgpan.js"/>
<svg id="graph" class="graph">
<g id="viewport">
<title>ViennaRNA/loop_energies.h</title>
<!-- Node1 -->
<g id="node1" class="node"><title>Node1</title>
<polygon fill="#bfbfbf" stroke="black" points="171.641,-414.5 171.641,-433.5 311.641,-433.5 311.641,-414.5 171.641,-414.5"/>
<text text-anchor="middle" x="241.641" y="-421.5" font-family="Helvetica,sans-Serif" font-size="10.00">ViennaRNA/loop_energies.h</text>
</g>
<!-- Node2 -->
<g id="node2" class="node"><title>Node2</title>
<g id="a_node2"><a xlink:href="exterior__loops_8h.html" target="_top" xlink:title="Energy evaluation of exterior loops for MFE and partition function calculations. ">
<polygon fill="none" stroke="black" points="118.641,-224.5 118.641,-254.5 222.641,-254.5 222.641,-224.5 118.641,-224.5"/>
<text text-anchor="start" x="126.641" y="-242.5" font-family="Helvetica,sans-Serif" font-size="10.00">ViennaRNA/exterior</text>
<text text-anchor="middle" x="170.641" y="-231.5" font-family="Helvetica,sans-Serif" font-size="10.00">_loops.h</text>
</a>
</g>
</g>
<!-- Node1&#45;&gt;Node2 -->
<g id="edge1" class="edge"><title>Node1&#45;&gt;Node2</title>
<path fill="none" stroke="midnightblue" d="M236.428,-414.244C231.248,-405.324 223.284,-390.994 217.641,-378 200.801,-339.219 185.867,-292.287 177.561,-264.495"/>
<polygon fill="midnightblue" stroke="midnightblue" points="180.898,-263.439 174.711,-254.838 174.184,-265.42 180.898,-263.439"/>
</g>
<!-- Node10 -->
<g id="node10" class="node"><title>Node10</title>
<g id="a_node10"><a xlink:href="hairpin__loops_8h.html" target="_top" xlink:title="Energy evaluation of hairpin loops for MFE and partition function calculations. ">
<polygon fill="none" stroke="black" points="25.141,-353 25.141,-372 162.141,-372 162.141,-353 25.141,-353"/>
<text text-anchor="middle" x="93.641" y="-360" font-family="Helvetica,sans-Serif" font-size="10.00">ViennaRNA/hairpin_loops.h</text>
</a>
</g>
</g>
<!-- Node1&#45;&gt;Node10 -->
<g id="edge15" class="edge"><title>Node1&#45;&gt;Node10</title>
<path fill="none" stroke="midnightblue" d="M220.436,-414.475C195.269,-404.357 153.101,-387.405 124.362,-375.851"/>
<polygon fill="midnightblue" stroke="midnightblue" points="125.39,-372.492 114.806,-372.009 122.779,-378.987 125.39,-372.492"/>
</g>
<!-- Node17 -->
<g id="node17" class="node"><title>Node17</title>
<g id="a_node17"><a xlink:href="interior__loops_8h.html" target="_top" xlink:title="Energy evaluation of interior loops for MFE and partition function calculations. ">
<polygon fill="none" stroke="black" points="645.141,-347.5 645.141,-377.5 746.141,-377.5 746.141,-347.5 645.141,-347.5"/>
<text text-anchor="start" x="653.141" y="-365.5" font-family="Helvetica,sans-Serif" font-size="10.00">ViennaRNA/interior</text>
<text text-anchor="middle" x="695.641" y="-354.5" font-family="Helvetica,sans-Serif" font-size="10.00">_loops.h</text>
</a>
</g>
</g>
<!-- Node1&#45;&gt;Node17 -->
<g id="edge28" class="edge"><title>Node1&#45;&gt;Node17</title>
<path fill="none" stroke="midnightblue" d="M306.688,-414.475C394.452,-402.973 549.609,-382.639 635.031,-371.443"/>
<polygon fill="midnightblue" stroke="midnightblue" points="635.633,-374.895 645.093,-370.125 634.723,-367.954 635.633,-374.895"/>
</g>
<!-- Node19 -->
<g id="node19" class="node"><title>Node19</title>
<g id="a_node19"><a xlink:href="multibranch__loops_8h.html" target="_top" xlink:title="Energy evaluation of multibranch loops for MFE and partition function calculations. ">
<polygon fill="none" stroke="black" points="226.641,-347.5 226.641,-377.5 348.641,-377.5 348.641,-347.5 226.641,-347.5"/>
<text text-anchor="start" x="234.641" y="-365.5" font-family="Helvetica,sans-Serif" font-size="10.00">ViennaRNA/multibranch</text>
<text text-anchor="middle" x="287.641" y="-354.5" font-family="Helvetica,sans-Serif" font-size="10.00">_loops.h</text>
</a>
</g>
</g>
<!-- Node1&#45;&gt;Node19 -->
<g id="edge35" class="edge"><title>Node1&#45;&gt;Node19</title>
<path fill="none" stroke="midnightblue" d="M248.232,-414.475C254.054,-406.944 262.804,-395.626 270.581,-385.566"/>
<polygon fill="midnightblue" stroke="midnightblue" points="273.452,-387.575 276.8,-377.523 267.914,-383.294 273.452,-387.575"/>
</g>
<!-- Node3 -->
<g id="node3" class="node"><title>Node3</title>
<g id="a_node3"><a xlink:href="data__structures_8h.html" target="_top" xlink:title="ViennaRNA/data_structures.h">
<polygon fill="none" stroke="black" points="299.141,-168.5 299.141,-187.5 446.141,-187.5 446.141,-168.5 299.141,-168.5"/>
<text text-anchor="middle" x="372.641" y="-175.5" font-family="Helvetica,sans-Serif" font-size="10.00">ViennaRNA/data_structures.h</text>
</a>
</g>
</g>
<!-- Node2&#45;&gt;Node3 -->
<g id="edge2" class="edge"><title>Node2&#45;&gt;Node3</title>
<path fill="none" stroke="midnightblue" d="M218.256,-224.475C253.562,-214.075 301.081,-200.078 334.033,-190.372"/>
<polygon fill="midnightblue" stroke="midnightblue" points="335.159,-193.689 343.762,-187.506 333.181,-186.975 335.159,-193.689"/>
</g>
<!-- Node7 -->
<g id="node7" class="node"><title>Node7</title>
<g id="a_node7"><a xlink:href="params_8h.html" target="_top" xlink:title="ViennaRNA/params.h">
<polygon fill="none" stroke="black" points="194.641,-112.5 194.641,-131.5 306.641,-131.5 306.641,-112.5 194.641,-112.5"/>
<text text-anchor="middle" x="250.641" y="-119.5" font-family="Helvetica,sans-Serif" font-size="10.00">ViennaRNA/params.h</text>
</a>
</g>
</g>
<!-- Node2&#45;&gt;Node7 -->
<g id="edge14" class="edge"><title>Node2&#45;&gt;Node7</title>
<path fill="none" stroke="midnightblue" d="M180.451,-224.337C195.192,-203.054 223.013,-162.887 238.842,-140.035"/>
<polygon fill="midnightblue" stroke="midnightblue" points="241.819,-141.883 244.636,-131.669 236.065,-137.897 241.819,-141.883"/>
</g>
<!-- Node4 -->
<g id="node4" class="node"><title>Node4</title>
<g id="a_node4"><a xlink:href="energy__const_8h.html" target="_top" xlink:title="ViennaRNA/energy_const.h">
<polygon fill="none" stroke="black" points="321.641,-56.5 321.641,-75.5 459.641,-75.5 459.641,-56.5 321.641,-56.5"/>
<text text-anchor="middle" x="390.641" y="-63.5" font-family="Helvetica,sans-Serif" font-size="10.00">ViennaRNA/energy_const.h</text>
</a>
</g>
</g>
<!-- Node3&#45;&gt;Node4 -->
<g id="edge3" class="edge"><title>Node3&#45;&gt;Node4</title>
<path fill="none" stroke="midnightblue" d="M374.053,-168.368C376.958,-150.617 383.659,-109.666 387.598,-85.5974"/>
<polygon fill="midnightblue" stroke="midnightblue" points="391.074,-86.0254 389.235,-75.5914 384.166,-84.8949 391.074,-86.0254"/>
</g>
<!-- Node6 -->
<g id="node6" class="node"><title>Node6</title>
<g id="a_node6"><a xlink:href="model_8h.html" target="_top" xlink:title="The model details data structure and its corresponding modifiers. ">
<polygon fill="none" stroke="black" points="197.641,-56.5 197.641,-75.5 303.641,-75.5 303.641,-56.5 197.641,-56.5"/>
<text text-anchor="middle" x="250.641" y="-63.5" font-family="Helvetica,sans-Serif" font-size="10.00">ViennaRNA/model.h</text>
</a>
</g>
</g>
<!-- Node3&#45;&gt;Node6 -->
<g id="edge5" class="edge"><title>Node3&#45;&gt;Node6</title>
<path fill="none" stroke="midnightblue" d="M366.217,-168.404C356.238,-155.363 336.029,-130.18 315.641,-112 302.699,-100.46 286.701,-89.3503 273.814,-81.057"/>
<polygon fill="midnightblue" stroke="midnightblue" points="275.396,-77.9171 265.069,-75.5501 271.666,-83.8405 275.396,-77.9171"/>
</g>
<!-- Node3&#45;&gt;Node7 -->
<g id="edge6" class="edge"><title>Node3&#45;&gt;Node7</title>
<path fill="none" stroke="midnightblue" d="M348.221,-168.444C326.487,-159.675 295.193,-145.935 273.842,-135.858"/>
<polygon fill="midnightblue" stroke="midnightblue" points="275.331,-132.691 264.802,-131.516 272.301,-139.001 275.331,-132.691"/>
</g>
<!-- Node8 -->
<g id="node8" class="node"><title>Node8</title>
<g id="a_node8"><a xlink:href="dp__matrices_8h.html" target="_top" xlink:title="ViennaRNA/dp_matrices.h">
<polygon fill="none" stroke="black" points="401.141,-112.5 401.141,-131.5 534.141,-131.5 534.141,-112.5 401.141,-112.5"/>
<text text-anchor="middle" x="467.641" y="-119.5" font-family="Helvetica,sans-Serif" font-size="10.00">ViennaRNA/dp_matrices.h</text>
</a>
</g>
</g>
<!-- Node3&#45;&gt;Node8 -->
<g id="edge10" class="edge"><title>Node3&#45;&gt;Node8</title>
<path fill="none" stroke="midnightblue" d="M382.79,-168.324C396.089,-159.703 419.287,-146.364 438.172,-136.386"/>
<polygon fill="midnightblue" stroke="midnightblue" points="440.036,-139.362 447.305,-131.655 436.816,-133.146 440.036,-139.362"/>
</g>
<!-- Node9 -->
<g id="node9" class="node"><title>Node9</title>
<g id="a_node9"><a xlink:href="constraints_8h.html" target="_top" xlink:title="ViennaRNA/constraints.h">
<polygon fill="none" stroke="black" points="552.641,-112.5 552.641,-131.5 680.641,-131.5 680.641,-112.5 552.641,-112.5"/>
<text text-anchor="middle" x="616.641" y="-119.5" font-family="Helvetica,sans-Serif" font-size="10.00">ViennaRNA/constraints.h</text>
</a>
</g>
</g>
<!-- Node3&#45;&gt;Node9 -->
<g id="edge12" class="edge"><title>Node3&#45;&gt;Node9</title>
<path fill="none" stroke="midnightblue" d="M406.215,-168.444C446.799,-159.004 515.352,-143.802 563.201,-133.611"/>
<polygon fill="midnightblue" stroke="midnightblue" points="564.023,-137.015 573.079,-131.516 562.571,-130.167 564.023,-137.015"/>
</g>
<!-- Node5 -->
<g id="node5" class="node"><title>Node5</title>
<polygon fill="none" stroke="#bfbfbf" points="366.641,-0.5 366.641,-19.5 414.641,-19.5 414.641,-0.5 366.641,-0.5"/>
<text text-anchor="middle" x="390.641" y="-7.5" font-family="Helvetica,sans-Serif" font-size="10.00">limits.h</text>
</g>
<!-- Node4&#45;&gt;Node5 -->
<g id="edge4" class="edge"><title>Node4&#45;&gt;Node5</title>
<path fill="none" stroke="midnightblue" d="M390.641,-56.083C390.641,-49.0059 390.641,-38.8611 390.641,-29.9865"/>
<polygon fill="midnightblue" stroke="midnightblue" points="394.141,-29.751 390.641,-19.7511 387.141,-29.7511 394.141,-29.751"/>
</g>
<!-- Node7&#45;&gt;Node3 -->
<g id="edge8" class="edge"><title>Node7&#45;&gt;Node3</title>
<path fill="none" stroke="midnightblue" d="M275.304,-131.655C296.923,-140.385 327.871,-153.972 349.135,-163.998"/>
<polygon fill="midnightblue" stroke="midnightblue" points="347.624,-167.155 358.154,-168.324 350.651,-160.844 347.624,-167.155"/>
</g>
<!-- Node7&#45;&gt;Node4 -->
<g id="edge7" class="edge"><title>Node7&#45;&gt;Node4</title>
<path fill="none" stroke="midnightblue" d="M272.824,-112.444C296.069,-103.478 332.79,-89.314 359.056,-79.1827"/>
<polygon fill="midnightblue" stroke="midnightblue" points="360.491,-82.3807 368.561,-75.5164 357.972,-75.8497 360.491,-82.3807"/>
</g>
<!-- Node7&#45;&gt;Node6 -->
<g id="edge9" class="edge"><title>Node7&#45;&gt;Node6</title>
<path fill="none" stroke="midnightblue" d="M250.641,-112.083C250.641,-105.006 250.641,-94.8611 250.641,-85.9865"/>
<polygon fill="midnightblue" stroke="midnightblue" points="254.141,-85.751 250.641,-75.7511 247.141,-85.7511 254.141,-85.751"/>
</g>
<!-- Node8&#45;&gt;Node3 -->
<g id="edge11" class="edge"><title>Node8&#45;&gt;Node3</title>
<path fill="none" stroke="midnightblue" d="M457.526,-131.655C444.243,-140.267 421.049,-153.605 402.157,-163.59"/>
<polygon fill="midnightblue" stroke="midnightblue" points="400.288,-160.616 393.019,-168.324 403.508,-166.831 400.288,-160.616"/>
</g>
<!-- Node9&#45;&gt;Node3 -->
<g id="edge13" class="edge"><title>Node9&#45;&gt;Node3</title>
<path fill="none" stroke="midnightblue" d="M583.239,-131.516C542.735,-140.94 474.191,-156.141 426.284,-166.346"/>
<polygon fill="midnightblue" stroke="midnightblue" points="425.449,-162.945 416.392,-168.444 426.901,-169.793 425.449,-162.945"/>
</g>
<!-- Node10&#45;&gt;Node3 -->
<g id="edge26" class="edge"><title>Node10&#45;&gt;Node3</title>
<path fill="none" stroke="midnightblue" d="M64.4821,-352.983C32.3896,-341.945 -12.6411,-320.553 3.64102,-291 30.5349,-242.185 57.6107,-243.975 109.641,-224 167.23,-201.89 236.071,-190.606 288.875,-184.868"/>
<polygon fill="midnightblue" stroke="midnightblue" points="289.293,-188.343 298.877,-183.826 288.568,-181.381 289.293,-188.343"/>
</g>
<!-- Node10&#45;&gt;Node7 -->
<g id="edge27" class="edge"><title>Node10&#45;&gt;Node7</title>
<path fill="none" stroke="midnightblue" d="M92.3572,-352.694C89.4622,-329.695 84.5057,-266.652 109.641,-224 134.965,-181.028 186.552,-151.379 219.812,-135.804"/>
<polygon fill="midnightblue" stroke="midnightblue" points="221.418,-138.919 229.082,-131.604 218.529,-132.543 221.418,-138.919"/>
</g>
<!-- Node11 -->
<g id="node11" class="node"><title>Node11</title>
<polygon fill="none" stroke="#bfbfbf" points="119.141,-291.5 119.141,-310.5 166.141,-310.5 166.141,-291.5 119.141,-291.5"/>
<text text-anchor="middle" x="142.641" y="-298.5" font-family="Helvetica,sans-Serif" font-size="10.00">math.h</text>
</g>
<!-- Node10&#45;&gt;Node11 -->
<g id="edge16" class="edge"><title>Node10&#45;&gt;Node11</title>
<path fill="none" stroke="midnightblue" d="M100.662,-352.975C108.084,-343.962 119.974,-329.525 129.208,-318.312"/>
<polygon fill="midnightblue" stroke="midnightblue" points="131.978,-320.453 135.634,-310.509 126.575,-316.003 131.978,-320.453"/>
</g>
<!-- Node12 -->
<g id="node12" class="node"><title>Node12</title>
<polygon fill="none" stroke="#bfbfbf" points="13.141,-291.5 13.141,-310.5 62.141,-310.5 62.141,-291.5 13.141,-291.5"/>
<text text-anchor="middle" x="37.641" y="-298.5" font-family="Helvetica,sans-Serif" font-size="10.00">string.h</text>
</g>
<!-- Node10&#45;&gt;Node12 -->
<g id="edge17" class="edge"><title>Node10&#45;&gt;Node12</title>
<path fill="none" stroke="midnightblue" d="M85.6176,-352.975C77.0512,-343.873 63.2796,-329.241 52.6838,-317.983"/>
<polygon fill="midnightblue" stroke="midnightblue" points="55.052,-315.392 45.6496,-310.509 49.9545,-320.19 55.052,-315.392"/>
</g>
<!-- Node13 -->
<g id="node13" class="node"><title>Node13</title>
<g id="a_node13"><a xlink:href="utils_8h.html" target="_top" xlink:title="General utility&#45; and helper&#45;functions used throughout the ViennaRNA Package. ">
<polygon fill="none" stroke="black" points="369.641,-291.5 369.641,-310.5 467.641,-310.5 467.641,-291.5 369.641,-291.5"/>
<text text-anchor="middle" x="418.641" y="-298.5" font-family="Helvetica,sans-Serif" font-size="10.00">ViennaRNA/utils.h</text>
</a>
</g>
</g>
<!-- Node10&#45;&gt;Node13 -->
<g id="edge18" class="edge"><title>Node10&#45;&gt;Node13</title>
<path fill="none" stroke="midnightblue" d="M140.206,-352.975C198.73,-342.261 299.117,-323.882 362.02,-312.366"/>
<polygon fill="midnightblue" stroke="midnightblue" points="362.957,-315.753 372.163,-310.509 361.696,-308.867 362.957,-315.753"/>
</g>
<!-- Node13&#45;&gt;Node3 -->
<g id="edge20" class="edge"><title>Node13&#45;&gt;Node3</title>
<path fill="none" stroke="midnightblue" d="M392.43,-291.414C375.791,-284.445 355.584,-272.809 345.641,-255 335.028,-235.99 347.267,-212.037 358.514,-196.157"/>
<polygon fill="midnightblue" stroke="midnightblue" points="361.573,-197.917 364.841,-187.839 356.001,-193.679 361.573,-197.917"/>
</g>
<!-- Node14 -->
<g id="node14" class="node"><title>Node14</title>
<polygon fill="none" stroke="#bfbfbf" points="567.641,-168.5 567.641,-187.5 613.641,-187.5 613.641,-168.5 567.641,-168.5"/>
<text text-anchor="middle" x="590.641" y="-175.5" font-family="Helvetica,sans-Serif" font-size="10.00">stdio.h</text>
</g>
<!-- Node13&#45;&gt;Node14 -->
<g id="edge19" class="edge"><title>Node13&#45;&gt;Node14</title>
<path fill="none" stroke="midnightblue" d="M467.863,-295.916C521.127,-290.355 600.976,-278.306 619.641,-255 633.774,-237.353 618.889,-212.055 605.753,-195.577"/>
<polygon fill="midnightblue" stroke="midnightblue" points="608.341,-193.218 599.205,-187.852 603.001,-197.744 608.341,-193.218"/>
</g>
<!-- Node15 -->
<g id="node15" class="node"><title>Node15</title>
<g id="a_node15"><a xlink:href="string__utils_8h.html" target="_top" xlink:title="General utility&#45; and helper&#45;functions for RNA sequence and structure strings used throughout the Vien...">
<polygon fill="none" stroke="black" points="355.141,-230 355.141,-249 482.141,-249 482.141,-230 355.141,-230"/>
<text text-anchor="middle" x="418.641" y="-237" font-family="Helvetica,sans-Serif" font-size="10.00">ViennaRNA/string_utils.h</text>
</a>
</g>
</g>
<!-- Node13&#45;&gt;Node15 -->
<g id="edge21" class="edge"><title>Node13&#45;&gt;Node15</title>
<path fill="none" stroke="midnightblue" d="M418.641,-291.475C418.641,-283.08 418.641,-269.981 418.641,-259.163"/>
<polygon fill="midnightblue" stroke="midnightblue" points="422.141,-259.009 418.641,-249.009 415.141,-259.009 422.141,-259.009"/>
</g>
<!-- Node16 -->
<g id="node16" class="node"><title>Node16</title>
<g id="a_node16"><a xlink:href="structure__utils_8h.html" target="_top" xlink:title="Various utility&#45; and helper&#45;functions for secondary structure parsing, converting, etc. ">
<polygon fill="none" stroke="black" points="500.641,-224.5 500.641,-254.5 610.641,-254.5 610.641,-224.5 500.641,-224.5"/>
<text text-anchor="start" x="508.641" y="-242.5" font-family="Helvetica,sans-Serif" font-size="10.00">ViennaRNA/structure</text>
<text text-anchor="middle" x="555.641" y="-231.5" font-family="Helvetica,sans-Serif" font-size="10.00">_utils.h</text>
</a>
</g>
</g>
<!-- Node13&#45;&gt;Node16 -->
<g id="edge23" class="edge"><title>Node13&#45;&gt;Node16</title>
<path fill="none" stroke="midnightblue" d="M438.27,-291.475C457.952,-282.927 488.865,-269.501 514.027,-258.573"/>
<polygon fill="midnightblue" stroke="midnightblue" points="515.575,-261.717 523.353,-254.523 512.786,-255.296 515.575,-261.717"/>
</g>
<!-- Node15&#45;&gt;Node3 -->
<g id="edge22" class="edge"><title>Node15&#45;&gt;Node3</title>
<path fill="none" stroke="midnightblue" d="M412.05,-229.975C405.15,-221.05 394.139,-206.807 385.508,-195.643"/>
<polygon fill="midnightblue" stroke="midnightblue" points="388.105,-193.28 379.219,-187.509 382.567,-197.561 388.105,-193.28"/>
</g>
<!-- Node16&#45;&gt;Node3 -->
<g id="edge25" class="edge"><title>Node16&#45;&gt;Node3</title>
<path fill="none" stroke="midnightblue" d="M512.273,-224.399C480.651,-214.118 438.308,-200.351 408.57,-190.682"/>
<polygon fill="midnightblue" stroke="midnightblue" points="409.594,-187.335 399.002,-187.571 407.43,-193.992 409.594,-187.335"/>
</g>
<!-- Node16&#45;&gt;Node14 -->
<g id="edge24" class="edge"><title>Node16&#45;&gt;Node14</title>
<path fill="none" stroke="midnightblue" d="M563.936,-224.399C568.864,-216.021 575.155,-205.327 580.392,-196.423"/>
<polygon fill="midnightblue" stroke="midnightblue" points="583.495,-198.052 585.548,-187.658 577.461,-194.503 583.495,-198.052"/>
</g>
<!-- Node17&#45;&gt;Node3 -->
<g id="edge32" class="edge"><title>Node17&#45;&gt;Node3</title>
<path fill="none" stroke="midnightblue" d="M692.109,-347.086C684.322,-318.57 662.835,-255.035 619.641,-224 593.864,-205.479 517.472,-193.467 456.399,-186.552"/>
<polygon fill="midnightblue" stroke="midnightblue" points="456.676,-183.062 446.353,-185.445 455.909,-190.019 456.676,-183.062"/>
</g>
<!-- Node17&#45;&gt;Node7 -->
<g id="edge33" class="edge"><title>Node17&#45;&gt;Node7</title>
<path fill="none" stroke="midnightblue" d="M695.034,-347.464C692.642,-311.129 680.835,-213.653 622.641,-168 599.105,-149.536 417.354,-134.374 316.889,-127.301"/>
<polygon fill="midnightblue" stroke="midnightblue" points="317.054,-123.804 306.835,-126.601 316.568,-130.787 317.054,-123.804"/>
</g>
<!-- Node17&#45;&gt;Node9 -->
<g id="edge34" class="edge"><title>Node17&#45;&gt;Node9</title>
<path fill="none" stroke="midnightblue" d="M699.61,-347.143C708.111,-313.256 724.672,-226.735 690.641,-168 682.17,-153.379 666.875,-142.923 652.38,-135.792"/>
<polygon fill="midnightblue" stroke="midnightblue" points="653.605,-132.505 643.051,-131.577 650.722,-138.884 653.605,-132.505"/>
</g>
<!-- Node17&#45;&gt;Node13 -->
<g id="edge29" class="edge"><title>Node17&#45;&gt;Node13</title>
<path fill="none" stroke="midnightblue" d="M644.835,-350.587C594.57,-339.79 518.126,-323.369 468.273,-312.661"/>
<polygon fill="midnightblue" stroke="midnightblue" points="468.877,-309.211 458.365,-310.533 467.407,-316.055 468.877,-309.211"/>
</g>
<!-- Node18 -->
<g id="node18" class="node"><title>Node18</title>
<g id="a_node18"><a xlink:href="energy__par_8h_source.html" target="_top" xlink:title="ViennaRNA/energy_par.h">
<polygon fill="none" stroke="black" points="780.641,-168.5 780.641,-187.5 908.641,-187.5 908.641,-168.5 780.641,-168.5"/>
<text text-anchor="middle" x="844.641" y="-175.5" font-family="Helvetica,sans-Serif" font-size="10.00">ViennaRNA/energy_par.h</text>
</a>
</g>
</g>
<!-- Node17&#45;&gt;Node18 -->
<g id="edge30" class="edge"><title>Node17&#45;&gt;Node18</title>
<path fill="none" stroke="midnightblue" d="M720.64,-347.365C735.235,-338.276 753.336,-325.48 766.641,-311 799.394,-275.354 824.975,-223.739 837.045,-196.832"/>
<polygon fill="midnightblue" stroke="midnightblue" points="840.318,-198.083 841.123,-187.518 833.906,-195.275 840.318,-198.083"/>
</g>
<!-- Node18&#45;&gt;Node4 -->
<g id="edge31" class="edge"><title>Node18&#45;&gt;Node4</title>
<path fill="none" stroke="midnightblue" d="M827.934,-168.363C800.045,-154.322 741.903,-126.646 689.641,-112 616.653,-91.5459 530.875,-79.8492 469.957,-73.5382"/>
<polygon fill="midnightblue" stroke="midnightblue" points="469.943,-70.0191 459.642,-72.4964 469.239,-76.9836 469.943,-70.0191"/>
</g>
<!-- Node19&#45;&gt;Node3 -->
<g id="edge37" class="edge"><title>Node19&#45;&gt;Node3</title>
<path fill="none" stroke="midnightblue" d="M291.242,-347.217C298.061,-321.521 314.296,-266.239 337.641,-224 343.255,-213.842 351.07,-203.548 357.891,-195.374"/>
<polygon fill="midnightblue" stroke="midnightblue" points="360.617,-197.573 364.506,-187.718 355.32,-192.996 360.617,-197.573"/>
</g>
<!-- Node19&#45;&gt;Node7 -->
<g id="edge38" class="edge"><title>Node19&#45;&gt;Node7</title>
<path fill="none" stroke="midnightblue" d="M285.437,-347.295C279.098,-306.433 260.81,-188.551 253.607,-142.12"/>
<polygon fill="midnightblue" stroke="midnightblue" points="257.021,-141.291 252.029,-131.946 250.103,-142.364 257.021,-141.291"/>
</g>
<!-- Node19&#45;&gt;Node13 -->
<g id="edge36" class="edge"><title>Node19&#45;&gt;Node13</title>
<path fill="none" stroke="midnightblue" d="M318.686,-347.399C340.371,-337.55 369.1,-324.501 390.192,-314.922"/>
<polygon fill="midnightblue" stroke="midnightblue" points="391.922,-317.98 399.579,-310.658 389.027,-311.607 391.922,-317.98"/>
</g>
</g>
</svg>
        <g id="navigator" transform="translate(0 0)" fill="#404254">
                <rect fill="#f2f5e9" fill-opacity="0.5" stroke="#606060" stroke-width=".5" x="0" y="0" width="60" height="60"/>
                <use id="zoomplus" xlink:href="#zoomPlus" x="17" y="9" onmousedown="handleZoom(evt,'in')"/>
                <use id="zoomminus" xlink:href="#zoomMin" x="42" y="9" onmousedown="handleZoom(evt,'out')"/>
                <use id="reset" xlink:href="#resetDef" x="30" y="36" onmousedown="handleReset()"/>
                <g id="arrowUp" xlink:href="#dirArrow" transform="translate(30 24)" onmousedown="handlePan(0,-1)">
                  <use xlink:href="#rim" fill="#404040">
                        <set attributeName="fill" to="#808080" begin="arrowUp.mouseover" end="arrowUp.mouseout"/>
                  </use>
                  <path fill="none" stroke="white" stroke-width="1.5" d="M0,-3.0v7 M-2.5,-0.5L0,-3.0L2.5,-0.5"/>
                </g>
                <g id="arrowRight" xlink:href="#dirArrow" transform="rotate(90) translate(36 -43)" onmousedown="handlePan(1,0)">
                  <use xlink:href="#rim" fill="#404040">
                        <set attributeName="fill" to="#808080" begin="arrowRight.mouseover" end="arrowRight.mouseout"/>
                  </use>
                  <path fill="none" stroke="white" stroke-width="1.5" d="M0,-3.0v7 M-2.5,-0.5L0,-3.0L2.5,-0.5"/>
                </g>
                <g id="arrowDown" xlink:href="#dirArrow" transform="rotate(180) translate(-30 -48)" onmousedown="handlePan(0,1)">
                  <use xlink:href="#rim" fill="#404040">
                        <set attributeName="fill" to="#808080" begin="arrowDown.mouseover" end="arrowDown.mouseout"/>
                  </use>
                  <path fill="none" stroke="white" stroke-width="1.5" d="M0,-3.0v7 M-2.5,-0.5L0,-3.0L2.5,-0.5"/>
                </g>
                <g id="arrowLeft" xlink:href="#dirArrow" transform="rotate(270) translate(-36 17)" onmousedown="handlePan(-1,0)">
                  <use xlink:href="#rim" fill="#404040">
                        <set attributeName="fill" to="#808080" begin="arrowLeft.mouseover" end="arrowLeft.mouseout"/>
                  </use>
                  <path fill="none" stroke="white" stroke-width="1.5" d="M0,-3.0v7 M-2.5,-0.5L0,-3.0L2.5,-0.5"/>
                </g>
        </g>
        <svg viewBox="0 0 15 15" width="100%" height="30px" preserveAspectRatio="xMaxYMin meet">
         <g id="arrow_out" transform="scale(0.3 0.3)">
          <a xlink:href="loop__energies_8h__incl_org.svg" target="_base">
           <rect id="button" ry="5" rx="5" y="6" x="6" height="38" width="38"
                fill="#f2f5e9" fill-opacity="0.5" stroke="#606060" stroke-width="1.0"/>
           <path id="arrow"
             d="M 11.500037,31.436501 C 11.940474,20.09759 22.043105,11.32322 32.158766,21.979434 L 37.068811,17.246167 C 37.068811,17.246167 37.088388,32 37.088388,32 L 22.160133,31.978069 C 22.160133,31.978069 26.997745,27.140456 26.997745,27.140456 C 18.528582,18.264221 13.291696,25.230495 11.500037,31.436501 z"
             style="fill:#404040;"/>
          </a>
         </g>
        </svg>
</svg>
