<?xml version="1.0" encoding="UTF-8" standalone="no"?>
<!DOCTYPE svg PUBLIC "-//W3C//DTD SVG 1.1//EN"
 "http://www.w3.org/Graphics/SVG/1.1/DTD/svg11.dtd">
<!-- Generated by graphviz version 2.38.0 (20140413.2041)
 -->
<!-- Title: ViennaRNA/mfe.h Pages: 1 -->
<svg width="470pt" height="84pt"
 viewBox="0.00 0.00 470.00 84.00" xmlns="http://www.w3.org/2000/svg" xmlns:xlink="http://www.w3.org/1999/xlink">
<g id="graph0" class="graph" transform="scale(1 1) rotate(0) translate(4 80)">
<title>ViennaRNA/mfe.h</title>
<!-- Node1 -->
<g id="node1" class="node"><title>Node1</title>
<polygon fill="#bfbfbf" stroke="black" points="187.5,-56.5 187.5,-75.5 283.5,-75.5 283.5,-56.5 187.5,-56.5"/>
<text text-anchor="middle" x="235.5" y="-63.5" font-family="Helvetica,sans-Serif" font-size="10.00">ViennaRNA/mfe.h</text>
</g>
<!-- Node2 -->
<g id="node2" class="node"><title>Node2</title>
<g id="a_node2"><a xlink:href="alifold_8h.html" target="_top" xlink:title="compute various properties (consensus MFE structures, partition function, Boltzmann distributed stoch...">
<polygon fill="none" stroke="black" points="0,-0.5 0,-19.5 105,-19.5 105,-0.5 0,-0.5"/>
<text text-anchor="middle" x="52.5" y="-7.5" font-family="Helvetica,sans-Serif" font-size="10.00">ViennaRNA/alifold.h</text>
</a>
</g>
</g>
<!-- Node1&#45;&gt;Node2 -->
<g id="edge1" class="edge"><title>Node1&#45;&gt;Node2</title>
<path fill="none" stroke="midnightblue" d="M196.757,-53.5677C162.235,-43.381 112.495,-28.7034 81.3612,-19.5164"/>
<polygon fill="midnightblue" stroke="midnightblue" points="195.921,-56.9702 206.503,-56.4435 197.903,-50.2564 195.921,-56.9702"/>
</g>
<!-- Node3 -->
<g id="node3" class="node"><title>Node3</title>
<g id="a_node3"><a xlink:href="cofold_8h.html" target="_top" xlink:title="MFE version of cofolding routines. ">
<polygon fill="none" stroke="black" points="123.5,-0.5 123.5,-19.5 229.5,-19.5 229.5,-0.5 123.5,-0.5"/>
<text text-anchor="middle" x="176.5" y="-7.5" font-family="Helvetica,sans-Serif" font-size="10.00">ViennaRNA/cofold.h</text>
</a>
</g>
</g>
<!-- Node1&#45;&gt;Node3 -->
<g id="edge2" class="edge"><title>Node1&#45;&gt;Node3</title>
<path fill="none" stroke="midnightblue" d="M218.605,-49.5372C208.085,-39.9087 194.931,-27.8694 186.152,-19.8339"/>
<polygon fill="midnightblue" stroke="midnightblue" points="216.281,-52.1542 226.021,-56.324 221.007,-46.9905 216.281,-52.1542"/>
</g>
<!-- Node4 -->
<g id="node4" class="node"><title>Node4</title>
<g id="a_node4"><a xlink:href="fold_8h.html" target="_top" xlink:title="MFE calculations for single RNA sequences. ">
<polygon fill="none" stroke="black" points="248,-0.5 248,-19.5 343,-19.5 343,-0.5 248,-0.5"/>
<text text-anchor="middle" x="295.5" y="-7.5" font-family="Helvetica,sans-Serif" font-size="10.00">ViennaRNA/fold.h</text>
</a>
</g>
</g>
<!-- Node1&#45;&gt;Node4 -->
<g id="edge3" class="edge"><title>Node1&#45;&gt;Node4</title>
<path fill="none" stroke="midnightblue" d="M252.681,-49.5372C263.379,-39.9087 276.756,-27.8694 285.685,-19.8339"/>
<polygon fill="midnightblue" stroke="midnightblue" points="250.232,-47.0327 245.14,-56.324 254.914,-52.2358 250.232,-47.0327"/>
</g>
<!-- Node5 -->
<g id="node5" class="node"><title>Node5</title>
<g id="a_node5"><a xlink:href="Lfold_8h.html" target="_top" xlink:title="Predicting local MFE structures of large sequences. ">
<polygon fill="none" stroke="black" points="361,-0.5 361,-19.5 462,-19.5 462,-0.5 361,-0.5"/>
<text text-anchor="middle" x="411.5" y="-7.5" font-family="Helvetica,sans-Serif" font-size="10.00">ViennaRNA/Lfold.h</text>
</a>
</g>
</g>
<!-- Node1&#45;&gt;Node5 -->
<g id="edge4" class="edge"><title>Node1&#45;&gt;Node5</title>
<path fill="none" stroke="midnightblue" d="M273.189,-53.4363C306.372,-43.2551 353.928,-28.664 383.743,-19.5164"/>
<polygon fill="midnightblue" stroke="midnightblue" points="271.921,-50.1642 263.388,-56.4435 273.975,-56.8563 271.921,-50.1642"/>
</g>
</g>
</svg>
