<?xml version="1.0" encoding="UTF-8" standalone="no"?>
<!DOCTYPE svg PUBLIC "-//W3C//DTD SVG 1.1//EN"
 "http://www.w3.org/Graphics/SVG/1.1/DTD/svg11.dtd">
<!-- Generated by graphviz version 2.38.0 (20140413.2041)
 -->
<!-- Title: ViennaRNA/multibranch_loops.h Pages: 1 -->
<svg width="500pt" height="386pt"
 viewBox="0.00 0.00 499.50 386.00" xmlns="http://www.w3.org/2000/svg" xmlns:xlink="http://www.w3.org/1999/xlink">
<g id="graph0" class="graph" transform="scale(1 1) rotate(0) translate(4 382)">
<title>ViennaRNA/multibranch_loops.h</title>
<!-- Node1 -->
<g id="node1" class="node"><title>Node1</title>
<polygon fill="#bfbfbf" stroke="black" points="330.5,-347.5 330.5,-377.5 452.5,-377.5 452.5,-347.5 330.5,-347.5"/>
<text text-anchor="start" x="338.5" y="-365.5" font-family="Helvetica,sans-Serif" font-size="10.00">ViennaRNA/multibranch</text>
<text text-anchor="middle" x="391.5" y="-354.5" font-family="Helvetica,sans-Serif" font-size="10.00">_loops.h</text>
</g>
<!-- Node2 -->
<g id="node2" class="node"><title>Node2</title>
<g id="a_node2"><a xlink:href="utils_8h.html" target="_top" xlink:title="General utility&#45; and helper&#45;functions used throughout the ViennaRNA Package. ">
<polygon fill="none" stroke="black" points="158.5,-291.5 158.5,-310.5 256.5,-310.5 256.5,-291.5 158.5,-291.5"/>
<text text-anchor="middle" x="207.5" y="-298.5" font-family="Helvetica,sans-Serif" font-size="10.00">ViennaRNA/utils.h</text>
</a>
</g>
</g>
<!-- Node1&#45;&gt;Node2 -->
<g id="edge1" class="edge"><title>Node1&#45;&gt;Node2</title>
<path fill="none" stroke="midnightblue" d="M347.895,-347.399C316.1,-337.118 273.526,-323.351 243.625,-313.682"/>
<polygon fill="midnightblue" stroke="midnightblue" points="244.597,-310.318 234.005,-310.571 242.443,-316.978 244.597,-310.318"/>
</g>
<!-- Node4 -->
<g id="node4" class="node"><title>Node4</title>
<g id="a_node4"><a xlink:href="data__structures_8h.html" target="_top" xlink:title="ViennaRNA/data_structures.h">
<polygon fill="none" stroke="black" points="184,-168.5 184,-187.5 331,-187.5 331,-168.5 184,-168.5"/>
<text text-anchor="middle" x="257.5" y="-175.5" font-family="Helvetica,sans-Serif" font-size="10.00">ViennaRNA/data_structures.h</text>
</a>
</g>
</g>
<!-- Node1&#45;&gt;Node4 -->
<g id="edge20" class="edge"><title>Node1&#45;&gt;Node4</title>
<path fill="none" stroke="midnightblue" d="M393.846,-347.253C397.471,-320.129 401.293,-260.526 372.5,-224 359.613,-207.652 339.958,-197.231 320.524,-190.594"/>
<polygon fill="midnightblue" stroke="midnightblue" points="321.314,-187.174 310.726,-187.543 319.233,-193.858 321.314,-187.174"/>
</g>
<!-- Node8 -->
<g id="node8" class="node"><title>Node8</title>
<g id="a_node8"><a xlink:href="params_8h.html" target="_top" xlink:title="ViennaRNA/params.h">
<polygon fill="none" stroke="black" points="373.5,-112.5 373.5,-131.5 485.5,-131.5 485.5,-112.5 373.5,-112.5"/>
<text text-anchor="middle" x="429.5" y="-119.5" font-family="Helvetica,sans-Serif" font-size="10.00">ViennaRNA/params.h</text>
</a>
</g>
</g>
<!-- Node1&#45;&gt;Node8 -->
<g id="edge21" class="edge"><title>Node1&#45;&gt;Node8</title>
<path fill="none" stroke="midnightblue" d="M397.627,-347.185C401.637,-337.219 406.644,-323.523 409.5,-311 423.338,-250.312 427.649,-176.37 428.955,-142.114"/>
<polygon fill="midnightblue" stroke="midnightblue" points="432.465,-141.851 429.302,-131.74 425.469,-141.617 432.465,-141.851"/>
</g>
<!-- Node3 -->
<g id="node3" class="node"><title>Node3</title>
<polygon fill="none" stroke="#bfbfbf" points="47.5,-168.5 47.5,-187.5 93.5,-187.5 93.5,-168.5 47.5,-168.5"/>
<text text-anchor="middle" x="70.5" y="-175.5" font-family="Helvetica,sans-Serif" font-size="10.00">stdio.h</text>
</g>
<!-- Node2&#45;&gt;Node3 -->
<g id="edge2" class="edge"><title>Node2&#45;&gt;Node3</title>
<path fill="none" stroke="midnightblue" d="M158.35,-299.196C124.9,-295.758 82.8,-285.148 60.5,-255 48.1788,-238.343 54.5425,-213.837 61.4215,-197.19"/>
<polygon fill="midnightblue" stroke="midnightblue" points="64.6558,-198.532 65.6088,-187.981 58.2835,-195.635 64.6558,-198.532"/>
</g>
<!-- Node2&#45;&gt;Node4 -->
<g id="edge3" class="edge"><title>Node2&#45;&gt;Node4</title>
<path fill="none" stroke="midnightblue" d="M208.65,-291.232C210.777,-276.729 216.09,-247.056 226.5,-224 231.03,-213.967 237.822,-203.785 243.895,-195.649"/>
<polygon fill="midnightblue" stroke="midnightblue" points="246.68,-197.769 250.061,-187.729 241.156,-193.469 246.68,-197.769"/>
</g>
<!-- Node11 -->
<g id="node11" class="node"><title>Node11</title>
<g id="a_node11"><a xlink:href="string__utils_8h.html" target="_top" xlink:title="General utility&#45; and helper&#45;functions for RNA sequence and structure strings used throughout the Vien...">
<polygon fill="none" stroke="black" points="236,-230 236,-249 363,-249 363,-230 236,-230"/>
<text text-anchor="middle" x="299.5" y="-237" font-family="Helvetica,sans-Serif" font-size="10.00">ViennaRNA/string_utils.h</text>
</a>
</g>
</g>
<!-- Node2&#45;&gt;Node11 -->
<g id="edge15" class="edge"><title>Node2&#45;&gt;Node11</title>
<path fill="none" stroke="midnightblue" d="M220.681,-291.475C235.574,-281.843 260.044,-266.017 277.773,-254.552"/>
<polygon fill="midnightblue" stroke="midnightblue" points="279.847,-257.379 286.343,-249.009 276.045,-251.501 279.847,-257.379"/>
</g>
<!-- Node12 -->
<g id="node12" class="node"><title>Node12</title>
<g id="a_node12"><a xlink:href="structure__utils_8h.html" target="_top" xlink:title="Various utility&#45; and helper&#45;functions for secondary structure parsing, converting, etc. ">
<polygon fill="none" stroke="black" points="69.5,-224.5 69.5,-254.5 179.5,-254.5 179.5,-224.5 69.5,-224.5"/>
<text text-anchor="start" x="77.5" y="-242.5" font-family="Helvetica,sans-Serif" font-size="10.00">ViennaRNA/structure</text>
<text text-anchor="middle" x="124.5" y="-231.5" font-family="Helvetica,sans-Serif" font-size="10.00">_utils.h</text>
</a>
</g>
</g>
<!-- Node2&#45;&gt;Node12 -->
<g id="edge17" class="edge"><title>Node2&#45;&gt;Node12</title>
<path fill="none" stroke="midnightblue" d="M195.608,-291.475C184.367,-283.417 167.078,-271.023 152.363,-260.474"/>
<polygon fill="midnightblue" stroke="midnightblue" points="154.228,-257.505 144.061,-254.523 150.15,-263.194 154.228,-257.505"/>
</g>
<!-- Node5 -->
<g id="node5" class="node"><title>Node5</title>
<g id="a_node5"><a xlink:href="energy__const_8h.html" target="_top" xlink:title="ViennaRNA/energy_const.h">
<polygon fill="none" stroke="black" points="229.5,-56.5 229.5,-75.5 367.5,-75.5 367.5,-56.5 229.5,-56.5"/>
<text text-anchor="middle" x="298.5" y="-63.5" font-family="Helvetica,sans-Serif" font-size="10.00">ViennaRNA/energy_const.h</text>
</a>
</g>
</g>
<!-- Node4&#45;&gt;Node5 -->
<g id="edge4" class="edge"><title>Node4&#45;&gt;Node5</title>
<path fill="none" stroke="midnightblue" d="M265.219,-168.39C272.457,-159.808 282.969,-145.931 288.5,-132 294.365,-117.226 296.809,-99.298 297.817,-86.0152"/>
<polygon fill="midnightblue" stroke="midnightblue" points="301.328,-85.912 298.384,-75.7344 294.339,-85.5265 301.328,-85.912"/>
</g>
<!-- Node7 -->
<g id="node7" class="node"><title>Node7</title>
<g id="a_node7"><a xlink:href="model_8h.html" target="_top" xlink:title="The model details data structure and its corresponding modifiers. ">
<polygon fill="none" stroke="black" points="385.5,-56.5 385.5,-75.5 491.5,-75.5 491.5,-56.5 385.5,-56.5"/>
<text text-anchor="middle" x="438.5" y="-63.5" font-family="Helvetica,sans-Serif" font-size="10.00">ViennaRNA/model.h</text>
</a>
</g>
</g>
<!-- Node4&#45;&gt;Node7 -->
<g id="edge6" class="edge"><title>Node4&#45;&gt;Node7</title>
<path fill="none" stroke="midnightblue" d="M271.703,-168.368C302.895,-149.412 377.617,-104.001 415.558,-80.9424"/>
<polygon fill="midnightblue" stroke="midnightblue" points="417.635,-83.7759 424.363,-75.5914 414,-77.794 417.635,-83.7759"/>
</g>
<!-- Node4&#45;&gt;Node8 -->
<g id="edge7" class="edge"><title>Node4&#45;&gt;Node8</title>
<path fill="none" stroke="midnightblue" d="M279.665,-168.444C306.96,-159.241 353.536,-144.562 387.602,-134.388"/>
<polygon fill="midnightblue" stroke="midnightblue" points="388.7,-137.713 397.294,-131.516 386.711,-131.001 388.7,-137.713"/>
</g>
<!-- Node9 -->
<g id="node9" class="node"><title>Node9</title>
<g id="a_node9"><a xlink:href="dp__matrices_8h.html" target="_top" xlink:title="ViennaRNA/dp_matrices.h">
<polygon fill="none" stroke="black" points="0,-112.5 0,-131.5 133,-131.5 133,-112.5 0,-112.5"/>
<text text-anchor="middle" x="66.5" y="-119.5" font-family="Helvetica,sans-Serif" font-size="10.00">ViennaRNA/dp_matrices.h</text>
</a>
</g>
</g>
<!-- Node4&#45;&gt;Node9 -->
<g id="edge11" class="edge"><title>Node4&#45;&gt;Node9</title>
<path fill="none" stroke="midnightblue" d="M222.147,-168.444C187.577,-159.241 135.478,-144.562 101.154,-134.388"/>
<polygon fill="midnightblue" stroke="midnightblue" points="102.126,-131.026 91.543,-131.516 100.122,-137.733 102.126,-131.026"/>
</g>
<!-- Node10 -->
<g id="node10" class="node"><title>Node10</title>
<g id="a_node10"><a xlink:href="constraints_8h.html" target="_top" xlink:title="ViennaRNA/constraints.h">
<polygon fill="none" stroke="black" points="151.5,-112.5 151.5,-131.5 279.5,-131.5 279.5,-112.5 151.5,-112.5"/>
<text text-anchor="middle" x="215.5" y="-119.5" font-family="Helvetica,sans-Serif" font-size="10.00">ViennaRNA/constraints.h</text>
</a>
</g>
</g>
<!-- Node4&#45;&gt;Node10 -->
<g id="edge13" class="edge"><title>Node4&#45;&gt;Node10</title>
<path fill="none" stroke="midnightblue" d="M245.398,-168.083C237.934,-160.534 228.957,-149.495 222.56,-140.23"/>
<polygon fill="midnightblue" stroke="midnightblue" points="225.491,-138.316 217.175,-131.751 219.582,-142.069 225.491,-138.316"/>
</g>
<!-- Node6 -->
<g id="node6" class="node"><title>Node6</title>
<polygon fill="none" stroke="#bfbfbf" points="274.5,-0.5 274.5,-19.5 322.5,-19.5 322.5,-0.5 274.5,-0.5"/>
<text text-anchor="middle" x="298.5" y="-7.5" font-family="Helvetica,sans-Serif" font-size="10.00">limits.h</text>
</g>
<!-- Node5&#45;&gt;Node6 -->
<g id="edge5" class="edge"><title>Node5&#45;&gt;Node6</title>
<path fill="none" stroke="midnightblue" d="M298.5,-56.083C298.5,-49.0059 298.5,-38.8611 298.5,-29.9865"/>
<polygon fill="midnightblue" stroke="midnightblue" points="302,-29.751 298.5,-19.7511 295,-29.7511 302,-29.751"/>
</g>
<!-- Node8&#45;&gt;Node4 -->
<g id="edge9" class="edge"><title>Node8&#45;&gt;Node4</title>
<path fill="none" stroke="midnightblue" d="M407.454,-131.516C380.215,-140.703 333.649,-155.381 299.547,-165.568"/>
<polygon fill="midnightblue" stroke="midnightblue" points="298.436,-162.246 289.843,-168.444 300.425,-168.958 298.436,-162.246"/>
</g>
<!-- Node8&#45;&gt;Node5 -->
<g id="edge8" class="edge"><title>Node8&#45;&gt;Node5</title>
<path fill="none" stroke="midnightblue" d="M408.743,-112.444C387.184,-103.557 353.237,-89.5632 328.706,-79.4514"/>
<polygon fill="midnightblue" stroke="midnightblue" points="329.739,-76.0917 319.16,-75.5164 327.072,-82.5634 329.739,-76.0917"/>
</g>
<!-- Node8&#45;&gt;Node7 -->
<g id="edge10" class="edge"><title>Node8&#45;&gt;Node7</title>
<path fill="none" stroke="midnightblue" d="M430.986,-112.083C432.179,-104.927 433.894,-94.6353 435.385,-85.6911"/>
<polygon fill="midnightblue" stroke="midnightblue" points="438.85,-86.1904 437.041,-75.7511 431.945,-85.0396 438.85,-86.1904"/>
</g>
<!-- Node9&#45;&gt;Node4 -->
<g id="edge12" class="edge"><title>Node9&#45;&gt;Node4</title>
<path fill="none" stroke="midnightblue" d="M101.703,-131.516C136.222,-140.703 188.321,-155.381 222.696,-165.568"/>
<polygon fill="midnightblue" stroke="midnightblue" points="221.741,-168.935 232.324,-168.444 223.744,-162.228 221.741,-168.935"/>
</g>
<!-- Node10&#45;&gt;Node4 -->
<g id="edge14" class="edge"><title>Node10&#45;&gt;Node4</title>
<path fill="none" stroke="midnightblue" d="M227.437,-131.751C234.879,-139.248 243.864,-150.275 250.298,-159.566"/>
<polygon fill="midnightblue" stroke="midnightblue" points="247.402,-161.534 255.731,-168.083 253.304,-157.77 247.402,-161.534"/>
</g>
<!-- Node11&#45;&gt;Node4 -->
<g id="edge16" class="edge"><title>Node11&#45;&gt;Node4</title>
<path fill="none" stroke="midnightblue" d="M293.482,-229.975C287.245,-221.138 277.327,-207.089 269.482,-195.975"/>
<polygon fill="midnightblue" stroke="midnightblue" points="272.133,-193.66 263.506,-187.509 266.414,-197.697 272.133,-193.66"/>
</g>
<!-- Node12&#45;&gt;Node3 -->
<g id="edge18" class="edge"><title>Node12&#45;&gt;Node3</title>
<path fill="none" stroke="midnightblue" d="M111.703,-224.399C103.775,-215.664 93.5635,-204.413 85.2899,-195.296"/>
<polygon fill="midnightblue" stroke="midnightblue" points="87.6698,-192.711 78.3575,-187.658 82.4863,-197.415 87.6698,-192.711"/>
</g>
<!-- Node12&#45;&gt;Node4 -->
<g id="edge19" class="edge"><title>Node12&#45;&gt;Node4</title>
<path fill="none" stroke="midnightblue" d="M156.019,-224.399C178.135,-214.505 207.467,-201.383 228.906,-191.792"/>
<polygon fill="midnightblue" stroke="midnightblue" points="230.448,-194.936 238.147,-187.658 227.59,-188.547 230.448,-194.936"/>
</g>
</g>
</svg>
