<?xml version="1.0" encoding="UTF-8" standalone="no"?>
<!DOCTYPE svg PUBLIC "-//W3C//DTD SVG 1.1//EN"
 "http://www.w3.org/Graphics/SVG/1.1/DTD/svg11.dtd">
<!-- Generated by graphviz version 2.38.0 (20140413.2041)
 -->
<!-- Title: ViennaRNA/naview.h Pages: 1 -->
<svg width="147pt" height="196pt"
 viewBox="0.00 0.00 147.00 196.00" xmlns="http://www.w3.org/2000/svg" xmlns:xlink="http://www.w3.org/1999/xlink">
<g id="graph0" class="graph" transform="scale(1 1) rotate(0) translate(4 192)">
<title>ViennaRNA/naview.h</title>
<!-- Node1 -->
<g id="node1" class="node"><title>Node1</title>
<polygon fill="#bfbfbf" stroke="black" points="14.5,-168.5 14.5,-187.5 124.5,-187.5 124.5,-168.5 14.5,-168.5"/>
<text text-anchor="middle" x="69.5" y="-175.5" font-family="Helvetica,sans-Serif" font-size="10.00">ViennaRNA/naview.h</text>
</g>
<!-- Node2 -->
<g id="node2" class="node"><title>Node2</title>
<g id="a_node2"><a xlink:href="plot__layouts_8h.html" target="_top" xlink:title="Secondary structure plot layout algorithms. ">
<polygon fill="none" stroke="black" points="3.5,-112.5 3.5,-131.5 135.5,-131.5 135.5,-112.5 3.5,-112.5"/>
<text text-anchor="middle" x="69.5" y="-119.5" font-family="Helvetica,sans-Serif" font-size="10.00">ViennaRNA/plot_layouts.h</text>
</a>
</g>
</g>
<!-- Node1&#45;&gt;Node2 -->
<g id="edge1" class="edge"><title>Node1&#45;&gt;Node2</title>
<path fill="none" stroke="midnightblue" d="M69.5,-157.805C69.5,-148.91 69.5,-138.78 69.5,-131.751"/>
<polygon fill="midnightblue" stroke="midnightblue" points="66.0001,-158.083 69.5,-168.083 73.0001,-158.083 66.0001,-158.083"/>
</g>
<!-- Node3 -->
<g id="node3" class="node"><title>Node3</title>
<g id="a_node3"><a xlink:href="plot__structure_8h.html" target="_top" xlink:title="Various functions for plotting RNA secondary structures. ">
<polygon fill="none" stroke="black" points="0,-56.5 0,-75.5 139,-75.5 139,-56.5 0,-56.5"/>
<text text-anchor="middle" x="69.5" y="-63.5" font-family="Helvetica,sans-Serif" font-size="10.00">ViennaRNA/plot_structure.h</text>
</a>
</g>
</g>
<!-- Node2&#45;&gt;Node3 -->
<g id="edge2" class="edge"><title>Node2&#45;&gt;Node3</title>
<path fill="none" stroke="midnightblue" d="M69.5,-101.805C69.5,-92.9102 69.5,-82.7798 69.5,-75.7511"/>
<polygon fill="midnightblue" stroke="midnightblue" points="66.0001,-102.083 69.5,-112.083 73.0001,-102.083 66.0001,-102.083"/>
</g>
<!-- Node4 -->
<g id="node4" class="node"><title>Node4</title>
<g id="a_node4"><a xlink:href="PS__dot_8h.html" target="_top" xlink:title="Various functions for plotting RNA secondary structures, dot&#45;plots and other visualizations. ">
<polygon fill="none" stroke="black" points="13.5,-0.5 13.5,-19.5 125.5,-19.5 125.5,-0.5 13.5,-0.5"/>
<text text-anchor="middle" x="69.5" y="-7.5" font-family="Helvetica,sans-Serif" font-size="10.00">ViennaRNA/PS_dot.h</text>
</a>
</g>
</g>
<!-- Node3&#45;&gt;Node4 -->
<g id="edge3" class="edge"><title>Node3&#45;&gt;Node4</title>
<path fill="none" stroke="midnightblue" d="M69.5,-45.8045C69.5,-36.9102 69.5,-26.7798 69.5,-19.7511"/>
<polygon fill="midnightblue" stroke="midnightblue" points="66.0001,-46.083 69.5,-56.083 73.0001,-46.083 66.0001,-46.083"/>
</g>
</g>
</svg>
