<?xml version="1.0" encoding="UTF-8" standalone="no"?>
<!DOCTYPE svg PUBLIC "-//W3C//DTD SVG 1.1//EN"
 "http://www.w3.org/Graphics/SVG/1.1/DTD/svg11.dtd">
<!-- Generated by graphviz version 2.38.0 (20140413.2041)
 -->
<!-- Title: ViennaRNA/params.h Pages: 1 -->
<svg width="568pt" height="196pt"
 viewBox="0.00 0.00 568.00 196.00" xmlns="http://www.w3.org/2000/svg" xmlns:xlink="http://www.w3.org/1999/xlink">
<g id="graph0" class="graph" transform="scale(1 1) rotate(0) translate(4 192)">
<title>ViennaRNA/params.h</title>
<!-- Node1 -->
<g id="node1" class="node"><title>Node1</title>
<polygon fill="#bfbfbf" stroke="black" points="226,-168.5 226,-187.5 338,-187.5 338,-168.5 226,-168.5"/>
<text text-anchor="middle" x="282" y="-175.5" font-family="Helvetica,sans-Serif" font-size="10.00">ViennaRNA/params.h</text>
</g>
<!-- Node2 -->
<g id="node2" class="node"><title>Node2</title>
<g id="a_node2"><a xlink:href="energy__const_8h.html" target="_top" xlink:title="ViennaRNA/energy_const.h">
<polygon fill="none" stroke="black" points="0,-56.5 0,-75.5 138,-75.5 138,-56.5 0,-56.5"/>
<text text-anchor="middle" x="69" y="-63.5" font-family="Helvetica,sans-Serif" font-size="10.00">ViennaRNA/energy_const.h</text>
</a>
</g>
</g>
<!-- Node1&#45;&gt;Node2 -->
<g id="edge1" class="edge"><title>Node1&#45;&gt;Node2</title>
<path fill="none" stroke="midnightblue" d="M265.286,-168.368C228.191,-149.211 138.778,-103.036 94.5932,-80.2172"/>
<polygon fill="midnightblue" stroke="midnightblue" points="96.1272,-77.0702 85.6361,-75.5914 92.9152,-83.2898 96.1272,-77.0702"/>
</g>
<!-- Node4 -->
<g id="node4" class="node"><title>Node4</title>
<g id="a_node4"><a xlink:href="data__structures_8h.html" target="_top" xlink:title="ViennaRNA/data_structures.h">
<polygon fill="none" stroke="black" points="264.5,-112.5 264.5,-131.5 411.5,-131.5 411.5,-112.5 264.5,-112.5"/>
<text text-anchor="middle" x="338" y="-119.5" font-family="Helvetica,sans-Serif" font-size="10.00">ViennaRNA/data_structures.h</text>
</a>
</g>
</g>
<!-- Node1&#45;&gt;Node4 -->
<g id="edge3" class="edge"><title>Node1&#45;&gt;Node4</title>
<path fill="none" stroke="midnightblue" d="M286.081,-168.083C292.772,-159.984 305.012,-147.866 316.058,-138.233"/>
<polygon fill="midnightblue" stroke="midnightblue" points="318.377,-140.856 323.794,-131.751 313.881,-135.491 318.377,-140.856"/>
</g>
<!-- Node5 -->
<g id="node5" class="node"><title>Node5</title>
<g id="a_node5"><a xlink:href="model_8h.html" target="_top" xlink:title="The model details data structure and its corresponding modifiers. ">
<polygon fill="none" stroke="black" points="156,-56.5 156,-75.5 262,-75.5 262,-56.5 156,-56.5"/>
<text text-anchor="middle" x="209" y="-63.5" font-family="Helvetica,sans-Serif" font-size="10.00">ViennaRNA/model.h</text>
</a>
</g>
</g>
<!-- Node1&#45;&gt;Node5 -->
<g id="edge11" class="edge"><title>Node1&#45;&gt;Node5</title>
<path fill="none" stroke="midnightblue" d="M276.272,-168.368C264.225,-150.215 236.077,-107.802 220.275,-83.9902"/>
<polygon fill="midnightblue" stroke="midnightblue" points="223.147,-81.9882 214.702,-75.5914 217.315,-85.8589 223.147,-81.9882"/>
</g>
<!-- Node3 -->
<g id="node3" class="node"><title>Node3</title>
<polygon fill="none" stroke="#bfbfbf" points="45,-0.5 45,-19.5 93,-19.5 93,-0.5 45,-0.5"/>
<text text-anchor="middle" x="69" y="-7.5" font-family="Helvetica,sans-Serif" font-size="10.00">limits.h</text>
</g>
<!-- Node2&#45;&gt;Node3 -->
<g id="edge2" class="edge"><title>Node2&#45;&gt;Node3</title>
<path fill="none" stroke="midnightblue" d="M69,-56.083C69,-49.0059 69,-38.8611 69,-29.9865"/>
<polygon fill="midnightblue" stroke="midnightblue" points="72.5001,-29.751 69,-19.7511 65.5001,-29.7511 72.5001,-29.751"/>
</g>
<!-- Node4&#45;&gt;Node1 -->
<g id="edge6" class="edge"><title>Node4&#45;&gt;Node1</title>
<path fill="none" stroke="midnightblue" d="M333.988,-131.834C327.3,-139.948 314.981,-152.145 303.881,-161.82"/>
<polygon fill="midnightblue" stroke="midnightblue" points="301.533,-159.221 296.112,-168.324 306.027,-164.588 301.533,-159.221"/>
</g>
<!-- Node4&#45;&gt;Node2 -->
<g id="edge4" class="edge"><title>Node4&#45;&gt;Node2</title>
<path fill="none" stroke="midnightblue" d="M295.376,-112.444C248.253,-102.984 172.308,-87.7384 121.541,-77.5472"/>
<polygon fill="midnightblue" stroke="midnightblue" points="121.918,-74.0531 111.424,-75.5164 120.54,-80.9162 121.918,-74.0531"/>
</g>
<!-- Node4&#45;&gt;Node5 -->
<g id="edge5" class="edge"><title>Node4&#45;&gt;Node5</title>
<path fill="none" stroke="midnightblue" d="M317.56,-112.444C296.33,-103.557 262.901,-89.5632 238.745,-79.4514"/>
<polygon fill="midnightblue" stroke="midnightblue" points="239.921,-76.1493 229.345,-75.5164 237.218,-82.6064 239.921,-76.1493"/>
</g>
<!-- Node6 -->
<g id="node6" class="node"><title>Node6</title>
<g id="a_node6"><a xlink:href="dp__matrices_8h.html" target="_top" xlink:title="ViennaRNA/dp_matrices.h">
<polygon fill="none" stroke="black" points="280.5,-56.5 280.5,-75.5 413.5,-75.5 413.5,-56.5 280.5,-56.5"/>
<text text-anchor="middle" x="347" y="-63.5" font-family="Helvetica,sans-Serif" font-size="10.00">ViennaRNA/dp_matrices.h</text>
</a>
</g>
</g>
<!-- Node4&#45;&gt;Node6 -->
<g id="edge7" class="edge"><title>Node4&#45;&gt;Node6</title>
<path fill="none" stroke="midnightblue" d="M334.32,-112.083C333.999,-104.849 335.316,-94.4087 337.498,-85.3968"/>
<polygon fill="midnightblue" stroke="midnightblue" points="340.871,-86.3359 340.41,-75.7511 334.169,-84.3126 340.871,-86.3359"/>
</g>
<!-- Node7 -->
<g id="node7" class="node"><title>Node7</title>
<g id="a_node7"><a xlink:href="constraints_8h.html" target="_top" xlink:title="ViennaRNA/constraints.h">
<polygon fill="none" stroke="black" points="432,-56.5 432,-75.5 560,-75.5 560,-56.5 432,-56.5"/>
<text text-anchor="middle" x="496" y="-63.5" font-family="Helvetica,sans-Serif" font-size="10.00">ViennaRNA/constraints.h</text>
</a>
</g>
</g>
<!-- Node4&#45;&gt;Node7 -->
<g id="edge9" class="edge"><title>Node4&#45;&gt;Node7</title>
<path fill="none" stroke="midnightblue" d="M357.947,-112.444C382.641,-103.32 424.893,-88.8133 456.242,-78.6509"/>
<polygon fill="midnightblue" stroke="midnightblue" points="457.551,-81.9068 466.002,-75.5164 455.41,-75.2421 457.551,-81.9068"/>
</g>
<!-- Node6&#45;&gt;Node4 -->
<g id="edge8" class="edge"><title>Node6&#45;&gt;Node4</title>
<path fill="none" stroke="midnightblue" d="M350.672,-75.7511C351.018,-82.936 349.72,-93.362 347.552,-102.396"/>
<polygon fill="midnightblue" stroke="midnightblue" points="344.167,-101.499 344.652,-112.083 350.873,-103.506 344.167,-101.499"/>
</g>
<!-- Node7&#45;&gt;Node4 -->
<g id="edge10" class="edge"><title>Node7&#45;&gt;Node4</title>
<path fill="none" stroke="midnightblue" d="M476.162,-75.5164C451.518,-84.6246 409.277,-99.1294 377.895,-109.304"/>
<polygon fill="midnightblue" stroke="midnightblue" points="376.575,-106.053 368.124,-112.444 378.716,-112.717 376.575,-106.053"/>
</g>
</g>
</svg>
