<?xml version="1.0" encoding="UTF-8" standalone="no"?>
<!DOCTYPE svg PUBLIC "-//W3C//DTD SVG 1.1//EN"
 "http://www.w3.org/Graphics/SVG/1.1/DTD/svg11.dtd">
<!-- Generated by graphviz version 2.38.0 (20140413.2041)
 -->
<!-- Title: ViennaRNA/part_func_co.h Pages: 1 -->
<svg width="516pt" height="252pt"
 viewBox="0.00 0.00 515.50 252.00" xmlns="http://www.w3.org/2000/svg" xmlns:xlink="http://www.w3.org/1999/xlink">
<g id="graph0" class="graph" transform="scale(1 1) rotate(0) translate(4 248)">
<title>ViennaRNA/part_func_co.h</title>
<!-- Node1 -->
<g id="node1" class="node"><title>Node1</title>
<polygon fill="#bfbfbf" stroke="black" points="295.5,-224.5 295.5,-243.5 431.5,-243.5 431.5,-224.5 295.5,-224.5"/>
<text text-anchor="middle" x="363.5" y="-231.5" font-family="Helvetica,sans-Serif" font-size="10.00">ViennaRNA/part_func_co.h</text>
</g>
<!-- Node2 -->
<g id="node2" class="node"><title>Node2</title>
<g id="a_node2"><a xlink:href="data__structures_8h.html" target="_top" xlink:title="ViennaRNA/data_structures.h">
<polygon fill="none" stroke="black" points="234,-168.5 234,-187.5 381,-187.5 381,-168.5 234,-168.5"/>
<text text-anchor="middle" x="307.5" y="-175.5" font-family="Helvetica,sans-Serif" font-size="10.00">ViennaRNA/data_structures.h</text>
</a>
</g>
</g>
<!-- Node1&#45;&gt;Node2 -->
<g id="edge1" class="edge"><title>Node1&#45;&gt;Node2</title>
<path fill="none" stroke="midnightblue" d="M354.503,-224.324C346.306,-216.42 333.994,-204.548 324.028,-194.938"/>
<polygon fill="midnightblue" stroke="midnightblue" points="326.289,-192.256 316.661,-187.834 321.43,-197.295 326.289,-192.256"/>
</g>
<!-- Node6 -->
<g id="node6" class="node"><title>Node6</title>
<g id="a_node6"><a xlink:href="params_8h.html" target="_top" xlink:title="ViennaRNA/params.h">
<polygon fill="none" stroke="black" points="373.5,-112.5 373.5,-131.5 485.5,-131.5 485.5,-112.5 373.5,-112.5"/>
<text text-anchor="middle" x="429.5" y="-119.5" font-family="Helvetica,sans-Serif" font-size="10.00">ViennaRNA/params.h</text>
</a>
</g>
</g>
<!-- Node1&#45;&gt;Node6 -->
<g id="edge13" class="edge"><title>Node1&#45;&gt;Node6</title>
<path fill="none" stroke="midnightblue" d="M368.679,-224.368C379.523,-206.296 404.794,-164.176 419.116,-140.307"/>
<polygon fill="midnightblue" stroke="midnightblue" points="422.201,-141.967 424.345,-131.591 416.199,-138.366 422.201,-141.967"/>
</g>
<!-- Node3 -->
<g id="node3" class="node"><title>Node3</title>
<g id="a_node3"><a xlink:href="energy__const_8h.html" target="_top" xlink:title="ViennaRNA/energy_const.h">
<polygon fill="none" stroke="black" points="369.5,-56.5 369.5,-75.5 507.5,-75.5 507.5,-56.5 369.5,-56.5"/>
<text text-anchor="middle" x="438.5" y="-63.5" font-family="Helvetica,sans-Serif" font-size="10.00">ViennaRNA/energy_const.h</text>
</a>
</g>
</g>
<!-- Node2&#45;&gt;Node3 -->
<g id="edge2" class="edge"><title>Node2&#45;&gt;Node3</title>
<path fill="none" stroke="midnightblue" d="M313.791,-168.25C323.598,-155.01 343.583,-129.569 364.5,-112 379.045,-99.7832 397.255,-88.6656 411.971,-80.5373"/>
<polygon fill="midnightblue" stroke="midnightblue" points="413.915,-83.4659 421.063,-75.646 410.598,-77.3014 413.915,-83.4659"/>
</g>
<!-- Node5 -->
<g id="node5" class="node"><title>Node5</title>
<g id="a_node5"><a xlink:href="model_8h.html" target="_top" xlink:title="The model details data structure and its corresponding modifiers. ">
<polygon fill="none" stroke="black" points="245.5,-56.5 245.5,-75.5 351.5,-75.5 351.5,-56.5 245.5,-56.5"/>
<text text-anchor="middle" x="298.5" y="-63.5" font-family="Helvetica,sans-Serif" font-size="10.00">ViennaRNA/model.h</text>
</a>
</g>
</g>
<!-- Node2&#45;&gt;Node5 -->
<g id="edge4" class="edge"><title>Node2&#45;&gt;Node5</title>
<path fill="none" stroke="midnightblue" d="M306.794,-168.368C305.341,-150.617 301.991,-109.666 300.022,-85.5974"/>
<polygon fill="midnightblue" stroke="midnightblue" points="303.507,-85.2727 299.203,-75.5914 296.53,-85.8436 303.507,-85.2727"/>
</g>
<!-- Node2&#45;&gt;Node6 -->
<g id="edge5" class="edge"><title>Node2&#45;&gt;Node6</title>
<path fill="none" stroke="midnightblue" d="M321.987,-168.324C340.079,-159.467 371.11,-145.63 395.286,-135.573"/>
<polygon fill="midnightblue" stroke="midnightblue" points="396.914,-138.688 404.837,-131.655 394.257,-132.212 396.914,-138.688"/>
</g>
<!-- Node7 -->
<g id="node7" class="node"><title>Node7</title>
<g id="a_node7"><a xlink:href="dp__matrices_8h.html" target="_top" xlink:title="ViennaRNA/dp_matrices.h">
<polygon fill="none" stroke="black" points="0,-112.5 0,-131.5 133,-131.5 133,-112.5 0,-112.5"/>
<text text-anchor="middle" x="66.5" y="-119.5" font-family="Helvetica,sans-Serif" font-size="10.00">ViennaRNA/dp_matrices.h</text>
</a>
</g>
</g>
<!-- Node2&#45;&gt;Node7 -->
<g id="edge9" class="edge"><title>Node2&#45;&gt;Node7</title>
<path fill="none" stroke="midnightblue" d="M264.224,-168.444C220.301,-159.063 152.897,-143.993 109.189,-133.804"/>
<polygon fill="midnightblue" stroke="midnightblue" points="109.963,-130.39 99.4285,-131.516 108.366,-137.206 109.963,-130.39"/>
</g>
<!-- Node8 -->
<g id="node8" class="node"><title>Node8</title>
<g id="a_node8"><a xlink:href="constraints_8h.html" target="_top" xlink:title="ViennaRNA/constraints.h">
<polygon fill="none" stroke="black" points="151.5,-112.5 151.5,-131.5 279.5,-131.5 279.5,-112.5 151.5,-112.5"/>
<text text-anchor="middle" x="215.5" y="-119.5" font-family="Helvetica,sans-Serif" font-size="10.00">ViennaRNA/constraints.h</text>
</a>
</g>
</g>
<!-- Node2&#45;&gt;Node8 -->
<g id="edge11" class="edge"><title>Node2&#45;&gt;Node8</title>
<path fill="none" stroke="midnightblue" d="M287.604,-168.324C271.58,-159.979 249.519,-147.212 233.909,-137.352"/>
<polygon fill="midnightblue" stroke="midnightblue" points="235.428,-134.165 225.135,-131.655 231.615,-140.036 235.428,-134.165"/>
</g>
<!-- Node4 -->
<g id="node4" class="node"><title>Node4</title>
<polygon fill="none" stroke="#bfbfbf" points="414.5,-0.5 414.5,-19.5 462.5,-19.5 462.5,-0.5 414.5,-0.5"/>
<text text-anchor="middle" x="438.5" y="-7.5" font-family="Helvetica,sans-Serif" font-size="10.00">limits.h</text>
</g>
<!-- Node3&#45;&gt;Node4 -->
<g id="edge3" class="edge"><title>Node3&#45;&gt;Node4</title>
<path fill="none" stroke="midnightblue" d="M438.5,-56.083C438.5,-49.0059 438.5,-38.8611 438.5,-29.9865"/>
<polygon fill="midnightblue" stroke="midnightblue" points="442,-29.751 438.5,-19.7511 435,-29.7511 442,-29.751"/>
</g>
<!-- Node6&#45;&gt;Node2 -->
<g id="edge7" class="edge"><title>Node6&#45;&gt;Node2</title>
<path fill="none" stroke="midnightblue" d="M415.339,-131.516C397.17,-140.427 365.6,-154.504 341.207,-164.638"/>
<polygon fill="midnightblue" stroke="midnightblue" points="339.846,-161.413 331.92,-168.444 342.5,-167.89 339.846,-161.413"/>
</g>
<!-- Node6&#45;&gt;Node3 -->
<g id="edge6" class="edge"><title>Node6&#45;&gt;Node3</title>
<path fill="none" stroke="midnightblue" d="M430.986,-112.083C432.179,-104.927 433.894,-94.6353 435.385,-85.6911"/>
<polygon fill="midnightblue" stroke="midnightblue" points="438.85,-86.1904 437.041,-75.7511 431.945,-85.0396 438.85,-86.1904"/>
</g>
<!-- Node6&#45;&gt;Node5 -->
<g id="edge8" class="edge"><title>Node6&#45;&gt;Node5</title>
<path fill="none" stroke="midnightblue" d="M408.743,-112.444C387.184,-103.557 353.237,-89.5632 328.706,-79.4514"/>
<polygon fill="midnightblue" stroke="midnightblue" points="329.739,-76.0917 319.16,-75.5164 327.072,-82.5634 329.739,-76.0917"/>
</g>
<!-- Node7&#45;&gt;Node2 -->
<g id="edge10" class="edge"><title>Node7&#45;&gt;Node2</title>
<path fill="none" stroke="midnightblue" d="M109.588,-131.516C153.445,-140.881 220.849,-155.95 264.624,-166.153"/>
<polygon fill="midnightblue" stroke="midnightblue" points="263.867,-169.57 274.402,-168.444 265.464,-162.755 263.867,-169.57"/>
</g>
<!-- Node8&#45;&gt;Node2 -->
<g id="edge12" class="edge"><title>Node8&#45;&gt;Node2</title>
<path fill="none" stroke="midnightblue" d="M235.355,-131.655C251.369,-139.992 273.429,-152.757 289.051,-162.622"/>
<polygon fill="midnightblue" stroke="midnightblue" points="287.54,-165.814 297.833,-168.324 291.352,-159.943 287.54,-165.814"/>
</g>
</g>
</svg>
