<?xml version="1.0" encoding="UTF-8" standalone="no"?>
<!DOCTYPE svg PUBLIC "-//W3C//DTD SVG 1.1//EN"
 "http://www.w3.org/Graphics/SVG/1.1/DTD/svg11.dtd">
<!-- Generated by graphviz version 2.38.0 (20140413.2041)
 -->
<!-- Title: ViennaRNA/part_func_up.h Pages: 1 -->
<!--zoomable 252 -->
<svg id="main" version="1.1" xmlns="http://www.w3.org/2000/svg" xmlns:xlink="http://www.w3.org/1999/xlink" xml:space="preserve" onload="init(evt)">
<style type="text/css"><![CDATA[
.edge:hover path { stroke: red; }
.edge:hover polygon { stroke: red; fill: red; }
]]></style>
<script type="text/javascript"><![CDATA[
var edges = document.getElementsByTagName('g');
if (edges && edges.length) {
  for (var i=0;i<edges.length;i++) {
    if (edges[i].id.substr(0,4)=='edge') {
      edges[i].setAttribute('class','edge');
    }
  }
}
]]></script>
        <defs>
                <circle id="rim" cx="0" cy="0" r="7"/>
                <circle id="rim2" cx="0" cy="0" r="3.5"/>
                <g id="zoomPlus">
                        <use xlink:href="#rim" fill="#404040">
                                <set attributeName="fill" to="#808080" begin="zoomplus.mouseover" end="zoomplus.mouseout"/>
                        </use>
                        <path d="M-4,0h8M0,-4v8" fill="none" stroke="white" stroke-width="1.5" pointer-events="none"/>
                </g>
                <g id="zoomMin">
                        <use xlink:href="#rim" fill="#404040">
                                <set attributeName="fill" to="#808080" begin="zoomminus.mouseover" end="zoomminus.mouseout"/>
                        </use>
                        <path d="M-4,0h8" fill="none" stroke="white" stroke-width="1.5" pointer-events="none"/>
                </g>
                <g id="dirArrow">
                        <path fill="none" stroke="white" stroke-width="1.5" d="M0,-3.0v7 M-2.5,-0.5L0,-3.0L2.5,-0.5"/>
                </g>
               <g id="resetDef">
                       <use xlink:href="#rim2" fill="#404040">
                               <set attributeName="fill" to="#808080" begin="reset.mouseover" end="reset.mouseout"/>
                       </use>
               </g>
        </defs>

<script type="text/javascript">
var viewWidth = 546;
var viewHeight = 252;
var sectionId = 'dynsection-0';
</script>
<script xlink:href="svgpan.js"/>
<svg id="graph" class="graph">
<g id="viewport">
<title>ViennaRNA/part_func_up.h</title>
<!-- Node1 -->
<g id="node1" class="node"><title>Node1</title>
<polygon fill="#bfbfbf" stroke="black" points="209,-224.5 209,-243.5 345,-243.5 345,-224.5 209,-224.5"/>
<text text-anchor="middle" x="277" y="-231.5" font-family="Helvetica,sans-Serif" font-size="10.00">ViennaRNA/part_func_up.h</text>
</g>
<!-- Node2 -->
<g id="node2" class="node"><title>Node2</title>
<g id="a_node2"><a xlink:href="data__structures_8h.html" target="_top" xlink:title="ViennaRNA/data_structures.h">
<polygon fill="none" stroke="black" points="203.5,-168.5 203.5,-187.5 350.5,-187.5 350.5,-168.5 203.5,-168.5"/>
<text text-anchor="middle" x="277" y="-175.5" font-family="Helvetica,sans-Serif" font-size="10.00">ViennaRNA/data_structures.h</text>
</a>
</g>
</g>
<!-- Node1&#45;&gt;Node2 -->
<g id="edge1" class="edge"><title>Node1&#45;&gt;Node2</title>
<path fill="none" stroke="midnightblue" d="M277,-224.083C277,-217.006 277,-206.861 277,-197.986"/>
<polygon fill="midnightblue" stroke="midnightblue" points="280.5,-197.751 277,-187.751 273.5,-197.751 280.5,-197.751"/>
</g>
<!-- Node3 -->
<g id="node3" class="node"><title>Node3</title>
<g id="a_node3"><a xlink:href="energy__const_8h.html" target="_top" xlink:title="ViennaRNA/energy_const.h">
<polygon fill="none" stroke="black" points="0,-56.5 0,-75.5 138,-75.5 138,-56.5 0,-56.5"/>
<text text-anchor="middle" x="69" y="-63.5" font-family="Helvetica,sans-Serif" font-size="10.00">ViennaRNA/energy_const.h</text>
</a>
</g>
</g>
<!-- Node2&#45;&gt;Node3 -->
<g id="edge2" class="edge"><title>Node2&#45;&gt;Node3</title>
<path fill="none" stroke="midnightblue" d="M203.412,-168.564C155.142,-161.495 97.9347,-149.681 81,-132 69.4757,-119.968 67.1634,-100.676 67.3209,-86.2299"/>
<polygon fill="midnightblue" stroke="midnightblue" points="70.833,-86.0796 67.8479,-75.914 63.8422,-85.7224 70.833,-86.0796"/>
</g>
<!-- Node5 -->
<g id="node5" class="node"><title>Node5</title>
<g id="a_node5"><a xlink:href="model_8h.html" target="_top" xlink:title="The model details data structure and its corresponding modifiers. ">
<polygon fill="none" stroke="black" points="170,-56.5 170,-75.5 276,-75.5 276,-56.5 170,-56.5"/>
<text text-anchor="middle" x="223" y="-63.5" font-family="Helvetica,sans-Serif" font-size="10.00">ViennaRNA/model.h</text>
</a>
</g>
</g>
<!-- Node2&#45;&gt;Node5 -->
<g id="edge4" class="edge"><title>Node2&#45;&gt;Node5</title>
<path fill="none" stroke="midnightblue" d="M271.226,-168.253C265.47,-159.34 256.564,-145.016 250,-132 242.185,-116.503 234.731,-98.1941 229.643,-84.9634"/>
<polygon fill="midnightblue" stroke="midnightblue" points="232.912,-83.7131 226.107,-75.5921 226.362,-86.1838 232.912,-83.7131"/>
</g>
<!-- Node6 -->
<g id="node6" class="node"><title>Node6</title>
<g id="a_node6"><a xlink:href="params_8h.html" target="_top" xlink:title="ViennaRNA/params.h">
<polygon fill="none" stroke="black" points="90,-112.5 90,-131.5 202,-131.5 202,-112.5 90,-112.5"/>
<text text-anchor="middle" x="146" y="-119.5" font-family="Helvetica,sans-Serif" font-size="10.00">ViennaRNA/params.h</text>
</a>
</g>
</g>
<!-- Node2&#45;&gt;Node6 -->
<g id="edge5" class="edge"><title>Node2&#45;&gt;Node6</title>
<path fill="none" stroke="midnightblue" d="M251.154,-168.444C227.75,-159.596 193.768,-145.687 170.724,-135.586"/>
<polygon fill="midnightblue" stroke="midnightblue" points="172.139,-132.385 161.58,-131.516 169.293,-138.781 172.139,-132.385"/>
</g>
<!-- Node7 -->
<g id="node7" class="node"><title>Node7</title>
<g id="a_node7"><a xlink:href="dp__matrices_8h.html" target="_top" xlink:title="ViennaRNA/dp_matrices.h">
<polygon fill="none" stroke="black" points="258.5,-112.5 258.5,-131.5 391.5,-131.5 391.5,-112.5 258.5,-112.5"/>
<text text-anchor="middle" x="325" y="-119.5" font-family="Helvetica,sans-Serif" font-size="10.00">ViennaRNA/dp_matrices.h</text>
</a>
</g>
</g>
<!-- Node2&#45;&gt;Node7 -->
<g id="edge9" class="edge"><title>Node2&#45;&gt;Node7</title>
<path fill="none" stroke="midnightblue" d="M279.76,-168.083C285.144,-160.141 295.292,-148.335 304.753,-138.797"/>
<polygon fill="midnightblue" stroke="midnightblue" points="307.302,-141.202 312.09,-131.751 302.453,-136.154 307.302,-141.202"/>
</g>
<!-- Node8 -->
<g id="node8" class="node"><title>Node8</title>
<g id="a_node8"><a xlink:href="constraints_8h.html" target="_top" xlink:title="ViennaRNA/constraints.h">
<polygon fill="none" stroke="black" points="410,-112.5 410,-131.5 538,-131.5 538,-112.5 410,-112.5"/>
<text text-anchor="middle" x="474" y="-119.5" font-family="Helvetica,sans-Serif" font-size="10.00">ViennaRNA/constraints.h</text>
</a>
</g>
</g>
<!-- Node2&#45;&gt;Node8 -->
<g id="edge11" class="edge"><title>Node2&#45;&gt;Node8</title>
<path fill="none" stroke="midnightblue" d="M303.126,-168.444C334.952,-159.162 388.971,-144.309 427.825,-134.127"/>
<polygon fill="midnightblue" stroke="midnightblue" points="429.055,-137.423 437.851,-131.516 427.292,-130.649 429.055,-137.423"/>
</g>
<!-- Node4 -->
<g id="node4" class="node"><title>Node4</title>
<polygon fill="none" stroke="#bfbfbf" points="45,-0.5 45,-19.5 93,-19.5 93,-0.5 45,-0.5"/>
<text text-anchor="middle" x="69" y="-7.5" font-family="Helvetica,sans-Serif" font-size="10.00">limits.h</text>
</g>
<!-- Node3&#45;&gt;Node4 -->
<g id="edge3" class="edge"><title>Node3&#45;&gt;Node4</title>
<path fill="none" stroke="midnightblue" d="M69,-56.083C69,-49.0059 69,-38.8611 69,-29.9865"/>
<polygon fill="midnightblue" stroke="midnightblue" points="72.5001,-29.751 69,-19.7511 65.5001,-29.7511 72.5001,-29.751"/>
</g>
<!-- Node6&#45;&gt;Node2 -->
<g id="edge7" class="edge"><title>Node6&#45;&gt;Node2</title>
<path fill="none" stroke="midnightblue" d="M171.74,-131.516C195.112,-140.349 229.094,-154.255 252.172,-164.368"/>
<polygon fill="midnightblue" stroke="midnightblue" points="250.772,-167.576 261.331,-168.444 253.618,-161.18 250.772,-167.576"/>
</g>
<!-- Node6&#45;&gt;Node3 -->
<g id="edge6" class="edge"><title>Node6&#45;&gt;Node3</title>
<path fill="none" stroke="midnightblue" d="M133.629,-112.324C121.842,-104.058 103.868,-91.4527 89.8645,-81.6322"/>
<polygon fill="midnightblue" stroke="midnightblue" points="91.5376,-78.5307 81.3407,-75.6545 87.5184,-84.2619 91.5376,-78.5307"/>
</g>
<!-- Node6&#45;&gt;Node5 -->
<g id="edge8" class="edge"><title>Node6&#45;&gt;Node5</title>
<path fill="none" stroke="midnightblue" d="M158.371,-112.324C170.158,-104.058 188.132,-91.4527 202.136,-81.6322"/>
<polygon fill="midnightblue" stroke="midnightblue" points="204.482,-84.2619 210.659,-75.6545 200.462,-78.5307 204.482,-84.2619"/>
</g>
<!-- Node7&#45;&gt;Node2 -->
<g id="edge10" class="edge"><title>Node7&#45;&gt;Node2</title>
<path fill="none" stroke="midnightblue" d="M322.296,-131.834C316.917,-139.791 306.705,-151.673 297.196,-161.253"/>
<polygon fill="midnightblue" stroke="midnightblue" points="294.62,-158.875 289.827,-168.324 299.466,-163.926 294.62,-158.875"/>
</g>
<!-- Node8&#45;&gt;Node2 -->
<g id="edge12" class="edge"><title>Node8&#45;&gt;Node2</title>
<path fill="none" stroke="midnightblue" d="M448.011,-131.516C416.249,-140.782 362.24,-155.633 323.343,-165.829"/>
<polygon fill="midnightblue" stroke="midnightblue" points="322.099,-162.536 313.304,-168.444 323.863,-169.31 322.099,-162.536"/>
</g>
</g>
</svg>
        <g id="navigator" transform="translate(0 0)" fill="#404254">
                <rect fill="#f2f5e9" fill-opacity="0.5" stroke="#606060" stroke-width=".5" x="0" y="0" width="60" height="60"/>
                <use id="zoomplus" xlink:href="#zoomPlus" x="17" y="9" onmousedown="handleZoom(evt,'in')"/>
                <use id="zoomminus" xlink:href="#zoomMin" x="42" y="9" onmousedown="handleZoom(evt,'out')"/>
                <use id="reset" xlink:href="#resetDef" x="30" y="36" onmousedown="handleReset()"/>
                <g id="arrowUp" xlink:href="#dirArrow" transform="translate(30 24)" onmousedown="handlePan(0,-1)">
                  <use xlink:href="#rim" fill="#404040">
                        <set attributeName="fill" to="#808080" begin="arrowUp.mouseover" end="arrowUp.mouseout"/>
                  </use>
                  <path fill="none" stroke="white" stroke-width="1.5" d="M0,-3.0v7 M-2.5,-0.5L0,-3.0L2.5,-0.5"/>
                </g>
                <g id="arrowRight" xlink:href="#dirArrow" transform="rotate(90) translate(36 -43)" onmousedown="handlePan(1,0)">
                  <use xlink:href="#rim" fill="#404040">
                        <set attributeName="fill" to="#808080" begin="arrowRight.mouseover" end="arrowRight.mouseout"/>
                  </use>
                  <path fill="none" stroke="white" stroke-width="1.5" d="M0,-3.0v7 M-2.5,-0.5L0,-3.0L2.5,-0.5"/>
                </g>
                <g id="arrowDown" xlink:href="#dirArrow" transform="rotate(180) translate(-30 -48)" onmousedown="handlePan(0,1)">
                  <use xlink:href="#rim" fill="#404040">
                        <set attributeName="fill" to="#808080" begin="arrowDown.mouseover" end="arrowDown.mouseout"/>
                  </use>
                  <path fill="none" stroke="white" stroke-width="1.5" d="M0,-3.0v7 M-2.5,-0.5L0,-3.0L2.5,-0.5"/>
                </g>
                <g id="arrowLeft" xlink:href="#dirArrow" transform="rotate(270) translate(-36 17)" onmousedown="handlePan(-1,0)">
                  <use xlink:href="#rim" fill="#404040">
                        <set attributeName="fill" to="#808080" begin="arrowLeft.mouseover" end="arrowLeft.mouseout"/>
                  </use>
                  <path fill="none" stroke="white" stroke-width="1.5" d="M0,-3.0v7 M-2.5,-0.5L0,-3.0L2.5,-0.5"/>
                </g>
        </g>
        <svg viewBox="0 0 15 15" width="100%" height="30px" preserveAspectRatio="xMaxYMin meet">
         <g id="arrow_out" transform="scale(0.3 0.3)">
          <a xlink:href="part__func__up_8h__incl_org.svg" target="_base">
           <rect id="button" ry="5" rx="5" y="6" x="6" height="38" width="38"
                fill="#f2f5e9" fill-opacity="0.5" stroke="#606060" stroke-width="1.0"/>
           <path id="arrow"
             d="M 11.500037,31.436501 C 11.940474,20.09759 22.043105,11.32322 32.158766,21.979434 L 37.068811,17.246167 C 37.068811,17.246167 37.088388,32 37.088388,32 L 22.160133,31.978069 C 22.160133,31.978069 26.997745,27.140456 26.997745,27.140456 C 18.528582,18.264221 13.291696,25.230495 11.500037,31.436501 z"
             style="fill:#404040;"/>
          </a>
         </g>
        </svg>
</svg>
