<?xml version="1.0" encoding="UTF-8" standalone="no"?>
<!DOCTYPE svg PUBLIC "-//W3C//DTD SVG 1.1//EN"
 "http://www.w3.org/Graphics/SVG/1.1/DTD/svg11.dtd">
<!-- Generated by graphviz version 2.38.0 (20140413.2041)
 -->
<!-- Title: ViennaRNA/part_func.h Pages: 1 -->
<svg width="516pt" height="319pt"
 viewBox="0.00 0.00 515.50 319.00" xmlns="http://www.w3.org/2000/svg" xmlns:xlink="http://www.w3.org/1999/xlink">
<g id="graph0" class="graph" transform="scale(1 1) rotate(0) translate(4 315)">
<title>ViennaRNA/part_func.h</title>
<!-- Node1 -->
<g id="node1" class="node"><title>Node1</title>
<polygon fill="#bfbfbf" stroke="black" points="241.5,-291.5 241.5,-310.5 361.5,-310.5 361.5,-291.5 241.5,-291.5"/>
<text text-anchor="middle" x="301.5" y="-298.5" font-family="Helvetica,sans-Serif" font-size="10.00">ViennaRNA/part_func.h</text>
</g>
<!-- Node2 -->
<g id="node2" class="node"><title>Node2</title>
<g id="a_node2"><a xlink:href="data__structures_8h.html" target="_top" xlink:title="ViennaRNA/data_structures.h">
<polygon fill="none" stroke="black" points="186,-168.5 186,-187.5 333,-187.5 333,-168.5 186,-168.5"/>
<text text-anchor="middle" x="259.5" y="-175.5" font-family="Helvetica,sans-Serif" font-size="10.00">ViennaRNA/data_structures.h</text>
</a>
</g>
</g>
<!-- Node1&#45;&gt;Node2 -->
<g id="edge1" class="edge"><title>Node1&#45;&gt;Node2</title>
<path fill="none" stroke="midnightblue" d="M296.302,-291.307C291.181,-282.436 283.429,-268.144 278.5,-255 271.353,-235.94 266.069,-213.188 262.912,-197.577"/>
<polygon fill="midnightblue" stroke="midnightblue" points="266.323,-196.783 260.993,-187.627 259.45,-198.108 266.323,-196.783"/>
</g>
<!-- Node6 -->
<g id="node6" class="node"><title>Node6</title>
<g id="a_node6"><a xlink:href="params_8h.html" target="_top" xlink:title="ViennaRNA/params.h">
<polygon fill="none" stroke="black" points="373.5,-112.5 373.5,-131.5 485.5,-131.5 485.5,-112.5 373.5,-112.5"/>
<text text-anchor="middle" x="429.5" y="-119.5" font-family="Helvetica,sans-Serif" font-size="10.00">ViennaRNA/params.h</text>
</a>
</g>
</g>
<!-- Node1&#45;&gt;Node6 -->
<g id="edge13" class="edge"><title>Node1&#45;&gt;Node6</title>
<path fill="none" stroke="midnightblue" d="M349.443,-291.492C371.35,-285.119 395.667,-274.068 410.5,-255 436.238,-221.913 435.074,-169.601 432.186,-141.808"/>
<polygon fill="midnightblue" stroke="midnightblue" points="435.654,-141.329 430.96,-131.831 428.706,-142.183 435.654,-141.329"/>
</g>
<!-- Node9 -->
<g id="node9" class="node"><title>Node9</title>
<g id="a_node9"><a xlink:href="centroid_8h.html" target="_top" xlink:title="Centroid structure computation. ">
<polygon fill="none" stroke="black" points="287.5,-230 287.5,-249 401.5,-249 401.5,-230 287.5,-230"/>
<text text-anchor="middle" x="344.5" y="-237" font-family="Helvetica,sans-Serif" font-size="10.00">ViennaRNA/centroid.h</text>
</a>
</g>
</g>
<!-- Node1&#45;&gt;Node9 -->
<g id="edge14" class="edge"><title>Node1&#45;&gt;Node9</title>
<path fill="none" stroke="midnightblue" d="M307.661,-291.475C314.111,-282.55 324.404,-268.307 332.473,-257.143"/>
<polygon fill="midnightblue" stroke="midnightblue" points="335.33,-259.164 338.351,-249.009 329.656,-255.064 335.33,-259.164"/>
</g>
<!-- Node10 -->
<g id="node10" class="node"><title>Node10</title>
<g id="a_node10"><a xlink:href="boltzmann__sampling_8h.html" target="_top" xlink:title="Boltzmann Sampling of secondary structures from the ensemble. ">
<polygon fill="none" stroke="black" points="115.5,-224.5 115.5,-254.5 231.5,-254.5 231.5,-224.5 115.5,-224.5"/>
<text text-anchor="start" x="123.5" y="-242.5" font-family="Helvetica,sans-Serif" font-size="10.00">ViennaRNA/boltzmann</text>
<text text-anchor="middle" x="173.5" y="-231.5" font-family="Helvetica,sans-Serif" font-size="10.00">_sampling.h</text>
</a>
</g>
</g>
<!-- Node1&#45;&gt;Node10 -->
<g id="edge16" class="edge"><title>Node1&#45;&gt;Node10</title>
<path fill="none" stroke="midnightblue" d="M283.161,-291.475C264.934,-283.002 236.397,-269.737 213.003,-258.863"/>
<polygon fill="midnightblue" stroke="midnightblue" points="214.211,-255.564 203.667,-254.523 211.26,-261.912 214.211,-255.564"/>
</g>
<!-- Node3 -->
<g id="node3" class="node"><title>Node3</title>
<g id="a_node3"><a xlink:href="energy__const_8h.html" target="_top" xlink:title="ViennaRNA/energy_const.h">
<polygon fill="none" stroke="black" points="369.5,-56.5 369.5,-75.5 507.5,-75.5 507.5,-56.5 369.5,-56.5"/>
<text text-anchor="middle" x="438.5" y="-63.5" font-family="Helvetica,sans-Serif" font-size="10.00">ViennaRNA/energy_const.h</text>
</a>
</g>
</g>
<!-- Node2&#45;&gt;Node3 -->
<g id="edge2" class="edge"><title>Node2&#45;&gt;Node3</title>
<path fill="none" stroke="midnightblue" d="M273.406,-168.343C293.488,-155.852 331.79,-132.07 364.5,-112 381.531,-101.55 400.821,-89.8233 415.436,-80.9612"/>
<polygon fill="midnightblue" stroke="midnightblue" points="417.555,-83.7694 424.293,-75.5934 413.927,-77.7828 417.555,-83.7694"/>
</g>
<!-- Node5 -->
<g id="node5" class="node"><title>Node5</title>
<g id="a_node5"><a xlink:href="model_8h.html" target="_top" xlink:title="The model details data structure and its corresponding modifiers. ">
<polygon fill="none" stroke="black" points="245.5,-56.5 245.5,-75.5 351.5,-75.5 351.5,-56.5 245.5,-56.5"/>
<text text-anchor="middle" x="298.5" y="-63.5" font-family="Helvetica,sans-Serif" font-size="10.00">ViennaRNA/model.h</text>
</a>
</g>
</g>
<!-- Node2&#45;&gt;Node5 -->
<g id="edge4" class="edge"><title>Node2&#45;&gt;Node5</title>
<path fill="none" stroke="midnightblue" d="M266.706,-168.302C273.466,-159.654 283.292,-145.73 288.5,-132 294.137,-117.138 296.601,-99.2173 297.675,-85.96"/>
<polygon fill="midnightblue" stroke="midnightblue" points="301.185,-85.9004 298.306,-75.7042 294.199,-85.4702 301.185,-85.9004"/>
</g>
<!-- Node2&#45;&gt;Node6 -->
<g id="edge5" class="edge"><title>Node2&#45;&gt;Node6</title>
<path fill="none" stroke="midnightblue" d="M281.348,-168.444C308.302,-159.241 354.334,-144.562 388.023,-134.388"/>
<polygon fill="midnightblue" stroke="midnightblue" points="389.034,-137.739 397.609,-131.516 387.025,-131.033 389.034,-137.739"/>
</g>
<!-- Node7 -->
<g id="node7" class="node"><title>Node7</title>
<g id="a_node7"><a xlink:href="dp__matrices_8h.html" target="_top" xlink:title="ViennaRNA/dp_matrices.h">
<polygon fill="none" stroke="black" points="0,-112.5 0,-131.5 133,-131.5 133,-112.5 0,-112.5"/>
<text text-anchor="middle" x="66.5" y="-119.5" font-family="Helvetica,sans-Serif" font-size="10.00">ViennaRNA/dp_matrices.h</text>
</a>
</g>
</g>
<!-- Node2&#45;&gt;Node7 -->
<g id="edge9" class="edge"><title>Node2&#45;&gt;Node7</title>
<path fill="none" stroke="midnightblue" d="M223.83,-168.444C188.919,-159.241 136.277,-144.562 101.576,-134.388"/>
<polygon fill="midnightblue" stroke="midnightblue" points="102.44,-130.994 91.8584,-131.516 100.457,-137.707 102.44,-130.994"/>
</g>
<!-- Node8 -->
<g id="node8" class="node"><title>Node8</title>
<g id="a_node8"><a xlink:href="constraints_8h.html" target="_top" xlink:title="ViennaRNA/constraints.h">
<polygon fill="none" stroke="black" points="151.5,-112.5 151.5,-131.5 279.5,-131.5 279.5,-112.5 151.5,-112.5"/>
<text text-anchor="middle" x="215.5" y="-119.5" font-family="Helvetica,sans-Serif" font-size="10.00">ViennaRNA/constraints.h</text>
</a>
</g>
</g>
<!-- Node2&#45;&gt;Node8 -->
<g id="edge11" class="edge"><title>Node2&#45;&gt;Node8</title>
<path fill="none" stroke="midnightblue" d="M247.068,-168.083C239.325,-160.534 229.938,-149.495 223.198,-140.23"/>
<polygon fill="midnightblue" stroke="midnightblue" points="225.983,-138.098 217.5,-131.751 220.173,-142.003 225.983,-138.098"/>
</g>
<!-- Node4 -->
<g id="node4" class="node"><title>Node4</title>
<polygon fill="none" stroke="#bfbfbf" points="414.5,-0.5 414.5,-19.5 462.5,-19.5 462.5,-0.5 414.5,-0.5"/>
<text text-anchor="middle" x="438.5" y="-7.5" font-family="Helvetica,sans-Serif" font-size="10.00">limits.h</text>
</g>
<!-- Node3&#45;&gt;Node4 -->
<g id="edge3" class="edge"><title>Node3&#45;&gt;Node4</title>
<path fill="none" stroke="midnightblue" d="M438.5,-56.083C438.5,-49.0059 438.5,-38.8611 438.5,-29.9865"/>
<polygon fill="midnightblue" stroke="midnightblue" points="442,-29.751 438.5,-19.7511 435,-29.7511 442,-29.751"/>
</g>
<!-- Node6&#45;&gt;Node2 -->
<g id="edge7" class="edge"><title>Node6&#45;&gt;Node2</title>
<path fill="none" stroke="midnightblue" d="M407.769,-131.516C380.871,-140.703 334.848,-155.381 301.123,-165.568"/>
<polygon fill="midnightblue" stroke="midnightblue" points="300.1,-162.22 291.526,-168.444 302.11,-168.926 300.1,-162.22"/>
</g>
<!-- Node6&#45;&gt;Node3 -->
<g id="edge6" class="edge"><title>Node6&#45;&gt;Node3</title>
<path fill="none" stroke="midnightblue" d="M430.986,-112.083C432.179,-104.927 433.894,-94.6353 435.385,-85.6911"/>
<polygon fill="midnightblue" stroke="midnightblue" points="438.85,-86.1904 437.041,-75.7511 431.945,-85.0396 438.85,-86.1904"/>
</g>
<!-- Node6&#45;&gt;Node5 -->
<g id="edge8" class="edge"><title>Node6&#45;&gt;Node5</title>
<path fill="none" stroke="midnightblue" d="M408.743,-112.444C387.184,-103.557 353.237,-89.5632 328.706,-79.4514"/>
<polygon fill="midnightblue" stroke="midnightblue" points="329.739,-76.0917 319.16,-75.5164 327.072,-82.5634 329.739,-76.0917"/>
</g>
<!-- Node7&#45;&gt;Node2 -->
<g id="edge10" class="edge"><title>Node7&#45;&gt;Node2</title>
<path fill="none" stroke="midnightblue" d="M102.018,-131.516C136.877,-140.703 189.52,-155.381 224.273,-165.568"/>
<polygon fill="midnightblue" stroke="midnightblue" points="223.425,-168.967 234.007,-168.444 225.409,-162.254 223.425,-168.967"/>
</g>
<!-- Node8&#45;&gt;Node2 -->
<g id="edge12" class="edge"><title>Node8&#45;&gt;Node2</title>
<path fill="none" stroke="midnightblue" d="M227.762,-131.751C235.481,-139.248 244.874,-150.275 251.653,-159.566"/>
<polygon fill="midnightblue" stroke="midnightblue" points="248.906,-161.752 257.401,-168.083 254.708,-157.836 248.906,-161.752"/>
</g>
<!-- Node9&#45;&gt;Node2 -->
<g id="edge15" class="edge"><title>Node9&#45;&gt;Node2</title>
<path fill="none" stroke="midnightblue" d="M332.322,-229.975C318.688,-220.431 296.368,-204.807 280.026,-193.368"/>
<polygon fill="midnightblue" stroke="midnightblue" points="281.855,-190.376 271.656,-187.509 277.841,-196.111 281.855,-190.376"/>
</g>
<!-- Node10&#45;&gt;Node2 -->
<g id="edge17" class="edge"><title>Node10&#45;&gt;Node2</title>
<path fill="none" stroke="midnightblue" d="M193.881,-224.399C207.408,-215.04 225.111,-202.792 238.72,-193.377"/>
<polygon fill="midnightblue" stroke="midnightblue" points="240.754,-196.226 246.986,-187.658 236.771,-190.469 240.754,-196.226"/>
</g>
</g>
</svg>
