<?xml version="1.0" encoding="UTF-8" standalone="no"?>
<!DOCTYPE svg PUBLIC "-//W3C//DTD SVG 1.1//EN"
 "http://www.w3.org/Graphics/SVG/1.1/DTD/svg11.dtd">
<!-- Generated by graphviz version 2.38.0 (20140413.2041)
 -->
<!-- Title: ViennaRNA/plot_structure.h Pages: 1 -->
<!--zoomable 308 -->
<svg id="main" version="1.1" xmlns="http://www.w3.org/2000/svg" xmlns:xlink="http://www.w3.org/1999/xlink" xml:space="preserve" onload="init(evt)">
<style type="text/css"><![CDATA[
.edge:hover path { stroke: red; }
.edge:hover polygon { stroke: red; fill: red; }
]]></style>
<script type="text/javascript"><![CDATA[
var edges = document.getElementsByTagName('g');
if (edges && edges.length) {
  for (var i=0;i<edges.length;i++) {
    if (edges[i].id.substr(0,4)=='edge') {
      edges[i].setAttribute('class','edge');
    }
  }
}
]]></script>
        <defs>
                <circle id="rim" cx="0" cy="0" r="7"/>
                <circle id="rim2" cx="0" cy="0" r="3.5"/>
                <g id="zoomPlus">
                        <use xlink:href="#rim" fill="#404040">
                                <set attributeName="fill" to="#808080" begin="zoomplus.mouseover" end="zoomplus.mouseout"/>
                        </use>
                        <path d="M-4,0h8M0,-4v8" fill="none" stroke="white" stroke-width="1.5" pointer-events="none"/>
                </g>
                <g id="zoomMin">
                        <use xlink:href="#rim" fill="#404040">
                                <set attributeName="fill" to="#808080" begin="zoomminus.mouseover" end="zoomminus.mouseout"/>
                        </use>
                        <path d="M-4,0h8" fill="none" stroke="white" stroke-width="1.5" pointer-events="none"/>
                </g>
                <g id="dirArrow">
                        <path fill="none" stroke="white" stroke-width="1.5" d="M0,-3.0v7 M-2.5,-0.5L0,-3.0L2.5,-0.5"/>
                </g>
               <g id="resetDef">
                       <use xlink:href="#rim2" fill="#404040">
                               <set attributeName="fill" to="#808080" begin="reset.mouseover" end="reset.mouseout"/>
                       </use>
               </g>
        </defs>

<script type="text/javascript">
var viewWidth = 537;
var viewHeight = 308;
var sectionId = 'dynsection-0';
</script>
<script xlink:href="svgpan.js"/>
<svg id="graph" class="graph">
<g id="viewport">
<title>ViennaRNA/plot_structure.h</title>
<!-- Node1 -->
<g id="node1" class="node"><title>Node1</title>
<polygon fill="#bfbfbf" stroke="black" points="48.5,-280.5 48.5,-299.5 187.5,-299.5 187.5,-280.5 48.5,-280.5"/>
<text text-anchor="middle" x="118" y="-287.5" font-family="Helvetica,sans-Serif" font-size="10.00">ViennaRNA/plot_structure.h</text>
</g>
<!-- Node2 -->
<g id="node2" class="node"><title>Node2</title>
<g id="a_node2"><a xlink:href="model_8h.html" target="_top" xlink:title="The model details data structure and its corresponding modifiers. ">
<polygon fill="none" stroke="black" points="0,-56.5 0,-75.5 106,-75.5 106,-56.5 0,-56.5"/>
<text text-anchor="middle" x="53" y="-63.5" font-family="Helvetica,sans-Serif" font-size="10.00">ViennaRNA/model.h</text>
</a>
</g>
</g>
<!-- Node1&#45;&gt;Node2 -->
<g id="edge1" class="edge"><title>Node1&#45;&gt;Node2</title>
<path fill="none" stroke="midnightblue" d="M113.577,-280.444C101.85,-257.284 69.9746,-191.124 57,-132 53.6262,-116.626 52.7389,-98.7498 52.6315,-85.6401"/>
<polygon fill="midnightblue" stroke="midnightblue" points="56.132,-85.5508 52.6949,-75.529 49.1321,-85.5068 56.132,-85.5508"/>
</g>
<!-- Node3 -->
<g id="node3" class="node"><title>Node3</title>
<g id="a_node3"><a xlink:href="plot__layouts_8h.html" target="_top" xlink:title="Secondary structure plot layout algorithms. ">
<polygon fill="none" stroke="black" points="155,-224.5 155,-243.5 287,-243.5 287,-224.5 155,-224.5"/>
<text text-anchor="middle" x="221" y="-231.5" font-family="Helvetica,sans-Serif" font-size="10.00">ViennaRNA/plot_layouts.h</text>
</a>
</g>
</g>
<!-- Node1&#45;&gt;Node3 -->
<g id="edge2" class="edge"><title>Node1&#45;&gt;Node3</title>
<path fill="none" stroke="midnightblue" d="M134.549,-280.324C150.992,-271.703 176.435,-258.364 195.468,-248.386"/>
<polygon fill="midnightblue" stroke="midnightblue" points="197.261,-251.398 204.492,-243.655 194.011,-245.198 197.261,-251.398"/>
</g>
<!-- Node4 -->
<g id="node4" class="node"><title>Node4</title>
<g id="a_node4"><a xlink:href="data__structures_8h.html" target="_top" xlink:title="ViennaRNA/data_structures.h">
<polygon fill="none" stroke="black" points="147.5,-168.5 147.5,-187.5 294.5,-187.5 294.5,-168.5 147.5,-168.5"/>
<text text-anchor="middle" x="221" y="-175.5" font-family="Helvetica,sans-Serif" font-size="10.00">ViennaRNA/data_structures.h</text>
</a>
</g>
</g>
<!-- Node3&#45;&gt;Node4 -->
<g id="edge3" class="edge"><title>Node3&#45;&gt;Node4</title>
<path fill="none" stroke="midnightblue" d="M221,-224.083C221,-217.006 221,-206.861 221,-197.986"/>
<polygon fill="midnightblue" stroke="midnightblue" points="224.5,-197.751 221,-187.751 217.5,-197.751 224.5,-197.751"/>
</g>
<!-- Node10 -->
<g id="node10" class="node"><title>Node10</title>
<g id="a_node10"><a xlink:href="naview_8h.html" target="_top" xlink:title="ViennaRNA/naview.h">
<polygon fill="none" stroke="black" points="313,-168.5 313,-187.5 423,-187.5 423,-168.5 313,-168.5"/>
<text text-anchor="middle" x="368" y="-175.5" font-family="Helvetica,sans-Serif" font-size="10.00">ViennaRNA/naview.h</text>
</a>
</g>
</g>
<!-- Node3&#45;&gt;Node10 -->
<g id="edge15" class="edge"><title>Node3&#45;&gt;Node10</title>
<path fill="none" stroke="midnightblue" d="M244.293,-224.444C268.807,-215.438 307.596,-201.189 335.2,-191.049"/>
<polygon fill="midnightblue" stroke="midnightblue" points="336.637,-194.25 344.816,-187.516 334.223,-187.679 336.637,-194.25"/>
</g>
<!-- Node4&#45;&gt;Node2 -->
<g id="edge6" class="edge"><title>Node4&#45;&gt;Node2</title>
<path fill="none" stroke="midnightblue" d="M147.483,-169.535C120.628,-163.343 91.9732,-152.152 72,-132 59.9839,-119.876 55.4861,-100.597 53.8437,-86.1785"/>
<polygon fill="midnightblue" stroke="midnightblue" points="57.3086,-85.5876 53.0496,-75.8865 50.3294,-86.1262 57.3086,-85.5876"/>
</g>
<!-- Node5 -->
<g id="node5" class="node"><title>Node5</title>
<g id="a_node5"><a xlink:href="energy__const_8h.html" target="_top" xlink:title="ViennaRNA/energy_const.h">
<polygon fill="none" stroke="black" points="138,-56.5 138,-75.5 276,-75.5 276,-56.5 138,-56.5"/>
<text text-anchor="middle" x="207" y="-63.5" font-family="Helvetica,sans-Serif" font-size="10.00">ViennaRNA/energy_const.h</text>
</a>
</g>
</g>
<!-- Node4&#45;&gt;Node5 -->
<g id="edge4" class="edge"><title>Node4&#45;&gt;Node5</title>
<path fill="none" stroke="midnightblue" d="M219.901,-168.368C217.642,-150.617 212.43,-109.666 209.367,-85.5974"/>
<polygon fill="midnightblue" stroke="midnightblue" points="212.828,-85.0695 208.093,-75.5914 205.884,-85.9533 212.828,-85.0695"/>
</g>
<!-- Node7 -->
<g id="node7" class="node"><title>Node7</title>
<g id="a_node7"><a xlink:href="params_8h.html" target="_top" xlink:title="ViennaRNA/params.h">
<polygon fill="none" stroke="black" points="81,-112.5 81,-131.5 193,-131.5 193,-112.5 81,-112.5"/>
<text text-anchor="middle" x="137" y="-119.5" font-family="Helvetica,sans-Serif" font-size="10.00">ViennaRNA/params.h</text>
</a>
</g>
</g>
<!-- Node4&#45;&gt;Node7 -->
<g id="edge7" class="edge"><title>Node4&#45;&gt;Node7</title>
<path fill="none" stroke="midnightblue" d="M202.389,-168.324C187.827,-160.107 168.048,-147.602 153.936,-137.807"/>
<polygon fill="midnightblue" stroke="midnightblue" points="155.761,-134.809 145.593,-131.834 151.687,-140.501 155.761,-134.809"/>
</g>
<!-- Node8 -->
<g id="node8" class="node"><title>Node8</title>
<g id="a_node8"><a xlink:href="dp__matrices_8h.html" target="_top" xlink:title="ViennaRNA/dp_matrices.h">
<polygon fill="none" stroke="black" points="249.5,-112.5 249.5,-131.5 382.5,-131.5 382.5,-112.5 249.5,-112.5"/>
<text text-anchor="middle" x="316" y="-119.5" font-family="Helvetica,sans-Serif" font-size="10.00">ViennaRNA/dp_matrices.h</text>
</a>
</g>
</g>
<!-- Node4&#45;&gt;Node8 -->
<g id="edge11" class="edge"><title>Node4&#45;&gt;Node8</title>
<path fill="none" stroke="midnightblue" d="M231.149,-168.324C244.448,-159.703 267.646,-146.364 286.531,-136.386"/>
<polygon fill="midnightblue" stroke="midnightblue" points="288.395,-139.362 295.664,-131.655 285.175,-133.146 288.395,-139.362"/>
</g>
<!-- Node9 -->
<g id="node9" class="node"><title>Node9</title>
<g id="a_node9"><a xlink:href="constraints_8h.html" target="_top" xlink:title="ViennaRNA/constraints.h">
<polygon fill="none" stroke="black" points="401,-112.5 401,-131.5 529,-131.5 529,-112.5 401,-112.5"/>
<text text-anchor="middle" x="465" y="-119.5" font-family="Helvetica,sans-Serif" font-size="10.00">ViennaRNA/constraints.h</text>
</a>
</g>
</g>
<!-- Node4&#45;&gt;Node9 -->
<g id="edge13" class="edge"><title>Node4&#45;&gt;Node9</title>
<path fill="none" stroke="midnightblue" d="M254.574,-168.444C295.158,-159.004 363.711,-143.802 411.56,-133.611"/>
<polygon fill="midnightblue" stroke="midnightblue" points="412.382,-137.015 421.438,-131.516 410.93,-130.167 412.382,-137.015"/>
</g>
<!-- Node6 -->
<g id="node6" class="node"><title>Node6</title>
<polygon fill="none" stroke="#bfbfbf" points="183,-0.5 183,-19.5 231,-19.5 231,-0.5 183,-0.5"/>
<text text-anchor="middle" x="207" y="-7.5" font-family="Helvetica,sans-Serif" font-size="10.00">limits.h</text>
</g>
<!-- Node5&#45;&gt;Node6 -->
<g id="edge5" class="edge"><title>Node5&#45;&gt;Node6</title>
<path fill="none" stroke="midnightblue" d="M207,-56.083C207,-49.0059 207,-38.8611 207,-29.9865"/>
<polygon fill="midnightblue" stroke="midnightblue" points="210.5,-29.751 207,-19.7511 203.5,-29.7511 210.5,-29.751"/>
</g>
<!-- Node7&#45;&gt;Node2 -->
<g id="edge10" class="edge"><title>Node7&#45;&gt;Node2</title>
<path fill="none" stroke="midnightblue" d="M123.504,-112.324C110.4,-103.9 90.2881,-90.9709 74.8931,-81.0741"/>
<polygon fill="midnightblue" stroke="midnightblue" points="76.767,-78.118 66.4626,-75.6545 72.9817,-84.0063 76.767,-78.118"/>
</g>
<!-- Node7&#45;&gt;Node4 -->
<g id="edge9" class="edge"><title>Node7&#45;&gt;Node4</title>
<path fill="none" stroke="midnightblue" d="M155.573,-131.655C170.212,-139.913 190.141,-152.517 204.278,-162.342"/>
<polygon fill="midnightblue" stroke="midnightblue" points="202.453,-165.34 212.619,-168.324 206.533,-159.652 202.453,-165.34"/>
</g>
<!-- Node7&#45;&gt;Node5 -->
<g id="edge8" class="edge"><title>Node7&#45;&gt;Node5</title>
<path fill="none" stroke="midnightblue" d="M148.247,-112.324C158.797,-104.185 174.801,-91.8395 187.442,-82.0874"/>
<polygon fill="midnightblue" stroke="midnightblue" points="189.769,-84.7132 195.549,-75.8339 185.493,-79.1707 189.769,-84.7132"/>
</g>
<!-- Node8&#45;&gt;Node4 -->
<g id="edge12" class="edge"><title>Node8&#45;&gt;Node4</title>
<path fill="none" stroke="midnightblue" d="M305.885,-131.655C292.602,-140.267 269.408,-153.605 250.516,-163.59"/>
<polygon fill="midnightblue" stroke="midnightblue" points="248.647,-160.616 241.378,-168.324 251.867,-166.831 248.647,-160.616"/>
</g>
<!-- Node9&#45;&gt;Node4 -->
<g id="edge14" class="edge"><title>Node9&#45;&gt;Node4</title>
<path fill="none" stroke="midnightblue" d="M431.598,-131.516C391.094,-140.94 322.55,-156.141 274.643,-166.346"/>
<polygon fill="midnightblue" stroke="midnightblue" points="273.808,-162.945 264.751,-168.444 275.26,-169.793 273.808,-162.945"/>
</g>
</g>
</svg>
        <g id="navigator" transform="translate(0 0)" fill="#404254">
                <rect fill="#f2f5e9" fill-opacity="0.5" stroke="#606060" stroke-width=".5" x="0" y="0" width="60" height="60"/>
                <use id="zoomplus" xlink:href="#zoomPlus" x="17" y="9" onmousedown="handleZoom(evt,'in')"/>
                <use id="zoomminus" xlink:href="#zoomMin" x="42" y="9" onmousedown="handleZoom(evt,'out')"/>
                <use id="reset" xlink:href="#resetDef" x="30" y="36" onmousedown="handleReset()"/>
                <g id="arrowUp" xlink:href="#dirArrow" transform="translate(30 24)" onmousedown="handlePan(0,-1)">
                  <use xlink:href="#rim" fill="#404040">
                        <set attributeName="fill" to="#808080" begin="arrowUp.mouseover" end="arrowUp.mouseout"/>
                  </use>
                  <path fill="none" stroke="white" stroke-width="1.5" d="M0,-3.0v7 M-2.5,-0.5L0,-3.0L2.5,-0.5"/>
                </g>
                <g id="arrowRight" xlink:href="#dirArrow" transform="rotate(90) translate(36 -43)" onmousedown="handlePan(1,0)">
                  <use xlink:href="#rim" fill="#404040">
                        <set attributeName="fill" to="#808080" begin="arrowRight.mouseover" end="arrowRight.mouseout"/>
                  </use>
                  <path fill="none" stroke="white" stroke-width="1.5" d="M0,-3.0v7 M-2.5,-0.5L0,-3.0L2.5,-0.5"/>
                </g>
                <g id="arrowDown" xlink:href="#dirArrow" transform="rotate(180) translate(-30 -48)" onmousedown="handlePan(0,1)">
                  <use xlink:href="#rim" fill="#404040">
                        <set attributeName="fill" to="#808080" begin="arrowDown.mouseover" end="arrowDown.mouseout"/>
                  </use>
                  <path fill="none" stroke="white" stroke-width="1.5" d="M0,-3.0v7 M-2.5,-0.5L0,-3.0L2.5,-0.5"/>
                </g>
                <g id="arrowLeft" xlink:href="#dirArrow" transform="rotate(270) translate(-36 17)" onmousedown="handlePan(-1,0)">
                  <use xlink:href="#rim" fill="#404040">
                        <set attributeName="fill" to="#808080" begin="arrowLeft.mouseover" end="arrowLeft.mouseout"/>
                  </use>
                  <path fill="none" stroke="white" stroke-width="1.5" d="M0,-3.0v7 M-2.5,-0.5L0,-3.0L2.5,-0.5"/>
                </g>
        </g>
        <svg viewBox="0 0 15 15" width="100%" height="30px" preserveAspectRatio="xMaxYMin meet">
         <g id="arrow_out" transform="scale(0.3 0.3)">
          <a xlink:href="plot__structure_8h__incl_org.svg" target="_base">
           <rect id="button" ry="5" rx="5" y="6" x="6" height="38" width="38"
                fill="#f2f5e9" fill-opacity="0.5" stroke="#606060" stroke-width="1.0"/>
           <path id="arrow"
             d="M 11.500037,31.436501 C 11.940474,20.09759 22.043105,11.32322 32.158766,21.979434 L 37.068811,17.246167 C 37.068811,17.246167 37.088388,32 37.088388,32 L 22.160133,31.978069 C 22.160133,31.978069 26.997745,27.140456 26.997745,27.140456 C 18.528582,18.264221 13.291696,25.230495 11.500037,31.436501 z"
             style="fill:#404040;"/>
          </a>
         </g>
        </svg>
</svg>
