<?xml version="1.0" encoding="UTF-8" standalone="no"?>
<!DOCTYPE svg PUBLIC "-//W3C//DTD SVG 1.1//EN"
 "http://www.w3.org/Graphics/SVG/1.1/DTD/svg11.dtd">
<!-- Generated by graphviz version 2.38.0 (20140413.2041)
 -->
<!-- Title: ViennaRNA/PS_dot.h Pages: 1 -->
<svg width="554pt" height="364pt"
 viewBox="0.00 0.00 554.00 364.00" xmlns="http://www.w3.org/2000/svg" xmlns:xlink="http://www.w3.org/1999/xlink">
<g id="graph0" class="graph" transform="scale(1 1) rotate(0) translate(4 360)">
<title>ViennaRNA/PS_dot.h</title>
<!-- Node1 -->
<g id="node1" class="node"><title>Node1</title>
<polygon fill="#bfbfbf" stroke="black" points="228,-336.5 228,-355.5 340,-355.5 340,-336.5 228,-336.5"/>
<text text-anchor="middle" x="284" y="-343.5" font-family="Helvetica,sans-Serif" font-size="10.00">ViennaRNA/PS_dot.h</text>
</g>
<!-- Node2 -->
<g id="node2" class="node"><title>Node2</title>
<g id="a_node2"><a xlink:href="data__structures_8h.html" target="_top" xlink:title="ViennaRNA/data_structures.h">
<polygon fill="none" stroke="black" points="223.5,-168.5 223.5,-187.5 370.5,-187.5 370.5,-168.5 223.5,-168.5"/>
<text text-anchor="middle" x="297" y="-175.5" font-family="Helvetica,sans-Serif" font-size="10.00">ViennaRNA/data_structures.h</text>
</a>
</g>
</g>
<!-- Node1&#45;&gt;Node2 -->
<g id="edge1" class="edge"><title>Node1&#45;&gt;Node2</title>
<path fill="none" stroke="midnightblue" d="M284.699,-336.075C286.745,-309.945 292.755,-233.211 295.545,-197.577"/>
<polygon fill="midnightblue" stroke="midnightblue" points="299.037,-197.811 296.329,-187.568 292.059,-197.264 299.037,-197.811"/>
</g>
<!-- Node9 -->
<g id="node9" class="node"><title>Node9</title>
<g id="a_node9"><a xlink:href="plot__structure_8h.html" target="_top" xlink:title="Various functions for plotting RNA secondary structures. ">
<polygon fill="none" stroke="black" points="104.5,-280.5 104.5,-299.5 243.5,-299.5 243.5,-280.5 104.5,-280.5"/>
<text text-anchor="middle" x="174" y="-287.5" font-family="Helvetica,sans-Serif" font-size="10.00">ViennaRNA/plot_structure.h</text>
</a>
</g>
</g>
<!-- Node1&#45;&gt;Node9 -->
<g id="edge13" class="edge"><title>Node1&#45;&gt;Node9</title>
<path fill="none" stroke="midnightblue" d="M266.327,-336.324C248.606,-327.625 221.097,-314.12 200.712,-304.113"/>
<polygon fill="midnightblue" stroke="midnightblue" points="202.149,-300.919 191.63,-299.655 199.064,-307.203 202.149,-300.919"/>
</g>
<!-- Node12 -->
<g id="node12" class="node"><title>Node12</title>
<g id="a_node12"><a xlink:href="plot__aln_8h.html" target="_top" xlink:title="Various functions for plotting Sequence / Structure Alignments. ">
<polygon fill="none" stroke="black" points="312.5,-280.5 312.5,-299.5 425.5,-299.5 425.5,-280.5 312.5,-280.5"/>
<text text-anchor="middle" x="369" y="-287.5" font-family="Helvetica,sans-Serif" font-size="10.00">ViennaRNA/plot_aln.h</text>
</a>
</g>
</g>
<!-- Node1&#45;&gt;Node12 -->
<g id="edge18" class="edge"><title>Node1&#45;&gt;Node12</title>
<path fill="none" stroke="midnightblue" d="M297.657,-336.324C310.916,-327.9 331.268,-314.971 346.846,-305.074"/>
<polygon fill="midnightblue" stroke="midnightblue" points="348.813,-307.971 355.377,-299.655 345.06,-302.063 348.813,-307.971"/>
</g>
<!-- Node3 -->
<g id="node3" class="node"><title>Node3</title>
<g id="a_node3"><a xlink:href="energy__const_8h.html" target="_top" xlink:title="ViennaRNA/energy_const.h">
<polygon fill="none" stroke="black" points="408,-56.5 408,-75.5 546,-75.5 546,-56.5 408,-56.5"/>
<text text-anchor="middle" x="477" y="-63.5" font-family="Helvetica,sans-Serif" font-size="10.00">ViennaRNA/energy_const.h</text>
</a>
</g>
</g>
<!-- Node2&#45;&gt;Node3 -->
<g id="edge2" class="edge"><title>Node2&#45;&gt;Node3</title>
<path fill="none" stroke="midnightblue" d="M370.761,-170.27C421.966,-163.893 483.788,-152.199 500,-132 511.293,-117.93 501.316,-97.8967 491.2,-83.7991"/>
<polygon fill="midnightblue" stroke="midnightblue" points="493.966,-81.6536 485.073,-75.8947 488.433,-85.9424 493.966,-81.6536"/>
</g>
<!-- Node5 -->
<g id="node5" class="node"><title>Node5</title>
<g id="a_node5"><a xlink:href="model_8h.html" target="_top" xlink:title="The model details data structure and its corresponding modifiers. ">
<polygon fill="none" stroke="black" points="0,-56.5 0,-75.5 106,-75.5 106,-56.5 0,-56.5"/>
<text text-anchor="middle" x="53" y="-63.5" font-family="Helvetica,sans-Serif" font-size="10.00">ViennaRNA/model.h</text>
</a>
</g>
</g>
<!-- Node2&#45;&gt;Node5 -->
<g id="edge4" class="edge"><title>Node2&#45;&gt;Node5</title>
<path fill="none" stroke="midnightblue" d="M238.49,-168.497C175.999,-158.917 84.2422,-143.221 72,-132 59.1538,-120.225 54.8139,-100.296 53.4365,-85.6021"/>
<polygon fill="midnightblue" stroke="midnightblue" points="56.9304,-85.3931 52.869,-75.6077 49.9417,-85.7901 56.9304,-85.3931"/>
</g>
<!-- Node6 -->
<g id="node6" class="node"><title>Node6</title>
<g id="a_node6"><a xlink:href="params_8h.html" target="_top" xlink:title="ViennaRNA/params.h">
<polygon fill="none" stroke="black" points="379,-112.5 379,-131.5 491,-131.5 491,-112.5 379,-112.5"/>
<text text-anchor="middle" x="435" y="-119.5" font-family="Helvetica,sans-Serif" font-size="10.00">ViennaRNA/params.h</text>
</a>
</g>
</g>
<!-- Node2&#45;&gt;Node6 -->
<g id="edge5" class="edge"><title>Node2&#45;&gt;Node6</title>
<path fill="none" stroke="midnightblue" d="M313.778,-168.444C334.816,-159.438 371.017,-145.189 398.478,-135.049"/>
<polygon fill="midnightblue" stroke="midnightblue" points="399.962,-138.233 408.156,-131.516 397.562,-131.658 399.962,-138.233"/>
</g>
<!-- Node7 -->
<g id="node7" class="node"><title>Node7</title>
<g id="a_node7"><a xlink:href="dp__matrices_8h.html" target="_top" xlink:title="ViennaRNA/dp_matrices.h">
<polygon fill="none" stroke="black" points="81.5,-112.5 81.5,-131.5 214.5,-131.5 214.5,-112.5 81.5,-112.5"/>
<text text-anchor="middle" x="148" y="-119.5" font-family="Helvetica,sans-Serif" font-size="10.00">ViennaRNA/dp_matrices.h</text>
</a>
</g>
</g>
<!-- Node2&#45;&gt;Node7 -->
<g id="edge9" class="edge"><title>Node2&#45;&gt;Node7</title>
<path fill="none" stroke="midnightblue" d="M268.302,-168.444C241.596,-159.478 202.294,-145.314 175.865,-135.183"/>
<polygon fill="midnightblue" stroke="midnightblue" points="177.008,-131.872 166.419,-131.516 174.475,-138.398 177.008,-131.872"/>
</g>
<!-- Node8 -->
<g id="node8" class="node"><title>Node8</title>
<g id="a_node8"><a xlink:href="constraints_8h.html" target="_top" xlink:title="ViennaRNA/constraints.h">
<polygon fill="none" stroke="black" points="233,-112.5 233,-131.5 361,-131.5 361,-112.5 233,-112.5"/>
<text text-anchor="middle" x="297" y="-119.5" font-family="Helvetica,sans-Serif" font-size="10.00">ViennaRNA/constraints.h</text>
</a>
</g>
</g>
<!-- Node2&#45;&gt;Node8 -->
<g id="edge11" class="edge"><title>Node2&#45;&gt;Node8</title>
<path fill="none" stroke="midnightblue" d="M291.834,-168.083C290.324,-160.927 289.894,-150.635 290.542,-141.691"/>
<polygon fill="midnightblue" stroke="midnightblue" points="294.015,-142.126 291.869,-131.751 287.077,-141.2 294.015,-142.126"/>
</g>
<!-- Node4 -->
<g id="node4" class="node"><title>Node4</title>
<polygon fill="none" stroke="#bfbfbf" points="453,-0.5 453,-19.5 501,-19.5 501,-0.5 453,-0.5"/>
<text text-anchor="middle" x="477" y="-7.5" font-family="Helvetica,sans-Serif" font-size="10.00">limits.h</text>
</g>
<!-- Node3&#45;&gt;Node4 -->
<g id="edge3" class="edge"><title>Node3&#45;&gt;Node4</title>
<path fill="none" stroke="midnightblue" d="M477,-56.083C477,-49.0059 477,-38.8611 477,-29.9865"/>
<polygon fill="midnightblue" stroke="midnightblue" points="480.5,-29.751 477,-19.7511 473.5,-29.7511 480.5,-29.751"/>
</g>
<!-- Node6&#45;&gt;Node2 -->
<g id="edge7" class="edge"><title>Node6&#45;&gt;Node2</title>
<path fill="none" stroke="midnightblue" d="M418.316,-131.516C397.322,-140.506 361.131,-154.754 333.644,-164.906"/>
<polygon fill="midnightblue" stroke="midnightblue" points="332.148,-161.726 323.955,-168.444 334.549,-168.301 332.148,-161.726"/>
</g>
<!-- Node6&#45;&gt;Node3 -->
<g id="edge6" class="edge"><title>Node6&#45;&gt;Node3</title>
<path fill="none" stroke="midnightblue" d="M441.935,-112.083C447.929,-104.377 456.752,-93.0333 464.048,-83.6531"/>
<polygon fill="midnightblue" stroke="midnightblue" points="466.817,-85.7934 470.194,-75.7511 461.291,-81.4958 466.817,-85.7934"/>
</g>
<!-- Node6&#45;&gt;Node5 -->
<g id="edge8" class="edge"><title>Node6&#45;&gt;Node5</title>
<path fill="none" stroke="midnightblue" d="M378.635,-113.032C308.565,-103.127 189.311,-86.2691 116.206,-75.9348"/>
<polygon fill="midnightblue" stroke="midnightblue" points="116.598,-72.4556 106.206,-74.5213 115.618,-79.3867 116.598,-72.4556"/>
</g>
<!-- Node7&#45;&gt;Node2 -->
<g id="edge10" class="edge"><title>Node7&#45;&gt;Node2</title>
<path fill="none" stroke="midnightblue" d="M176.579,-131.516C203.247,-140.467 242.549,-154.629 269.017,-164.772"/>
<polygon fill="midnightblue" stroke="midnightblue" points="267.89,-168.089 278.479,-168.444 270.423,-161.563 267.89,-168.089"/>
</g>
<!-- Node8&#45;&gt;Node2 -->
<g id="edge12" class="edge"><title>Node8&#45;&gt;Node2</title>
<path fill="none" stroke="midnightblue" d="M302.131,-131.751C303.657,-138.858 304.104,-149.136 303.472,-158.101"/>
<polygon fill="midnightblue" stroke="midnightblue" points="299.993,-157.713 302.166,-168.083 306.934,-158.622 299.993,-157.713"/>
</g>
<!-- Node9&#45;&gt;Node5 -->
<g id="edge14" class="edge"><title>Node9&#45;&gt;Node5</title>
<path fill="none" stroke="midnightblue" d="M151.912,-280.466C135.339,-273.059 113.159,-260.862 99,-244 64.7123,-203.166 66.9247,-184.189 56,-132 52.7777,-116.606 52.1729,-98.7323 52.2916,-85.6281"/>
<polygon fill="midnightblue" stroke="midnightblue" points="55.7932,-85.6037 52.5347,-75.5225 48.7952,-85.4354 55.7932,-85.6037"/>
</g>
<!-- Node10 -->
<g id="node10" class="node"><title>Node10</title>
<g id="a_node10"><a xlink:href="plot__layouts_8h.html" target="_top" xlink:title="Secondary structure plot layout algorithms. ">
<polygon fill="none" stroke="black" points="108,-224.5 108,-243.5 240,-243.5 240,-224.5 108,-224.5"/>
<text text-anchor="middle" x="174" y="-231.5" font-family="Helvetica,sans-Serif" font-size="10.00">ViennaRNA/plot_layouts.h</text>
</a>
</g>
</g>
<!-- Node9&#45;&gt;Node10 -->
<g id="edge15" class="edge"><title>Node9&#45;&gt;Node10</title>
<path fill="none" stroke="midnightblue" d="M174,-280.083C174,-273.006 174,-262.861 174,-253.986"/>
<polygon fill="midnightblue" stroke="midnightblue" points="177.5,-253.751 174,-243.751 170.5,-253.751 177.5,-253.751"/>
</g>
<!-- Node10&#45;&gt;Node2 -->
<g id="edge16" class="edge"><title>Node10&#45;&gt;Node2</title>
<path fill="none" stroke="midnightblue" d="M193.49,-224.444C213.642,-215.596 245.323,-201.687 268.331,-191.586"/>
<polygon fill="midnightblue" stroke="midnightblue" points="269.852,-194.741 277.601,-187.516 267.038,-188.332 269.852,-194.741"/>
</g>
<!-- Node11 -->
<g id="node11" class="node"><title>Node11</title>
<g id="a_node11"><a xlink:href="naview_8h.html" target="_top" xlink:title="ViennaRNA/naview.h">
<polygon fill="none" stroke="black" points="95,-168.5 95,-187.5 205,-187.5 205,-168.5 95,-168.5"/>
<text text-anchor="middle" x="150" y="-175.5" font-family="Helvetica,sans-Serif" font-size="10.00">ViennaRNA/naview.h</text>
</a>
</g>
</g>
<!-- Node10&#45;&gt;Node11 -->
<g id="edge17" class="edge"><title>Node10&#45;&gt;Node11</title>
<path fill="none" stroke="midnightblue" d="M170.037,-224.083C166.787,-216.77 162.081,-206.181 158.046,-197.103"/>
<polygon fill="midnightblue" stroke="midnightblue" points="161.149,-195.468 153.889,-187.751 154.752,-198.311 161.149,-195.468"/>
</g>
</g>
</svg>
