<?xml version="1.0" encoding="UTF-8" standalone="no"?>
<!DOCTYPE svg PUBLIC "-//W3C//DTD SVG 1.1//EN"
 "http://www.w3.org/Graphics/SVG/1.1/DTD/svg11.dtd">
<!-- Generated by graphviz version 2.38.0 (20140413.2041)
 -->
<!-- Title: ViennaRNA/structure_utils.h Pages: 1 -->
<svg width="540pt" height="218pt"
 viewBox="0.00 0.00 540.00 218.00" xmlns="http://www.w3.org/2000/svg" xmlns:xlink="http://www.w3.org/1999/xlink">
<g id="graph0" class="graph" transform="scale(1 1) rotate(0) translate(4 214)">
<title>ViennaRNA/structure_utils.h</title>
<!-- Node1 -->
<g id="node1" class="node"><title>Node1</title>
<polygon fill="#bfbfbf" stroke="black" points="215.5,-179.5 215.5,-209.5 325.5,-209.5 325.5,-179.5 215.5,-179.5"/>
<text text-anchor="start" x="223.5" y="-197.5" font-family="Helvetica,sans-Serif" font-size="10.00">ViennaRNA/structure</text>
<text text-anchor="middle" x="270.5" y="-186.5" font-family="Helvetica,sans-Serif" font-size="10.00">_utils.h</text>
</g>
<!-- Node2 -->
<g id="node2" class="node"><title>Node2</title>
<g id="a_node2"><a xlink:href="utils_8h.html" target="_top" xlink:title="General utility&#45; and helper&#45;functions used throughout the ViennaRNA Package. ">
<polygon fill="none" stroke="black" points="221.5,-123.5 221.5,-142.5 319.5,-142.5 319.5,-123.5 221.5,-123.5"/>
<text text-anchor="middle" x="270.5" y="-130.5" font-family="Helvetica,sans-Serif" font-size="10.00">ViennaRNA/utils.h</text>
</a>
</g>
</g>
<!-- Node1&#45;&gt;Node2 -->
<g id="edge1" class="edge"><title>Node1&#45;&gt;Node2</title>
<path fill="none" stroke="midnightblue" d="M270.5,-169.289C270.5,-159.857 270.5,-149.655 270.5,-142.658"/>
<polygon fill="midnightblue" stroke="midnightblue" points="267,-169.399 270.5,-179.399 274,-169.399 267,-169.399"/>
</g>
<!-- Node3 -->
<g id="node3" class="node"><title>Node3</title>
<g id="a_node3"><a xlink:href="hairpin__loops_8h.html" target="_top" xlink:title="Energy evaluation of hairpin loops for MFE and partition function calculations. ">
<polygon fill="none" stroke="black" points="0,-62 0,-81 137,-81 137,-62 0,-62"/>
<text text-anchor="middle" x="68.5" y="-69" font-family="Helvetica,sans-Serif" font-size="10.00">ViennaRNA/hairpin_loops.h</text>
</a>
</g>
</g>
<!-- Node2&#45;&gt;Node3 -->
<g id="edge2" class="edge"><title>Node2&#45;&gt;Node3</title>
<path fill="none" stroke="midnightblue" d="M231.805,-120.602C192.55,-109.04 132.688,-91.4069 97.388,-81.0091"/>
<polygon fill="midnightblue" stroke="midnightblue" points="230.977,-124.007 241.558,-123.475 232.955,-117.292 230.977,-124.007"/>
</g>
<!-- Node5 -->
<g id="node5" class="node"><title>Node5</title>
<g id="a_node5"><a xlink:href="interior__loops_8h.html" target="_top" xlink:title="Energy evaluation of interior loops for MFE and partition function calculations. ">
<polygon fill="none" stroke="black" points="155,-56.5 155,-86.5 256,-86.5 256,-56.5 155,-56.5"/>
<text text-anchor="start" x="163" y="-74.5" font-family="Helvetica,sans-Serif" font-size="10.00">ViennaRNA/interior</text>
<text text-anchor="middle" x="205.5" y="-63.5" font-family="Helvetica,sans-Serif" font-size="10.00">_loops.h</text>
</a>
</g>
</g>
<!-- Node2&#45;&gt;Node5 -->
<g id="edge4" class="edge"><title>Node2&#45;&gt;Node5</title>
<path fill="none" stroke="midnightblue" d="M253.727,-116.646C243.567,-107.346 230.705,-95.572 220.819,-86.523"/>
<polygon fill="midnightblue" stroke="midnightblue" points="251.448,-119.305 261.187,-123.475 256.174,-114.141 251.448,-119.305"/>
</g>
<!-- Node6 -->
<g id="node6" class="node"><title>Node6</title>
<g id="a_node6"><a xlink:href="multibranch__loops_8h.html" target="_top" xlink:title="Energy evaluation of multibranch loops for MFE and partition function calculations. ">
<polygon fill="none" stroke="black" points="274.5,-56.5 274.5,-86.5 396.5,-86.5 396.5,-56.5 274.5,-56.5"/>
<text text-anchor="start" x="282.5" y="-74.5" font-family="Helvetica,sans-Serif" font-size="10.00">ViennaRNA/multibranch</text>
<text text-anchor="middle" x="335.5" y="-63.5" font-family="Helvetica,sans-Serif" font-size="10.00">_loops.h</text>
</a>
</g>
</g>
<!-- Node2&#45;&gt;Node6 -->
<g id="edge6" class="edge"><title>Node2&#45;&gt;Node6</title>
<path fill="none" stroke="midnightblue" d="M287.273,-116.646C297.433,-107.346 310.295,-95.572 320.181,-86.523"/>
<polygon fill="midnightblue" stroke="midnightblue" points="284.826,-114.141 279.813,-123.475 289.552,-119.305 284.826,-114.141"/>
</g>
<!-- Node7 -->
<g id="node7" class="node"><title>Node7</title>
<g id="a_node7"><a xlink:href="pair__mat_8h_source.html" target="_top" xlink:title="ViennaRNA/pair_mat.h">
<polygon fill="none" stroke="black" points="415,-62 415,-81 532,-81 532,-62 415,-62"/>
<text text-anchor="middle" x="473.5" y="-69" font-family="Helvetica,sans-Serif" font-size="10.00">ViennaRNA/pair_mat.h</text>
</a>
</g>
</g>
<!-- Node2&#45;&gt;Node7 -->
<g id="edge8" class="edge"><title>Node2&#45;&gt;Node7</title>
<path fill="none" stroke="midnightblue" d="M309.386,-120.602C348.836,-109.04 408.994,-91.4069 444.469,-81.0091"/>
<polygon fill="midnightblue" stroke="midnightblue" points="308.197,-117.304 299.585,-123.475 310.166,-124.021 308.197,-117.304"/>
</g>
<!-- Node4 -->
<g id="node4" class="node"><title>Node4</title>
<g id="a_node4"><a xlink:href="loop__energies_8h.html" target="_top" xlink:title="Energy evaluation for MFE and partition function calculations. ">
<polygon fill="none" stroke="black" points="135.5,-0.5 135.5,-19.5 275.5,-19.5 275.5,-0.5 135.5,-0.5"/>
<text text-anchor="middle" x="205.5" y="-7.5" font-family="Helvetica,sans-Serif" font-size="10.00">ViennaRNA/loop_energies.h</text>
</a>
</g>
</g>
<!-- Node3&#45;&gt;Node4 -->
<g id="edge3" class="edge"><title>Node3&#45;&gt;Node4</title>
<path fill="none" stroke="midnightblue" d="M97.3286,-57.9795C123.936,-46.4238 162.729,-29.5758 185.908,-19.5091"/>
<polygon fill="midnightblue" stroke="midnightblue" points="95.9068,-54.7811 88.1288,-61.9751 98.6953,-61.2018 95.9068,-54.7811"/>
</g>
<!-- Node5&#45;&gt;Node4 -->
<g id="edge5" class="edge"><title>Node5&#45;&gt;Node4</title>
<path fill="none" stroke="midnightblue" d="M205.5,-46.2892C205.5,-36.857 205.5,-26.6548 205.5,-19.6578"/>
<polygon fill="midnightblue" stroke="midnightblue" points="202,-46.3993 205.5,-56.3993 209,-46.3994 202,-46.3993"/>
</g>
<!-- Node6&#45;&gt;Node4 -->
<g id="edge7" class="edge"><title>Node6&#45;&gt;Node4</title>
<path fill="none" stroke="midnightblue" d="M295.578,-52.2281C271.906,-41.3933 242.991,-28.1596 224.416,-19.6578"/>
<polygon fill="midnightblue" stroke="midnightblue" points="294.142,-55.42 304.692,-56.3993 297.056,-49.055 294.142,-55.42"/>
</g>
</g>
</svg>
