<?xml version="1.0" encoding="UTF-8" standalone="no"?>
<!DOCTYPE svg PUBLIC "-//W3C//DTD SVG 1.1//EN"
 "http://www.w3.org/Graphics/SVG/1.1/DTD/svg11.dtd">
<!-- Generated by graphviz version 2.38.0 (20140413.2041)
 -->
<!-- Title: TwoDpfold_vars Pages: 1 -->
<svg width="564pt" height="240pt"
 viewBox="0.00 0.00 563.50 240.00" xmlns="http://www.w3.org/2000/svg" xmlns:xlink="http://www.w3.org/1999/xlink">
<g id="graph0" class="graph" transform="scale(1 1) rotate(0) translate(4 236)">
<title>TwoDpfold_vars</title>
<!-- Node1 -->
<g id="node1" class="node"><title>Node1</title>
<polygon fill="#bfbfbf" stroke="black" points="64.5,-0.5 64.5,-19.5 152.5,-19.5 152.5,-0.5 64.5,-0.5"/>
<text text-anchor="middle" x="108.5" y="-7.5" font-family="Helvetica,sans-Serif" font-size="10.00">TwoDpfold_vars</text>
</g>
<!-- Node2 -->
<g id="node2" class="node"><title>Node2</title>
<g id="a_node2"><a xlink:href="group__energy__parameters.html#structvrna__exp__param__s" target="_top" xlink:title="The datastructure that contains temperature scaled Boltzmann weights of the energy parameters...">
<polygon fill="none" stroke="black" points="0,-145.5 0,-164.5 99,-164.5 99,-145.5 0,-145.5"/>
<text text-anchor="middle" x="49.5" y="-152.5" font-family="Helvetica,sans-Serif" font-size="10.00">vrna_exp_param_s</text>
</a>
</g>
</g>
<!-- Node2&#45;&gt;Node1 -->
<g id="edge1" class="edge"><title>Node2&#45;&gt;Node1</title>
<path fill="none" stroke="#9a32cd" stroke-dasharray="5,2" d="M56.9606,-135.918C69.7755,-104.858 95.5,-42.5086 104.93,-19.6532"/>
<polygon fill="#9a32cd" stroke="#9a32cd" points="53.5927,-134.904 53.014,-145.483 60.0635,-137.574 53.5927,-134.904"/>
<text text-anchor="middle" x="110" y="-74.5" font-family="Helvetica,sans-Serif" font-size="10.00"> pf_params</text>
</g>
<!-- Node4 -->
<g id="node4" class="node"><title>Node4</title>
<g id="a_node4"><a xlink:href="group__fold__compound.html#structvrna__fc__s" target="_top" xlink:title="The most basic data structure required by many functions throughout the RNAlib. ">
<polygon fill="none" stroke="black" points="215,-67.5 215,-86.5 274,-86.5 274,-67.5 215,-67.5"/>
<text text-anchor="middle" x="244.5" y="-74.5" font-family="Helvetica,sans-Serif" font-size="10.00">vrna_fc_s</text>
</a>
</g>
</g>
<!-- Node2&#45;&gt;Node4 -->
<g id="edge5" class="edge"><title>Node2&#45;&gt;Node4</title>
<path fill="none" stroke="#9a32cd" stroke-dasharray="5,2" d="M67.3798,-138.707C81.0739,-127.76 100.888,-113.506 120.5,-105 151.224,-91.6744 189.178,-84.6544 214.945,-81.1499"/>
<polygon fill="#9a32cd" stroke="#9a32cd" points="64.8277,-136.274 59.3283,-145.33 69.2746,-141.68 64.8277,-136.274"/>
<text text-anchor="middle" x="149" y="-113.5" font-family="Helvetica,sans-Serif" font-size="10.00"> exp_params</text>
</g>
<!-- Node3 -->
<g id="node3" class="node"><title>Node3</title>
<g id="a_node3"><a xlink:href="group__model__details.html#structvrna__md__s" target="_top" xlink:title="The data structure that contains the complete model details used throughout the calculations. ">
<polygon fill="none" stroke="black" points="73,-212.5 73,-231.5 138,-231.5 138,-212.5 73,-212.5"/>
<text text-anchor="middle" x="105.5" y="-219.5" font-family="Helvetica,sans-Serif" font-size="10.00">vrna_md_s</text>
</a>
</g>
</g>
<!-- Node3&#45;&gt;Node2 -->
<g id="edge2" class="edge"><title>Node3&#45;&gt;Node2</title>
<path fill="none" stroke="#9a32cd" stroke-dasharray="5,2" d="M74.3456,-207.268C68.7604,-203.634 63.465,-199.23 59.5,-194 52.9884,-185.411 50.7053,-172.949 49.9116,-164.666"/>
<polygon fill="#9a32cd" stroke="#9a32cd" points="72.7955,-210.413 83.2114,-212.353 76.2783,-204.341 72.7955,-210.413"/>
<text text-anchor="middle" x="91.5" y="-186" font-family="Helvetica,sans-Serif" font-size="10.00"> model_details</text>
</g>
<!-- Node6 -->
<g id="node6" class="node"><title>Node6</title>
<g id="a_node6"><a xlink:href="group__energy__parameters.html#structvrna__param__s" target="_top" xlink:title="The datastructure that contains temperature scaled energy parameters. ">
<polygon fill="none" stroke="black" points="117.5,-145.5 117.5,-164.5 195.5,-164.5 195.5,-145.5 117.5,-145.5"/>
<text text-anchor="middle" x="156.5" y="-152.5" font-family="Helvetica,sans-Serif" font-size="10.00">vrna_param_s</text>
</a>
</g>
</g>
<!-- Node3&#45;&gt;Node6 -->
<g id="edge7" class="edge"><title>Node3&#45;&gt;Node6</title>
<path fill="none" stroke="#9a32cd" stroke-dasharray="5,2" d="M119.314,-204.215C122.046,-200.848 124.879,-197.323 127.5,-194 135.414,-183.965 144.301,-172.252 150.126,-164.511"/>
<polygon fill="#9a32cd" stroke="#9a32cd" points="116.523,-202.1 112.905,-212.058 121.943,-206.529 116.523,-202.1"/>
<text text-anchor="middle" x="168.5" y="-186" font-family="Helvetica,sans-Serif" font-size="10.00"> model_details</text>
</g>
<!-- Node4&#45;&gt;Node1 -->
<g id="edge3" class="edge"><title>Node4&#45;&gt;Node1</title>
<path fill="none" stroke="#9a32cd" stroke-dasharray="5,2" d="M217.182,-62.9436C190.245,-50.0691 149.838,-30.7573 126.634,-19.6672"/>
<polygon fill="#9a32cd" stroke="#9a32cd" points="215.908,-66.2141 226.44,-67.3685 218.927,-59.8984 215.908,-66.2141"/>
<text text-anchor="middle" x="214.5" y="-41" font-family="Helvetica,sans-Serif" font-size="10.00"> compatibility</text>
</g>
<!-- Node5 -->
<g id="node5" class="node"><title>Node5</title>
<g id="a_node5"><a xlink:href="group__soft__constraints.html#structvrna__sc__s" target="_top" xlink:title="The soft constraints data structure. ">
<polygon fill="none" stroke="black" points="493.5,-145.5 493.5,-164.5 555.5,-164.5 555.5,-145.5 493.5,-145.5"/>
<text text-anchor="middle" x="524.5" y="-152.5" font-family="Helvetica,sans-Serif" font-size="10.00">vrna_sc_s</text>
</a>
</g>
</g>
<!-- Node5&#45;&gt;Node4 -->
<g id="edge4" class="edge"><title>Node5&#45;&gt;Node4</title>
<path fill="none" stroke="#9a32cd" stroke-dasharray="5,2" d="M508.703,-138.557C496.164,-127.284 477.618,-112.682 458.5,-105 396.303,-80.0081 316.458,-76.7653 274.054,-77.0756"/>
<polygon fill="#9a32cd" stroke="#9a32cd" points="506.319,-141.12 516.02,-145.379 511.092,-136 506.319,-141.12"/>
<text text-anchor="middle" x="503.5" y="-119" font-family="Helvetica,sans-Serif" font-size="10.00"> sc</text>
<text text-anchor="middle" x="503.5" y="-108" font-family="Helvetica,sans-Serif" font-size="10.00">scs</text>
</g>
<!-- Node6&#45;&gt;Node4 -->
<g id="edge6" class="edge"><title>Node6&#45;&gt;Node4</title>
<path fill="none" stroke="#9a32cd" stroke-dasharray="5,2" d="M171.032,-137.561C180.18,-127.632 192.493,-115.006 204.5,-105 212.61,-98.2418 222.427,-91.5955 230.305,-86.5881"/>
<polygon fill="#9a32cd" stroke="#9a32cd" points="168.28,-135.386 164.168,-145.151 173.471,-140.082 168.28,-135.386"/>
<text text-anchor="middle" x="222.5" y="-113.5" font-family="Helvetica,sans-Serif" font-size="10.00"> params</text>
</g>
<!-- Node7 -->
<g id="node7" class="node"><title>Node7</title>
<g id="a_node7"><a xlink:href="group__hard__constraints.html#structvrna__hc__s" target="_top" xlink:title="The hard constraints data structure. ">
<polygon fill="none" stroke="black" points="213.5,-145.5 213.5,-164.5 275.5,-164.5 275.5,-145.5 213.5,-145.5"/>
<text text-anchor="middle" x="244.5" y="-152.5" font-family="Helvetica,sans-Serif" font-size="10.00">vrna_hc_s</text>
</a>
</g>
</g>
<!-- Node7&#45;&gt;Node4 -->
<g id="edge8" class="edge"><title>Node7&#45;&gt;Node4</title>
<path fill="none" stroke="#9a32cd" stroke-dasharray="5,2" d="M244.5,-135.224C244.5,-119.697 244.5,-98.3582 244.5,-86.6165"/>
<polygon fill="#9a32cd" stroke="#9a32cd" points="241,-135.282 244.5,-145.282 248,-135.282 241,-135.282"/>
<text text-anchor="middle" x="251.5" y="-113.5" font-family="Helvetica,sans-Serif" font-size="10.00"> hc</text>
</g>
<!-- Node8 -->
<g id="node8" class="node"><title>Node8</title>
<g id="a_node8"><a xlink:href="group__dp__matrices.html#structvrna__mx__mfe__s" target="_top" xlink:title="Minimum Free Energy (MFE) Dynamic Programming (DP) matrices data structure required within the vrna_f...">
<polygon fill="none" stroke="black" points="293.5,-145.5 293.5,-164.5 379.5,-164.5 379.5,-145.5 293.5,-145.5"/>
<text text-anchor="middle" x="336.5" y="-152.5" font-family="Helvetica,sans-Serif" font-size="10.00">vrna_mx_mfe_s</text>
</a>
</g>
</g>
<!-- Node8&#45;&gt;Node4 -->
<g id="edge9" class="edge"><title>Node8&#45;&gt;Node4</title>
<path fill="none" stroke="#9a32cd" stroke-dasharray="5,2" d="M318.014,-138.729C299.059,-123.07 270.248,-99.2701 254.93,-86.6165"/>
<polygon fill="#9a32cd" stroke="#9a32cd" points="316.008,-141.611 325.946,-145.282 320.466,-136.215 316.008,-141.611"/>
<text text-anchor="middle" x="322" y="-113.5" font-family="Helvetica,sans-Serif" font-size="10.00"> matrices</text>
</g>
<!-- Node9 -->
<g id="node9" class="node"><title>Node9</title>
<g id="a_node9"><a xlink:href="group__dp__matrices.html#structvrna__mx__pf__s" target="_top" xlink:title="Partition function (PF) Dynamic Programming (DP) matrices data structure required within the vrna_fol...">
<polygon fill="none" stroke="black" points="397.5,-145.5 397.5,-164.5 475.5,-164.5 475.5,-145.5 397.5,-145.5"/>
<text text-anchor="middle" x="436.5" y="-152.5" font-family="Helvetica,sans-Serif" font-size="10.00">vrna_mx_pf_s</text>
</a>
</g>
</g>
<!-- Node9&#45;&gt;Node4 -->
<g id="edge10" class="edge"><title>Node9&#45;&gt;Node4</title>
<path fill="none" stroke="#9a32cd" stroke-dasharray="5,2" d="M414.286,-139.946C396.502,-129.183 370.629,-114.6 346.5,-105 322.841,-95.587 294.803,-88.4359 274.117,-83.8655"/>
<polygon fill="#9a32cd" stroke="#9a32cd" points="412.92,-143.215 423.271,-145.476 416.589,-137.253 412.92,-143.215"/>
<text text-anchor="middle" x="423.5" y="-113.5" font-family="Helvetica,sans-Serif" font-size="10.00"> exp_matrices</text>
</g>
</g>
</svg>
