<?xml version="1.0" encoding="UTF-8" standalone="no"?>
<!DOCTYPE svg PUBLIC "-//W3C//DTD SVG 1.1//EN"
 "http://www.w3.org/Graphics/SVG/1.1/DTD/svg11.dtd">
<!-- Generated by graphviz version 2.38.0 (20140413.2041)
 -->
<!-- Title: TwoDfold_vars Pages: 1 -->
<svg width="564pt" height="240pt"
 viewBox="0.00 0.00 564.00 240.00" xmlns="http://www.w3.org/2000/svg" xmlns:xlink="http://www.w3.org/1999/xlink">
<g id="graph0" class="graph" transform="scale(1 1) rotate(0) translate(4 236)">
<title>TwoDfold_vars</title>
<!-- Node1 -->
<g id="node1" class="node"><title>Node1</title>
<polygon fill="#bfbfbf" stroke="black" points="62.5,-0.5 62.5,-19.5 145.5,-19.5 145.5,-0.5 62.5,-0.5"/>
<text text-anchor="middle" x="104" y="-7.5" font-family="Helvetica,sans-Serif" font-size="10.00">TwoDfold_vars</text>
</g>
<!-- Node2 -->
<g id="node2" class="node"><title>Node2</title>
<g id="a_node2"><a xlink:href="group__fold__compound.html#structvrna__fc__s" target="_top" xlink:title="The most basic data structure required by many functions throughout the RNAlib. ">
<polygon fill="none" stroke="black" points="215.5,-67.5 215.5,-86.5 274.5,-86.5 274.5,-67.5 215.5,-67.5"/>
<text text-anchor="middle" x="245" y="-74.5" font-family="Helvetica,sans-Serif" font-size="10.00">vrna_fc_s</text>
</a>
</g>
</g>
<!-- Node2&#45;&gt;Node1 -->
<g id="edge1" class="edge"><title>Node2&#45;&gt;Node1</title>
<path fill="none" stroke="#9a32cd" stroke-dasharray="5,2" d="M217.044,-63.1127C189.118,-50.2387 146.964,-30.8059 122.801,-19.6672"/>
<polygon fill="#9a32cd" stroke="#9a32cd" points="215.73,-66.3605 226.276,-67.3685 218.66,-60.0034 215.73,-66.3605"/>
<text text-anchor="middle" x="212" y="-41" font-family="Helvetica,sans-Serif" font-size="10.00"> compatibility</text>
</g>
<!-- Node3 -->
<g id="node3" class="node"><title>Node3</title>
<g id="a_node3"><a xlink:href="group__soft__constraints.html#structvrna__sc__s" target="_top" xlink:title="The soft constraints data structure. ">
<polygon fill="none" stroke="black" points="494,-145.5 494,-164.5 556,-164.5 556,-145.5 494,-145.5"/>
<text text-anchor="middle" x="525" y="-152.5" font-family="Helvetica,sans-Serif" font-size="10.00">vrna_sc_s</text>
</a>
</g>
</g>
<!-- Node3&#45;&gt;Node2 -->
<g id="edge2" class="edge"><title>Node3&#45;&gt;Node2</title>
<path fill="none" stroke="#9a32cd" stroke-dasharray="5,2" d="M509.203,-138.557C496.664,-127.284 478.118,-112.682 459,-105 396.803,-80.0081 316.958,-76.7653 274.554,-77.0756"/>
<polygon fill="#9a32cd" stroke="#9a32cd" points="506.819,-141.12 516.52,-145.379 511.592,-136 506.819,-141.12"/>
<text text-anchor="middle" x="504" y="-119" font-family="Helvetica,sans-Serif" font-size="10.00"> sc</text>
<text text-anchor="middle" x="504" y="-108" font-family="Helvetica,sans-Serif" font-size="10.00">scs</text>
</g>
<!-- Node4 -->
<g id="node4" class="node"><title>Node4</title>
<g id="a_node4"><a xlink:href="group__energy__parameters.html#structvrna__exp__param__s" target="_top" xlink:title="The datastructure that contains temperature scaled Boltzmann weights of the energy parameters...">
<polygon fill="none" stroke="black" points="96.5,-145.5 96.5,-164.5 195.5,-164.5 195.5,-145.5 96.5,-145.5"/>
<text text-anchor="middle" x="146" y="-152.5" font-family="Helvetica,sans-Serif" font-size="10.00">vrna_exp_param_s</text>
</a>
</g>
</g>
<!-- Node4&#45;&gt;Node2 -->
<g id="edge3" class="edge"><title>Node4&#45;&gt;Node2</title>
<path fill="none" stroke="#9a32cd" stroke-dasharray="5,2" d="M156.281,-136.738C163.101,-126.45 172.835,-113.736 184,-105 194.124,-97.0783 206.937,-90.9501 218.204,-86.5494"/>
<polygon fill="#9a32cd" stroke="#9a32cd" points="153.244,-134.993 150.879,-145.321 159.168,-138.722 153.244,-134.993"/>
<text text-anchor="middle" x="212.5" y="-113.5" font-family="Helvetica,sans-Serif" font-size="10.00"> exp_params</text>
</g>
<!-- Node5 -->
<g id="node5" class="node"><title>Node5</title>
<g id="a_node5"><a xlink:href="group__model__details.html#structvrna__md__s" target="_top" xlink:title="The data structure that contains the complete model details used throughout the calculations. ">
<polygon fill="none" stroke="black" points="62.5,-212.5 62.5,-231.5 127.5,-231.5 127.5,-212.5 62.5,-212.5"/>
<text text-anchor="middle" x="95" y="-219.5" font-family="Helvetica,sans-Serif" font-size="10.00">vrna_md_s</text>
</a>
</g>
</g>
<!-- Node5&#45;&gt;Node4 -->
<g id="edge4" class="edge"><title>Node5&#45;&gt;Node4</title>
<path fill="none" stroke="#9a32cd" stroke-dasharray="5,2" d="M108.814,-204.215C111.546,-200.848 114.379,-197.323 117,-194 124.914,-183.965 133.801,-172.252 139.626,-164.511"/>
<polygon fill="#9a32cd" stroke="#9a32cd" points="106.023,-202.1 102.405,-212.058 111.443,-206.529 106.023,-202.1"/>
<text text-anchor="middle" x="158" y="-186" font-family="Helvetica,sans-Serif" font-size="10.00"> model_details</text>
</g>
<!-- Node6 -->
<g id="node6" class="node"><title>Node6</title>
<g id="a_node6"><a xlink:href="group__energy__parameters.html#structvrna__param__s" target="_top" xlink:title="The datastructure that contains temperature scaled energy parameters. ">
<polygon fill="none" stroke="black" points="0,-145.5 0,-164.5 78,-164.5 78,-145.5 0,-145.5"/>
<text text-anchor="middle" x="39" y="-152.5" font-family="Helvetica,sans-Serif" font-size="10.00">vrna_param_s</text>
</a>
</g>
</g>
<!-- Node5&#45;&gt;Node6 -->
<g id="edge6" class="edge"><title>Node5&#45;&gt;Node6</title>
<path fill="none" stroke="#9a32cd" stroke-dasharray="5,2" d="M63.8456,-207.268C58.2604,-203.634 52.965,-199.23 49,-194 42.4884,-185.411 40.2053,-172.949 39.4116,-164.666"/>
<polygon fill="#9a32cd" stroke="#9a32cd" points="62.2955,-210.413 72.7114,-212.353 65.7783,-204.341 62.2955,-210.413"/>
<text text-anchor="middle" x="81" y="-186" font-family="Helvetica,sans-Serif" font-size="10.00"> model_details</text>
</g>
<!-- Node6&#45;&gt;Node1 -->
<g id="edge10" class="edge"><title>Node6&#45;&gt;Node1</title>
<path fill="none" stroke="#9a32cd" stroke-dasharray="5,2" d="M47.0351,-136.323C61.0895,-105.403 89.6326,-42.6084 100.067,-19.6532"/>
<polygon fill="#9a32cd" stroke="#9a32cd" points="43.8232,-134.931 42.8714,-145.483 50.1958,-137.828 43.8232,-134.931"/>
<text text-anchor="middle" x="83" y="-74.5" font-family="Helvetica,sans-Serif" font-size="10.00"> P</text>
</g>
<!-- Node6&#45;&gt;Node2 -->
<g id="edge5" class="edge"><title>Node6&#45;&gt;Node2</title>
<path fill="none" stroke="#9a32cd" stroke-dasharray="5,2" d="M59.4802,-139.813C76.1661,-128.854 100.696,-114.072 124,-105 154.086,-93.2878 190.457,-86.0311 215.419,-82.0297"/>
<polygon fill="#9a32cd" stroke="#9a32cd" points="57.4324,-136.972 51.075,-145.448 61.3302,-142.787 57.4324,-136.972"/>
<text text-anchor="middle" x="142" y="-113.5" font-family="Helvetica,sans-Serif" font-size="10.00"> params</text>
</g>
<!-- Node7 -->
<g id="node7" class="node"><title>Node7</title>
<g id="a_node7"><a xlink:href="group__hard__constraints.html#structvrna__hc__s" target="_top" xlink:title="The hard constraints data structure. ">
<polygon fill="none" stroke="black" points="214,-145.5 214,-164.5 276,-164.5 276,-145.5 214,-145.5"/>
<text text-anchor="middle" x="245" y="-152.5" font-family="Helvetica,sans-Serif" font-size="10.00">vrna_hc_s</text>
</a>
</g>
</g>
<!-- Node7&#45;&gt;Node2 -->
<g id="edge7" class="edge"><title>Node7&#45;&gt;Node2</title>
<path fill="none" stroke="#9a32cd" stroke-dasharray="5,2" d="M245,-135.224C245,-119.697 245,-98.3582 245,-86.6165"/>
<polygon fill="#9a32cd" stroke="#9a32cd" points="241.5,-135.282 245,-145.282 248.5,-135.282 241.5,-135.282"/>
<text text-anchor="middle" x="252" y="-113.5" font-family="Helvetica,sans-Serif" font-size="10.00"> hc</text>
</g>
<!-- Node8 -->
<g id="node8" class="node"><title>Node8</title>
<g id="a_node8"><a xlink:href="group__dp__matrices.html#structvrna__mx__mfe__s" target="_top" xlink:title="Minimum Free Energy (MFE) Dynamic Programming (DP) matrices data structure required within the vrna_f...">
<polygon fill="none" stroke="black" points="294,-145.5 294,-164.5 380,-164.5 380,-145.5 294,-145.5"/>
<text text-anchor="middle" x="337" y="-152.5" font-family="Helvetica,sans-Serif" font-size="10.00">vrna_mx_mfe_s</text>
</a>
</g>
</g>
<!-- Node8&#45;&gt;Node2 -->
<g id="edge8" class="edge"><title>Node8&#45;&gt;Node2</title>
<path fill="none" stroke="#9a32cd" stroke-dasharray="5,2" d="M318.514,-138.729C299.559,-123.07 270.748,-99.2701 255.43,-86.6165"/>
<polygon fill="#9a32cd" stroke="#9a32cd" points="316.508,-141.611 326.446,-145.282 320.966,-136.215 316.508,-141.611"/>
<text text-anchor="middle" x="322.5" y="-113.5" font-family="Helvetica,sans-Serif" font-size="10.00"> matrices</text>
</g>
<!-- Node9 -->
<g id="node9" class="node"><title>Node9</title>
<g id="a_node9"><a xlink:href="group__dp__matrices.html#structvrna__mx__pf__s" target="_top" xlink:title="Partition function (PF) Dynamic Programming (DP) matrices data structure required within the vrna_fol...">
<polygon fill="none" stroke="black" points="398,-145.5 398,-164.5 476,-164.5 476,-145.5 398,-145.5"/>
<text text-anchor="middle" x="437" y="-152.5" font-family="Helvetica,sans-Serif" font-size="10.00">vrna_mx_pf_s</text>
</a>
</g>
</g>
<!-- Node9&#45;&gt;Node2 -->
<g id="edge9" class="edge"><title>Node9&#45;&gt;Node2</title>
<path fill="none" stroke="#9a32cd" stroke-dasharray="5,2" d="M414.786,-139.946C397.002,-129.183 371.129,-114.6 347,-105 323.341,-95.587 295.303,-88.4359 274.617,-83.8655"/>
<polygon fill="#9a32cd" stroke="#9a32cd" points="413.42,-143.215 423.771,-145.476 417.089,-137.253 413.42,-143.215"/>
<text text-anchor="middle" x="424" y="-113.5" font-family="Helvetica,sans-Serif" font-size="10.00"> exp_matrices</text>
</g>
</g>
</svg>
