<?xml version="1.0" encoding="UTF-8" standalone="no"?>
<!DOCTYPE svg PUBLIC "-//W3C//DTD SVG 1.1//EN"
 "http://www.w3.org/Graphics/SVG/1.1/DTD/svg11.dtd">
<!-- Generated by graphviz version 2.38.0 (20140413.2041)
 -->
<!-- Title: vrna_fc_s Pages: 1 -->
<svg width="564pt" height="173pt"
 viewBox="0.00 0.00 564.00 173.00" xmlns="http://www.w3.org/2000/svg" xmlns:xlink="http://www.w3.org/1999/xlink">
<g id="graph0" class="graph" transform="scale(1 1) rotate(0) translate(4 169)">
<title>vrna_fc_s</title>
<!-- Node1 -->
<g id="node1" class="node"><title>Node1</title>
<polygon fill="#bfbfbf" stroke="black" points="265.5,-0.5 265.5,-19.5 324.5,-19.5 324.5,-0.5 265.5,-0.5"/>
<text text-anchor="middle" x="295" y="-7.5" font-family="Helvetica,sans-Serif" font-size="10.00">vrna_fc_s</text>
</g>
<!-- Node2 -->
<g id="node2" class="node"><title>Node2</title>
<g id="a_node2"><a xlink:href="group__soft__constraints.html#structvrna__sc__s" target="_top" xlink:title="The soft constraints data structure. ">
<polygon fill="none" stroke="black" points="0,-78.5 0,-97.5 62,-97.5 62,-78.5 0,-78.5"/>
<text text-anchor="middle" x="31" y="-85.5" font-family="Helvetica,sans-Serif" font-size="10.00">vrna_sc_s</text>
</a>
</g>
</g>
<!-- Node2&#45;&gt;Node1 -->
<g id="edge1" class="edge"><title>Node2&#45;&gt;Node1</title>
<path fill="none" stroke="#9a32cd" stroke-dasharray="5,2" d="M55.8988,-73.6427C77.5533,-62.5582 110.068,-47.1759 140,-38 182.568,-24.9502 233.767,-17.5724 265.348,-13.9342"/>
<polygon fill="#9a32cd" stroke="#9a32cd" points="54.0183,-70.6756 46.7619,-78.3954 57.2487,-76.8857 54.0183,-70.6756"/>
<text text-anchor="middle" x="148" y="-52" font-family="Helvetica,sans-Serif" font-size="10.00"> sc</text>
<text text-anchor="middle" x="148" y="-41" font-family="Helvetica,sans-Serif" font-size="10.00">scs</text>
</g>
<!-- Node3 -->
<g id="node3" class="node"><title>Node3</title>
<g id="a_node3"><a xlink:href="group__energy__parameters.html#structvrna__exp__param__s" target="_top" xlink:title="The datastructure that contains temperature scaled Boltzmann weights of the energy parameters...">
<polygon fill="none" stroke="black" points="80.5,-78.5 80.5,-97.5 179.5,-97.5 179.5,-78.5 80.5,-78.5"/>
<text text-anchor="middle" x="130" y="-85.5" font-family="Helvetica,sans-Serif" font-size="10.00">vrna_exp_param_s</text>
</a>
</g>
</g>
<!-- Node3&#45;&gt;Node1 -->
<g id="edge2" class="edge"><title>Node3&#45;&gt;Node1</title>
<path fill="none" stroke="#9a32cd" stroke-dasharray="5,2" d="M145.751,-71.1956C157.351,-60.3917 174.003,-46.5351 191,-38 214.505,-26.1967 243.667,-19.2048 265.124,-15.3048"/>
<polygon fill="#9a32cd" stroke="#9a32cd" points="143.041,-68.9461 138.265,-78.4032 147.896,-73.9889 143.041,-68.9461"/>
<text text-anchor="middle" x="219.5" y="-46.5" font-family="Helvetica,sans-Serif" font-size="10.00"> exp_params</text>
</g>
<!-- Node4 -->
<g id="node4" class="node"><title>Node4</title>
<g id="a_node4"><a xlink:href="group__model__details.html#structvrna__md__s" target="_top" xlink:title="The data structure that contains the complete model details used throughout the calculations. ">
<polygon fill="none" stroke="black" points="153.5,-145.5 153.5,-164.5 218.5,-164.5 218.5,-145.5 153.5,-145.5"/>
<text text-anchor="middle" x="186" y="-152.5" font-family="Helvetica,sans-Serif" font-size="10.00">vrna_md_s</text>
</a>
</g>
</g>
<!-- Node4&#45;&gt;Node3 -->
<g id="edge3" class="edge"><title>Node4&#45;&gt;Node3</title>
<path fill="none" stroke="#9a32cd" stroke-dasharray="5,2" d="M154.846,-140.268C149.26,-136.634 143.965,-132.23 140,-127 133.488,-118.411 131.205,-105.949 130.412,-97.6665"/>
<polygon fill="#9a32cd" stroke="#9a32cd" points="153.296,-143.413 163.711,-145.353 156.778,-137.341 153.296,-143.413"/>
<text text-anchor="middle" x="172" y="-119" font-family="Helvetica,sans-Serif" font-size="10.00"> model_details</text>
</g>
<!-- Node5 -->
<g id="node5" class="node"><title>Node5</title>
<g id="a_node5"><a xlink:href="group__energy__parameters.html#structvrna__param__s" target="_top" xlink:title="The datastructure that contains temperature scaled energy parameters. ">
<polygon fill="none" stroke="black" points="198,-78.5 198,-97.5 276,-97.5 276,-78.5 198,-78.5"/>
<text text-anchor="middle" x="237" y="-85.5" font-family="Helvetica,sans-Serif" font-size="10.00">vrna_param_s</text>
</a>
</g>
</g>
<!-- Node4&#45;&gt;Node5 -->
<g id="edge5" class="edge"><title>Node4&#45;&gt;Node5</title>
<path fill="none" stroke="#9a32cd" stroke-dasharray="5,2" d="M199.814,-137.215C202.546,-133.848 205.379,-130.323 208,-127 215.914,-116.965 224.801,-105.252 230.626,-97.5113"/>
<polygon fill="#9a32cd" stroke="#9a32cd" points="197.023,-135.1 193.405,-145.058 202.443,-139.529 197.023,-135.1"/>
<text text-anchor="middle" x="249" y="-119" font-family="Helvetica,sans-Serif" font-size="10.00"> model_details</text>
</g>
<!-- Node5&#45;&gt;Node1 -->
<g id="edge4" class="edge"><title>Node5&#45;&gt;Node1</title>
<path fill="none" stroke="#9a32cd" stroke-dasharray="5,2" d="M246.436,-69.2043C251.895,-59.5735 259.214,-47.6983 267,-38 272.327,-31.365 279.193,-24.7206 284.793,-19.6834"/>
<polygon fill="#9a32cd" stroke="#9a32cd" points="243.219,-67.7918 241.479,-78.2428 249.356,-71.1582 243.219,-67.7918"/>
<text text-anchor="middle" x="285" y="-46.5" font-family="Helvetica,sans-Serif" font-size="10.00"> params</text>
</g>
<!-- Node6 -->
<g id="node6" class="node"><title>Node6</title>
<g id="a_node6"><a xlink:href="group__hard__constraints.html#structvrna__hc__s" target="_top" xlink:title="The hard constraints data structure. ">
<polygon fill="none" stroke="black" points="294,-78.5 294,-97.5 356,-97.5 356,-78.5 294,-78.5"/>
<text text-anchor="middle" x="325" y="-85.5" font-family="Helvetica,sans-Serif" font-size="10.00">vrna_hc_s</text>
</a>
</g>
</g>
<!-- Node6&#45;&gt;Node1 -->
<g id="edge6" class="edge"><title>Node6&#45;&gt;Node1</title>
<path fill="none" stroke="#9a32cd" stroke-dasharray="5,2" d="M317.766,-68.6744C311.623,-53.1127 303.081,-31.4722 298.401,-19.6165"/>
<polygon fill="#9a32cd" stroke="#9a32cd" points="314.631,-70.2654 321.559,-78.2818 321.142,-67.6952 314.631,-70.2654"/>
<text text-anchor="middle" x="321" y="-46.5" font-family="Helvetica,sans-Serif" font-size="10.00"> hc</text>
</g>
<!-- Node7 -->
<g id="node7" class="node"><title>Node7</title>
<g id="a_node7"><a xlink:href="group__dp__matrices.html#structvrna__mx__mfe__s" target="_top" xlink:title="Minimum Free Energy (MFE) Dynamic Programming (DP) matrices data structure required within the vrna_f...">
<polygon fill="none" stroke="black" points="374,-78.5 374,-97.5 460,-97.5 460,-78.5 374,-78.5"/>
<text text-anchor="middle" x="417" y="-85.5" font-family="Helvetica,sans-Serif" font-size="10.00">vrna_mx_mfe_s</text>
</a>
</g>
</g>
<!-- Node7&#45;&gt;Node1 -->
<g id="edge7" class="edge"><title>Node7&#45;&gt;Node1</title>
<path fill="none" stroke="#9a32cd" stroke-dasharray="5,2" d="M394.495,-72.9807C369.428,-57.3648 329.693,-32.6121 308.832,-19.6165"/>
<polygon fill="#9a32cd" stroke="#9a32cd" points="392.667,-75.965 403.005,-78.2818 396.368,-70.0236 392.667,-75.965"/>
<text text-anchor="middle" x="391.5" y="-46.5" font-family="Helvetica,sans-Serif" font-size="10.00"> matrices</text>
</g>
<!-- Node8 -->
<g id="node8" class="node"><title>Node8</title>
<g id="a_node8"><a xlink:href="group__dp__matrices.html#structvrna__mx__pf__s" target="_top" xlink:title="Partition function (PF) Dynamic Programming (DP) matrices data structure required within the vrna_fol...">
<polygon fill="none" stroke="black" points="478,-78.5 478,-97.5 556,-97.5 556,-78.5 478,-78.5"/>
<text text-anchor="middle" x="517" y="-85.5" font-family="Helvetica,sans-Serif" font-size="10.00">vrna_mx_pf_s</text>
</a>
</g>
</g>
<!-- Node8&#45;&gt;Node1 -->
<g id="edge8" class="edge"><title>Node8&#45;&gt;Node1</title>
<path fill="none" stroke="#9a32cd" stroke-dasharray="5,2" d="M493.054,-73.4157C473.004,-62.5281 443.359,-47.5431 416,-38 385.719,-27.4376 349.697,-20.0239 324.875,-15.6718"/>
<polygon fill="#9a32cd" stroke="#9a32cd" points="491.626,-76.6253 502.073,-78.3895 495.007,-70.4956 491.626,-76.6253"/>
<text text-anchor="middle" x="498" y="-46.5" font-family="Helvetica,sans-Serif" font-size="10.00"> exp_matrices</text>
</g>
</g>
</svg>
