<?xml version="1.0" encoding="UTF-8" standalone="no"?>
<!DOCTYPE svg PUBLIC "-//W3C//DTD SVG 1.1//EN"
 "http://www.w3.org/Graphics/SVG/1.1/DTD/svg11.dtd">
<!-- Generated by graphviz version 2.38.0 (20140413.2041)
 -->
<!-- Title: LIST Pages: 1 -->
<svg width="129pt" height="117pt"
 viewBox="0.00 0.00 129.00 117.00" xmlns="http://www.w3.org/2000/svg" xmlns:xlink="http://www.w3.org/1999/xlink">
<g id="graph0" class="graph" transform="scale(1 1) rotate(0) translate(4 113)">
<title>LIST</title>
<!-- Node1 -->
<g id="node1" class="node"><title>Node1</title>
<polygon fill="#bfbfbf" stroke="black" points="21.5,-0.5 21.5,-19.5 59.5,-19.5 59.5,-0.5 21.5,-0.5"/>
<text text-anchor="middle" x="40.5" y="-7.5" font-family="Helvetica,sans-Serif" font-size="10.00">LIST</text>
</g>
<!-- Node2 -->
<g id="node2" class="node"><title>Node2</title>
<g id="a_node2"><a xlink:href="structLST__BUCKET.html" target="_top" xlink:title="LST_BUCKET">
<polygon fill="none" stroke="black" points="0,-89.5 0,-108.5 81,-108.5 81,-89.5 0,-89.5"/>
<text text-anchor="middle" x="40.5" y="-96.5" font-family="Helvetica,sans-Serif" font-size="10.00">LST_BUCKET</text>
</a>
</g>
</g>
<!-- Node2&#45;&gt;Node1 -->
<g id="edge1" class="edge"><title>Node2&#45;&gt;Node1</title>
<path fill="none" stroke="#9a32cd" stroke-dasharray="5,2" d="M40.5,-79.1946C40.5,-60.7379 40.5,-33.412 40.5,-19.6249"/>
<polygon fill="#9a32cd" stroke="#9a32cd" points="37.0001,-79.34 40.5,-89.34 44.0001,-79.3401 37.0001,-79.34"/>
<text text-anchor="middle" x="53" y="-63" font-family="Helvetica,sans-Serif" font-size="10.00"> head</text>
<text text-anchor="middle" x="53" y="-52" font-family="Helvetica,sans-Serif" font-size="10.00">hz</text>
<text text-anchor="middle" x="53" y="-41" font-family="Helvetica,sans-Serif" font-size="10.00">z</text>
</g>
<!-- Node2&#45;&gt;Node2 -->
<g id="edge2" class="edge"><title>Node2&#45;&gt;Node2</title>
<path fill="none" stroke="#9a32cd" stroke-dasharray="5,2" d="M91.3235,-105.592C96.0317,-104.232 99,-102.035 99,-99 99,-94.1445 91.4013,-91.4323 81.235,-90.8633"/>
<polygon fill="#9a32cd" stroke="#9a32cd" points="90.5902,-102.164 81.235,-107.137 91.6495,-109.083 90.5902,-102.164"/>
<text text-anchor="middle" x="110" y="-96.5" font-family="Helvetica,sans-Serif" font-size="10.00"> next</text>
</g>
</g>
</svg>
