<?xml version="1.0" encoding="UTF-8" standalone="no"?>
<!DOCTYPE svg PUBLIC "-//W3C//DTD SVG 1.1//EN"
 "http://www.w3.org/Graphics/SVG/1.1/DTD/svg11.dtd">
<!-- Generated by graphviz version 2.38.0 (20140413.2041)
 -->
<!-- Title: ViennaRNA/utils.h Pages: 1 -->
<svg width="539pt" height="319pt"
 viewBox="0.00 0.00 539.00 319.00" xmlns="http://www.w3.org/2000/svg" xmlns:xlink="http://www.w3.org/1999/xlink">
<g id="graph0" class="graph" transform="scale(1 1) rotate(0) translate(4 315)">
<title>ViennaRNA/utils.h</title>
<!-- Node1 -->
<g id="node1" class="node"><title>Node1</title>
<polygon fill="#bfbfbf" stroke="black" points="180,-291.5 180,-310.5 278,-310.5 278,-291.5 180,-291.5"/>
<text text-anchor="middle" x="229" y="-298.5" font-family="Helvetica,sans-Serif" font-size="10.00">ViennaRNA/utils.h</text>
</g>
<!-- Node2 -->
<g id="node2" class="node"><title>Node2</title>
<polygon fill="none" stroke="#bfbfbf" points="107,-168.5 107,-187.5 153,-187.5 153,-168.5 107,-168.5"/>
<text text-anchor="middle" x="130" y="-175.5" font-family="Helvetica,sans-Serif" font-size="10.00">stdio.h</text>
</g>
<!-- Node1&#45;&gt;Node2 -->
<g id="edge1" class="edge"><title>Node1&#45;&gt;Node2</title>
<path fill="none" stroke="midnightblue" d="M180.229,-291.495C159.215,-285.151 136.61,-274.124 124,-255 112.764,-237.96 117.243,-213.869 122.58,-197.407"/>
<polygon fill="midnightblue" stroke="midnightblue" points="125.931,-198.435 126.055,-187.841 119.351,-196.045 125.931,-198.435"/>
</g>
<!-- Node3 -->
<g id="node3" class="node"><title>Node3</title>
<g id="a_node3"><a xlink:href="data__structures_8h.html" target="_top" xlink:title="ViennaRNA/data_structures.h">
<polygon fill="none" stroke="black" points="197.5,-168.5 197.5,-187.5 344.5,-187.5 344.5,-168.5 197.5,-168.5"/>
<text text-anchor="middle" x="271" y="-175.5" font-family="Helvetica,sans-Serif" font-size="10.00">ViennaRNA/data_structures.h</text>
</a>
</g>
</g>
<!-- Node1&#45;&gt;Node3 -->
<g id="edge2" class="edge"><title>Node1&#45;&gt;Node3</title>
<path fill="none" stroke="midnightblue" d="M234.198,-291.307C239.319,-282.436 247.071,-268.144 252,-255 259.147,-235.94 264.431,-213.188 267.588,-197.577"/>
<polygon fill="midnightblue" stroke="midnightblue" points="271.05,-198.108 269.507,-187.627 264.177,-196.783 271.05,-198.108"/>
</g>
<!-- Node10 -->
<g id="node10" class="node"><title>Node10</title>
<g id="a_node10"><a xlink:href="string__utils_8h.html" target="_top" xlink:title="General utility&#45; and helper&#45;functions for RNA sequence and structure strings used throughout the Vien...">
<polygon fill="none" stroke="black" points="299.5,-230 299.5,-249 426.5,-249 426.5,-230 299.5,-230"/>
<text text-anchor="middle" x="363" y="-237" font-family="Helvetica,sans-Serif" font-size="10.00">ViennaRNA/string_utils.h</text>
</a>
</g>
</g>
<!-- Node1&#45;&gt;Node10 -->
<g id="edge14" class="edge"><title>Node1&#45;&gt;Node10</title>
<path fill="none" stroke="midnightblue" d="M248.199,-291.475C270.787,-281.445 308.499,-264.7 334.501,-253.155"/>
<polygon fill="midnightblue" stroke="midnightblue" points="336.118,-256.266 343.837,-249.009 333.277,-249.869 336.118,-256.266"/>
</g>
<!-- Node11 -->
<g id="node11" class="node"><title>Node11</title>
<g id="a_node11"><a xlink:href="structure__utils_8h.html" target="_top" xlink:title="Various utility&#45; and helper&#45;functions for secondary structure parsing, converting, etc. ">
<polygon fill="none" stroke="black" points="133,-224.5 133,-254.5 243,-254.5 243,-224.5 133,-224.5"/>
<text text-anchor="start" x="141" y="-242.5" font-family="Helvetica,sans-Serif" font-size="10.00">ViennaRNA/structure</text>
<text text-anchor="middle" x="188" y="-231.5" font-family="Helvetica,sans-Serif" font-size="10.00">_utils.h</text>
</a>
</g>
</g>
<!-- Node1&#45;&gt;Node11 -->
<g id="edge16" class="edge"><title>Node1&#45;&gt;Node11</title>
<path fill="none" stroke="midnightblue" d="M223.126,-291.475C217.988,-284.019 210.293,-272.852 203.414,-262.869"/>
<polygon fill="midnightblue" stroke="midnightblue" points="206.219,-260.771 197.663,-254.523 200.455,-264.743 206.219,-260.771"/>
</g>
<!-- Node4 -->
<g id="node4" class="node"><title>Node4</title>
<g id="a_node4"><a xlink:href="energy__const_8h.html" target="_top" xlink:title="ViennaRNA/energy_const.h">
<polygon fill="none" stroke="black" points="0,-56.5 0,-75.5 138,-75.5 138,-56.5 0,-56.5"/>
<text text-anchor="middle" x="69" y="-63.5" font-family="Helvetica,sans-Serif" font-size="10.00">ViennaRNA/energy_const.h</text>
</a>
</g>
</g>
<!-- Node3&#45;&gt;Node4 -->
<g id="edge3" class="edge"><title>Node3&#45;&gt;Node4</title>
<path fill="none" stroke="midnightblue" d="M197.492,-169.292C148.478,-162.523 90.1785,-150.766 74,-132 63.2702,-119.554 63.1027,-100.319 64.9682,-85.9975"/>
<polygon fill="midnightblue" stroke="midnightblue" points="68.4782,-86.2405 66.7371,-75.7897 61.5809,-85.0452 68.4782,-86.2405"/>
</g>
<!-- Node6 -->
<g id="node6" class="node"><title>Node6</title>
<g id="a_node6"><a xlink:href="model_8h.html" target="_top" xlink:title="The model details data structure and its corresponding modifiers. ">
<polygon fill="none" stroke="black" points="163,-56.5 163,-75.5 269,-75.5 269,-56.5 163,-56.5"/>
<text text-anchor="middle" x="216" y="-63.5" font-family="Helvetica,sans-Serif" font-size="10.00">ViennaRNA/model.h</text>
</a>
</g>
</g>
<!-- Node3&#45;&gt;Node6 -->
<g id="edge5" class="edge"><title>Node3&#45;&gt;Node6</title>
<path fill="none" stroke="midnightblue" d="M264.702,-168.337C258.444,-159.489 248.821,-145.214 242,-132 234.161,-116.812 227.089,-98.6965 222.306,-85.4526"/>
<polygon fill="midnightblue" stroke="midnightblue" points="225.477,-83.9195 218.861,-75.6447 218.873,-86.2395 225.477,-83.9195"/>
</g>
<!-- Node7 -->
<g id="node7" class="node"><title>Node7</title>
<g id="a_node7"><a xlink:href="params_8h.html" target="_top" xlink:title="ViennaRNA/params.h">
<polygon fill="none" stroke="black" points="83,-112.5 83,-131.5 195,-131.5 195,-112.5 83,-112.5"/>
<text text-anchor="middle" x="139" y="-119.5" font-family="Helvetica,sans-Serif" font-size="10.00">ViennaRNA/params.h</text>
</a>
</g>
</g>
<!-- Node3&#45;&gt;Node7 -->
<g id="edge6" class="edge"><title>Node3&#45;&gt;Node7</title>
<path fill="none" stroke="midnightblue" d="M244.995,-168.444C221.428,-159.596 187.189,-145.687 163.957,-135.586"/>
<polygon fill="midnightblue" stroke="midnightblue" points="165.3,-132.353 154.738,-131.516 162.473,-138.757 165.3,-132.353"/>
</g>
<!-- Node8 -->
<g id="node8" class="node"><title>Node8</title>
<g id="a_node8"><a xlink:href="dp__matrices_8h.html" target="_top" xlink:title="ViennaRNA/dp_matrices.h">
<polygon fill="none" stroke="black" points="251.5,-112.5 251.5,-131.5 384.5,-131.5 384.5,-112.5 251.5,-112.5"/>
<text text-anchor="middle" x="318" y="-119.5" font-family="Helvetica,sans-Serif" font-size="10.00">ViennaRNA/dp_matrices.h</text>
</a>
</g>
</g>
<!-- Node3&#45;&gt;Node8 -->
<g id="edge10" class="edge"><title>Node3&#45;&gt;Node8</title>
<path fill="none" stroke="midnightblue" d="M273.595,-168.083C278.832,-160.141 288.761,-148.335 298.046,-138.797"/>
<polygon fill="midnightblue" stroke="midnightblue" points="300.549,-141.245 305.252,-131.751 295.655,-136.24 300.549,-141.245"/>
</g>
<!-- Node9 -->
<g id="node9" class="node"><title>Node9</title>
<g id="a_node9"><a xlink:href="constraints_8h.html" target="_top" xlink:title="ViennaRNA/constraints.h">
<polygon fill="none" stroke="black" points="403,-112.5 403,-131.5 531,-131.5 531,-112.5 403,-112.5"/>
<text text-anchor="middle" x="467" y="-119.5" font-family="Helvetica,sans-Serif" font-size="10.00">ViennaRNA/constraints.h</text>
</a>
</g>
</g>
<!-- Node3&#45;&gt;Node9 -->
<g id="edge12" class="edge"><title>Node3&#45;&gt;Node9</title>
<path fill="none" stroke="midnightblue" d="M296.968,-168.444C328.622,-159.162 382.366,-144.309 421.031,-134.127"/>
<polygon fill="midnightblue" stroke="midnightblue" points="422.22,-137.434 431.009,-131.516 420.448,-130.662 422.22,-137.434"/>
</g>
<!-- Node5 -->
<g id="node5" class="node"><title>Node5</title>
<polygon fill="none" stroke="#bfbfbf" points="45,-0.5 45,-19.5 93,-19.5 93,-0.5 45,-0.5"/>
<text text-anchor="middle" x="69" y="-7.5" font-family="Helvetica,sans-Serif" font-size="10.00">limits.h</text>
</g>
<!-- Node4&#45;&gt;Node5 -->
<g id="edge4" class="edge"><title>Node4&#45;&gt;Node5</title>
<path fill="none" stroke="midnightblue" d="M69,-56.083C69,-49.0059 69,-38.8611 69,-29.9865"/>
<polygon fill="midnightblue" stroke="midnightblue" points="72.5001,-29.751 69,-19.7511 65.5001,-29.7511 72.5001,-29.751"/>
</g>
<!-- Node7&#45;&gt;Node3 -->
<g id="edge8" class="edge"><title>Node7&#45;&gt;Node3</title>
<path fill="none" stroke="midnightblue" d="M164.898,-131.516C188.433,-140.349 222.673,-154.255 245.938,-164.368"/>
<polygon fill="midnightblue" stroke="midnightblue" points="244.611,-167.608 255.173,-168.444 247.437,-161.204 244.611,-167.608"/>
</g>
<!-- Node7&#45;&gt;Node4 -->
<g id="edge7" class="edge"><title>Node7&#45;&gt;Node4</title>
<path fill="none" stroke="midnightblue" d="M127.753,-112.324C117.203,-104.185 101.199,-91.8395 88.5578,-82.0874"/>
<polygon fill="midnightblue" stroke="midnightblue" points="90.507,-79.1707 80.4513,-75.8339 86.2314,-84.7132 90.507,-79.1707"/>
</g>
<!-- Node7&#45;&gt;Node6 -->
<g id="edge9" class="edge"><title>Node7&#45;&gt;Node6</title>
<path fill="none" stroke="midnightblue" d="M151.371,-112.324C163.158,-104.058 181.132,-91.4527 195.136,-81.6322"/>
<polygon fill="midnightblue" stroke="midnightblue" points="197.482,-84.2619 203.659,-75.6545 193.462,-78.5307 197.482,-84.2619"/>
</g>
<!-- Node8&#45;&gt;Node3 -->
<g id="edge11" class="edge"><title>Node8&#45;&gt;Node3</title>
<path fill="none" stroke="midnightblue" d="M315.46,-131.834C310.228,-139.791 300.236,-151.673 290.905,-161.253"/>
<polygon fill="midnightblue" stroke="midnightblue" points="288.374,-158.833 283.666,-168.324 293.265,-163.84 288.374,-158.833"/>
</g>
<!-- Node9&#45;&gt;Node3 -->
<g id="edge13" class="edge"><title>Node9&#45;&gt;Node3</title>
<path fill="none" stroke="midnightblue" d="M441.168,-131.516C409.578,-140.782 355.844,-155.633 317.136,-165.829"/>
<polygon fill="midnightblue" stroke="midnightblue" points="315.934,-162.526 307.146,-168.444 317.706,-169.298 315.934,-162.526"/>
</g>
<!-- Node10&#45;&gt;Node3 -->
<g id="edge15" class="edge"><title>Node10&#45;&gt;Node3</title>
<path fill="none" stroke="midnightblue" d="M349.819,-229.975C334.926,-220.343 310.456,-204.517 292.727,-193.052"/>
<polygon fill="midnightblue" stroke="midnightblue" points="294.455,-190.001 284.157,-187.509 290.653,-195.879 294.455,-190.001"/>
</g>
<!-- Node11&#45;&gt;Node2 -->
<g id="edge17" class="edge"><title>Node11&#45;&gt;Node2</title>
<path fill="none" stroke="midnightblue" d="M174.255,-224.399C165.653,-215.575 154.548,-204.183 145.614,-195.018"/>
<polygon fill="midnightblue" stroke="midnightblue" points="147.926,-192.375 138.44,-187.658 142.914,-197.262 147.926,-192.375"/>
</g>
<!-- Node11&#45;&gt;Node3 -->
<g id="edge18" class="edge"><title>Node11&#45;&gt;Node3</title>
<path fill="none" stroke="midnightblue" d="M207.67,-224.399C220.601,-215.129 237.486,-203.025 250.568,-193.647"/>
<polygon fill="midnightblue" stroke="midnightblue" points="252.835,-196.329 258.923,-187.658 248.756,-190.639 252.835,-196.329"/>
</g>
</g>
</svg>
